<svg xmlns="http://www.w3.org/2000/svg" width="360" height="213" viewBox="0 0 360 213">
    <g fill="#434343" fill-rule="evenodd">
        <path d="M7.03 94.971c1.821.889 3.092-1.708 1.266-2.598-1.822-.889-3.092 1.708-1.267 2.598M14.931 101.582c1.822.888 3.093-1.708 1.267-2.598-1.822-.889-3.092 1.707-1.267 2.598M18.732 93.787c1.822.89 3.093-1.707 1.268-2.598-1.822-.888-3.093 1.708-1.268 2.598M164.043 68.636l.367.18c.72.35 1.703.09 2.012-.628.31-.72.028-1.594-.745-1.97l-.367-.18c-.721-.352-1.703-.09-2.012.627-.31.72-.028 1.594.745 1.97M164.528 78.521c1.822.889 3.093-1.708 1.267-2.598-1.822-.889-3.092 1.708-1.267 2.598M212.352 81.683c1.993.31 2.357-2.572.36-2.883-1.994-.31-2.358 2.572-.36 2.883M9.009 153.367l-.368-.18c-.72-.35-1.703-.09-2.012.628-.31.72-.027 1.594.745 1.97l.368.18c.72.352 1.702.091 2.011-.627.31-.72.029-1.594-.744-1.97M316.574 153.11c1.994.31 2.357-2.573.36-2.884-1.994-.31-2.357 2.572-.36 2.883M313.376 164.708c1.993.31 2.357-2.572.36-2.883-1.994-.31-2.357 2.572-.36 2.883M323.563 164.453c1.993.31 2.357-2.572.36-2.883-1.994-.31-2.358 2.572-.36 2.883M257.915 103.406l-.403-.063c-.788-.123-1.626.423-1.687 1.207a1.574 1.574 0 0 0 1.328 1.676l.402.063c.789.123 1.627-.423 1.688-1.207a1.574 1.574 0 0 0-1.328-1.676M97.061 62.155l.368.18c.72.351 1.702.09 2.011-.627.31-.72.028-1.595-.744-1.972l-.368-.179c-.72-.352-1.702-.09-2.011.627-.31.72-.029 1.594.744 1.971M96.937 77.257c1.822.888 3.093-1.708 1.268-2.598-1.822-.89-3.093 1.707-1.268 2.598M70.879 62.25c1.822.888 3.092-1.708 1.267-2.598-1.822-.889-3.093 1.707-1.267 2.598M104.808 1.611c1.822.889 3.092-1.708 1.267-2.598-1.822-.888-3.093 1.708-1.267 2.598M383.316 204.04a968.766 968.766 0 0 0-35.66-49.627c-.624-.814-1.949.006-1.319.827a968.264 968.264 0 0 1 35.659 49.627c.573.853 1.894.028 1.32-.827M380.824 206.63a970.034 970.034 0 0 0-35.657-49.625c-.625-.816-1.951.005-1.32.827a970.023 970.023 0 0 1 35.656 49.625c.574.854 1.897.029 1.321-.828"/>
        <path d="M347.554 155.844c3.939-2.858.294-6.798-1.988-9.611a263.49 263.49 0 0 0-12.426-14.21c-.704-.75-1.735.385-1.038 1.13a261.297 261.297 0 0 1 8.43 9.416c1.609 1.892 9.48 9.528 6.123 11.964-.799.58.093 1.896.9 1.311M343.73 156.71c-2.537 3.269-8.489-6.046-9.939-7.841l-7.916-9.802c-.638-.791-1.955.021-1.31.82 4.482 5.55 8.852 11.208 13.458 16.663 1.741 2.063 4.82 3.907 6.909 1.216.599-.773-.599-1.834-1.202-1.056"/>
        <path d="M342.096 145.506l-10.855-12.111-.21 1.062c.623-.43 1.325-.72 1.948-1.151.82-.568-.084-1.878-.911-1.305-.623.43-1.324.72-1.947 1.151-.314.217-.512.727-.21 1.063l10.855 12.112c.678.757 2.019-.053 1.33-.82M337.495 149.033l-5.42-6.782c-1.36-1.702-2.661-4.05-4.695-5.04-.249-.121-.578-.137-.805.025l-1.842 1.32c-.808.58.09 1.904.905 1.32.354-.254 1.12-1.092 1.555-1.115.425-.023 2.265 2.694 2.748 3.297 2.08 2.6 4.157 5.202 6.236 7.802.64.8 1.965-.018 1.318-.827"/>
        <path d="M339.947 146.492l-9.16-11.438c-.273-.34-.72-.481-1.098-.247-1.864 1.159-1.897 2.323-.662 4.07 2.464 3.49 5.914 6.521 8.618 9.867.641.793 1.948-.026 1.3-.828a147.604 147.604 0 0 0-5.423-6.351c-.994-1.097-2.156-2.127-3.051-3.298-.758-.991-1.3-1.262.113-2.14l-1.098-.245 9.161 11.438c.638.796 1.945-.023 1.3-.828"/>
        <path d="M338.205 147.552c-.39.201-.724.518-1.038.802-.324.295-.627.6-.885.945-.251.334.006.849.38 1.027.45.214.88.028 1.132-.307-.155.206.007.002.043-.037.062-.069.126-.135.19-.2a11.124 11.124 0 0 1 .852-.772c.034-.025.068-.05.103-.073.057-.036.111-.071.172-.102.39-.201.472-.713.225-1.047-.267-.36-.783-.438-1.174-.236"/>
        <path d="M339.478 147.302c.647-.476 1.532-.584 2.18-1.06.336-.248.477-.669.213-1.035-.228-.318-.787-.483-1.125-.235-.647.476-1.532.584-2.18 1.061-.336.248-.477.669-.213 1.035.228.317.787.483 1.125.234M112.65 30.376c-5.508-8.767-16.466-13.597-26.66-12.053-10.262 1.554-18.47 8.97-22.028 18.185-.533 1.378 1.645 2.455 2.182 1.064 3.258-8.439 10.625-15.434 20.073-16.919 9.392-1.476 19.38 2.9 24.457 10.98.822 1.307 2.794.044 1.976-1.257"/>
        <path d="M64.058 36.308c-2.54.72-5.603 2.088-5.506 5.176.098 3.156 4.263 4.304 6.631 5.489 1.388.694 2.418-1.415 1.029-2.11l-2.856-1.428c-.799-.4-2.152-.79-2.394-1.745-.499-1.973 2.59-2.771 3.901-3.143 1.478-.42.668-2.657-.805-2.24"/>
        <path d="M64.367 46.586c5.483 9.259 16.878 10.31 26.548 10.138 4.9-.087 9.42-.316 13.224-3.45 4.043-3.33 5.96-8.252 7.732-12.99.516-1.38-1.665-2.458-2.186-1.066-1.447 3.868-2.915 7.955-5.82 11.013-3.597 3.786-8.077 4.075-13.181 4.165-8.824.158-19.315-.574-24.34-9.06-.787-1.328-2.756-.067-1.977 1.25"/>
        <path d="M110.994 31.423c.496.738 1.13 1.254 1.905 1.708.91.534 2.176.895 2.26 2.089.161 2.276-3.034 2.884-4.74 3.261-1.52.337-.664 2.585.846 2.252 2.697-.597 5.678-1.618 6.27-4.565.219-1.094-.01-2.245-.74-3.16-1.015-1.267-2.91-1.535-3.795-2.851-.877-1.305-2.88-.034-2.006 1.266M105.887 39.935c-3.286 6.16-11.643 11.062-18.85 11.159-.727.01-.62 1.104.107 1.095 7.653-.103 16.294-5.238 19.77-11.753.329-.617-.698-1.117-1.027-.5M83.042 50.797a21.738 21.738 0 0 1-5.161-.524c-.687-.153-.872.887-.183 1.04 1.799.4 3.613.579 5.443.544.7-.013.601-1.073-.1-1.06M79.686 35.762c1.041.508 1.767-.976.724-1.484-1.042-.508-1.767.976-.724 1.484M77 42.263c1.04.507 1.766-.977.723-1.485-1.041-.508-1.767.976-.724 1.485M73.338 35.883c1.042.508 1.767-.976.724-1.485-1.041-.508-1.766.976-.724 1.485M84.823 40.106c1.042.508 1.767-.976.724-1.485-1.041-.508-1.766.976-.724 1.485M83.573 30.767c1.042.508 1.767-.976.724-1.485-1.04-.508-1.766.976-.724 1.485M18.33-2.05c10.615.446 17.531 10.596 20.543 19.506 2.866 8.483 3.012 17.587 1.024 26.083-4.133 17.667-17.572 31.15-34.83 37.349-9.8 3.52-20.458 4.721-31.017 3.707-1.521-.146-1.936 2.126-.395 2.274 19.93 1.915 40.571-3.776 54.478-17.49C41.728 55.973 47.44 34.884 40.971 16.313 37.52 6.403 29.706-3.881 18.105-4.369c-1.54-.064-1.306 2.255.226 2.319"/>
        <path d="M15.399 2.421c12.448.58 18.865 14.673 20.252 24.937 1.336 9.887-.908 19.963-5.883 28.402C19.277 73.556-2.9 81.607-23.81 79.598c-1.018-.099-1.294 1.42-.262 1.519 17.529 1.685 35.64-3.255 47.916-15.222 12.18-11.873 17.261-30.74 11.294-47.252C32.048 10.096 25.257 1.338 15.246.87c-1.03-.048-.872 1.502.153 1.55M-33.205 122.428a1180.132 1180.132 0 0 1 65.296-8.255l-1.309-1.095c1.12 5.242 2.24 10.485 3.358 15.728.312 1.455 2.701 1.35 2.386-.124l-3.358-15.728c-.127-.594-.61-1.164-1.308-1.096-21.869 2.148-43.642 4.901-65.295 8.256-1.496.231-1.284 2.55.23 2.314"/>
        <path d="M-34.193 140.32c23.235-3.777 46.63-6.764 69.865-10.54 1.496-.244 1.289-2.572-.227-2.326-23.235 3.777-46.63 6.764-69.865 10.54-1.496.244-1.289 2.572.227 2.326M33.354 119.989c2.984-.176 5.943-.504 8.85-1.111a44.164 44.164 0 0 0 5.141-1.393c.68-.23 1.343-.495 2.015-.742 1.574-.577 1.424-1.052 2.446.905 1.062 2.033.601 1.63-1.2 1.801-.913.087-1.847.093-2.763.151-1.722.11-3.44.258-5.152.443-2.941.316-6.224.495-9.036 1.357.465.16.931.32 1.396.482l-.142-.213-.3 1.603.234-.109-1.46-.124.203.183c1.152 1.043 2.697-.67 1.55-1.71l-.203-.182c-.435-.394-.99-.344-1.46-.124l-.233.109c-.58.271-.623 1.12-.298 1.603l.142.211c.297.441.902.633 1.397.481 5.302-1.626 11.325-1.241 16.819-1.869 2.726-.311 5.495-1.701 4.795-4.822-.739-3.29-4.046-3.58-6.74-2.705-5.413 1.757-10.415 3.113-16.229 3.456-1.533.091-1.311 2.41.228 2.319M-36.199 128.458l47.999-5.667c.709-.084.612-1.174-.103-1.09l-47.999 5.668c-.71.083-.612 1.173.103 1.089M-11.734 128.907a884.924 884.924 0 0 0 20.195-2.243c.71-.086.602-1.168-.115-1.08a884.924 884.924 0 0 1-20.195 2.242c-.715.072-.606 1.153.115 1.081M14.411 121.935c2.61.026 5.193-.151 7.756-.534.692-.103.595-1.174-.106-1.07-2.563.383-5.145.56-7.755.534-.711-.007-.605 1.063.105 1.07M171.111 26.568c-6.392 5.338-5.999 14.676-3.242 22.071 3.195 8.569 12.364 12.277 21.089 12.865 8.438.57 15.008-3.936 18.502-11.002 1.79-3.62 3.106-8.032 2.493-12.16-.58-3.91-3.052-7.459-5.734-10.413-6.723-7.406-16.904-10.886-25.91-6.117-1.335.707.055 2.664 1.38 1.963 9.088-4.813 19.076.298 24.779 8.1 3.095 4.234 3.77 8.471 2.44 13.292-1.097 3.981-3.199 7.799-6.382 10.517-6.64 5.671-18.806 4.156-25.769-1.258-7.135-5.548-9.225-20.084-2.265-25.896 1.131-.944-.239-2.916-1.38-1.962M163.99 7.496a366.31 366.31 0 0 0-1.938-9.493l-1.686 1.095c3 1.62 6.025 3.193 9.074 4.721 1.38.692 2.386-1.368 1.005-2.06a335.576 335.576 0 0 1-9.075-4.72c-.741-.4-1.876.227-1.686 1.096a366.31 366.31 0 0 1 1.938 9.493c.278 1.46 2.65 1.344 2.369-.132"/>
        <path d="M188.626 24.697c-8.66-.501-16.43 4.93-17.89 13.203-.676 3.832.007 7.99 2.087 11.47 2.576 4.309 6.456 6.01 11.314 6.866 4.192.739 8.539 1.212 12.313-.785 3.615-1.912 5.958-5.411 6.906-9.258.977-3.967.926-8.904-1.614-12.502-2.925-4.143-8.208-6.757-12.703-8.909-.94-.45-1.611.92-.669 1.372 3.531 1.69 7.173 3.54 10.07 6.195 3.59 3.29 4.318 7.63 3.622 12.051-.584 3.713-2.448 7.238-5.735 9.287-3.574 2.229-7.827 1.758-11.931 1.038-4.714-.826-8.452-2.612-10.655-6.96a15.322 15.322 0 0 1-1.237-10.448c1.704-7.181 8.735-11.514 16.279-11.077 1.029.059.866-1.484-.157-1.543"/>
        <path d="M175.63 29.39c-3.928 3.843-2.068 11.355-.007 15.999 2.306 5.2 7.06 10.525 12.939 11.8 1.017.22 1.278-1.294.258-1.515-5.293-1.147-9.598-6.082-11.692-10.753-1.79-3.993-3.646-11.175-.268-14.48.709-.694-.524-1.741-1.23-1.051M196.685 60.083c1.374 1.9 3.06 3.644 5.097 4.893 1.866 1.144 3.945-.842 5.295-1.987 1.178-.998 3.005-2.428 2.376-4.187-.721-2.014-3.206-4.03-4.88-5.286-1.259-.944-2.838.784-1.573 1.733 1.074.806 4.337 3.195 3.92 4.46-.246.745-1.601 1.62-2.174 2.042-.81.598-1.687 1.089-2.6 1.529l1.207-.053c-1.862-1.17-3.399-2.65-4.67-4.409-.917-1.268-2.916-.004-1.998 1.265M175.486 13.685c-.61-.901-1.819-.313-2.058.507-.259.886.301 1.935 1.266 2.164.898.212 1.912-.344 2.075-1.232.168-.918-.503-1.804-1.421-2.034-.72-.18-.908.908-.19 1.088.6.15.653.957.043 1.097a.542.542 0 0 1-.655-.362c-.043-.119-.066-.277-.02-.397a.258.258 0 0 1 .08-.138c.116-.031.097-.063-.06-.095.413.609 1.351.01.94-.598M189.99 40.71a1.786 1.786 0 0 0-2.028 1.216c-.277.901.317 1.84 1.19 2.196.927.377 1.918.004 2.434-.787.221-.34.46-.916.31-1.333-.091-.259-.417-.448-.618-.619l-.927-.784c-.531-.451-1.233.33-.7.78l1.388 1.176a147.1 147.1 0 0 0-.186-.358c-.017.767-.89 1.343-1.563.808-.574-.457-.247-1.4.517-1.262.683.125.87-.907.183-1.032M182.501 13.324c-1.031-.328-2.025.854-2.192 1.772-.193 1.058.475 2.098 1.462 2.442 1.01.352 1.995-.431 2.266-1.416.285-1.039-.308-2.128-1.29-2.506-.65-.251-1.14.738-.483.991.446.172.817.573.752 1.092-.047.384-.404.902-.825.823-.426-.081-.781-.547-.818-.963-.04-.429.372-1.327.923-1.152.666.213.867-.872.205-1.083M326.335 41.588c-9.798-2.195-20.068-.09-27.49 6.166-4.776 4.026-13.333 14.486-6.988 20.804 2.848 2.837 8.626 4.602 12.489 5.22 4.281.685 8.49-.413 12.175-2.321 7.534-3.899 16.002-11.655 15.234-20.753-.127-1.502-2.514-1.246-2.387.254.66 7.83-7.034 14.547-13.36 18.077-3.247 1.81-7.034 2.989-10.895 2.513-3.143-.388-9.305-2.175-11.531-4.625-5.38-5.923 4.494-15.891 9.034-19.01 6.718-4.613 15.254-5.85 23.43-4.018 1.527.342 1.808-1.966.289-2.307"/>
        <path d="M326.626 43.619c19.51-11.614 40.153-21.34 60.886-30.824 1.37-.628.426-2.811-.958-2.178-20.915 9.567-41.732 19.393-61.414 31.109-1.298.772.197 2.66 1.486 1.893M330.735 51.252l62.61-31.036c1.342-.666.402-2.85-.956-2.177l-62.61 31.036c-1.343.665-.402 2.85.956 2.177M322.491 47.626c-5.623.137-11.882.379-16.711 3.26-4.246 2.534-7.052 6.65-9.164 10.93-.305.619.735 1.066 1.039.45 2.091-4.237 4.873-8.288 9.165-10.683 4.613-2.575 10.538-2.754 15.839-2.883.72-.017.55-1.091-.168-1.074M298.793 66.731a13.134 13.134 0 0 0 4.996 1.293c.72.04.864-1.05.136-1.09a12.307 12.307 0 0 1-4.703-1.207c-.664-.319-1.09.687-.43 1.004M308.913 67.42c5.616-.769 12.872-4.31 15.285-9.514.293-.632-.74-1.084-1.033-.453-2.22 4.79-9.215 8.169-14.417 8.88-.705.095-.545 1.183.165 1.086"/>
        <path d="M336.821 37.07c-6.647-7.298-14.794-13.164-23.96-17.06-9.21-3.914-20.207-6.491-30.002-4.567-18.757 3.685-33.855 21.392-36.53 39.377-2.766 18.598 9.446 38.196 25.9 48.056 7.88 4.723 16.93 7.218 26.015 6.434 9.537-.822 18.395-4.885 25.961-10.181 9.41-6.586 15.908-15.285 19.208-26.185 2.737-9.04 4.207-19.581-2.035-27.968-.924-1.24-2.812.123-1.891 1.362 5.68 7.629 4.177 17.437 1.7 25.638-2.655 8.793-7.376 16.46-14.583 22.342-13.538 11.049-31.806 17.04-49.18 8.758-15.467-7.373-27.935-23.768-29.04-40.375-1.22-18.319 11.998-36.17 28.816-43.078 19.477-8.001 44.307 4.07 57.73 18.808 1.04 1.14 2.937-.214 1.891-1.362"/>
        <path d="M266.554 27.67c-8.712 10.479-17.668 22.293-14.71 36.872 2.523 12.427 11.04 23.936 20.724 32.42.783.685 1.747-.514.97-1.195-9.357-8.197-17.667-19.384-20.104-31.393-2.874-14.156 5.958-25.564 14.401-35.717.635-.764-.648-1.748-1.28-.986M280.256 100.074c4.735 2.968 10.86 3.069 16.223 3.582 1.024.098 1.226-1.464.195-1.563-4.956-.474-11.073-.502-15.448-3.244-.876-.549-1.852.672-.97 1.225M336.597 48.068c2.09 9.455 1.14 19.19-3.059 27.744-4.187 8.53-11.34 15.176-18.283 21.616-.721.669.27 1.933.999 1.256 7.15-6.631 14.467-13.44 18.78-22.226 4.308-8.778 5.304-18.851 3.16-28.556-.217-.977-1.815-.82-1.597.166M332.725 37.426a1531.157 1531.157 0 0 1-8.83-7.746c-.772-.682-1.724.514-.958 1.191 2.933 2.593 5.876 5.175 8.83 7.746.776.676 1.73-.519.958-1.19M292.109 67.131c-3.69-.086-6.028 3.18-6.86 6.341-.952 3.616.367 7.225 3.828 9.211 7.56 4.34 15.752-1.59 15.606-9.308-.02-1.005-1.62-.828-1.602.171.113 5.981-5.618 10.56-11.735 8.431-3.12-1.086-5.1-3.661-4.75-6.9.316-2.924 2.362-6.464 5.754-6.384 1.037.024.79-1.538-.241-1.562"/>
        <path d="M301.167 80.738c2.257 2.677 6.886 1.71 9.18-.274 2.586-2.237 2.596-6.018.403-8.66-.661-.797-1.92.128-1.256.927 1.578 1.902 1.803 4.567-.008 6.313-1.515 1.462-5.394 2.746-7.063.766-.667-.79-1.926.134-1.256.928"/>
        <path d="M309.02 80.128c-.31 3.023 1.173 9.91 5.208 6.352 4.756-4.192 4.802-11.288 5.73-17.159.156-.99-1.402-1.231-1.558-.242-.481 3.05-.84 6.16-1.48 9.176-.433 2.034-1.07 3.71-2.315 5.36-.92 1.219-.685 1.206-2.443.382-2.028-.951-1.818-1.362-1.585-3.626.102-.996-1.455-1.242-1.557-.243"/>
        <path d="M304.075 83.302c-2.747.872-7.03 2.426-7.172 5.807-.122 2.922 3.744 2.235 5.45 1.619 1.571-.568 3.007-1.431 4.379-2.331 1.074-.704 2.708-1.507 2.815-2.926.237-3.143-3.857-2.898-5.807-2.238-.967.327-.32 1.77.647 1.442a9.593 9.593 0 0 1 1.549-.435c1.214-.3 1.61.055 1.19 1.063-.1 1.182-.453 1.22-1.396 1.84-1.26.826-2.574 1.632-4.024 2.143-.469.165-1.588.67-2.113.518-1.802-.518-.471-2.027.07-2.58 1.309-1.337 3.277-1.914 5.059-2.48.974-.31.327-1.752-.647-1.442M284.578 47.507c-7.115-2.018-10.186 4.724-10.908 10.393-.574 4.495-.094 9.069-1.11 13.505-.41 1.795-2.447 5.604-.156 7.066 2.065 1.318 4.601-.705 5.822-2.05 2.13-2.348 3.004-5.507 3.578-8.544.39-2.073.605-4.189 1.131-6.232.585-2.264 1.731-4.136 2.675-6.245 1.131-2.528 1.463-5.234-.495-7.582-.66-.792-1.926.107-1.264.9 2.388 2.865.298 5.86-.99 8.505-.975 2.001-1.543 4.047-1.956 6.232-.478 2.532-.705 5.132-1.533 7.58-.407 1.2-3.943 8.594-6.31 5.162-.341-.496.642-2.73.809-3.41.368-1.503.702-2.984.862-4.53.274-2.657.175-5.349.348-8.015.334-5.122 2.16-13.239 9.307-11.212 1.001.284 1.182-1.242.19-1.523M289.806 40.223c.572 2.21 1.902 4.833 4.102 6.078 1.84 1.04 3.828-.039 4.226-1.855.504-2.3-1.32-4.393-3.265-5.654-.84-.545-2.164-1.54-3.205-1.369-1.134.187-1.727 1.538-2.07 2.427-.351.905 1.156 1.55 1.508.642.217-.562.431-1.393 1.128-1.476.403-.048 1.272.694 1.662.946 1.272.824 2.579 1.956 2.667 3.478.04.695-.2 1.68-1.124 1.783-.79.087-1.682-.976-2.103-1.465a9.062 9.062 0 0 1-1.918-3.692c-.247-.954-1.858-.809-1.608.157M258.35 49.497c-2.108 8.66-.8 17.738 3.716 25.85.349.625 1.405.245 1.054-.387-4.43-7.956-5.695-16.792-3.629-25.285.164-.671-.98-.844-1.142-.178"/>
        <path d="M260.582 59.683c.144 3.97 1.205 7.766 3.16 11.312.345.627 1.38.235 1.03-.398-1.914-3.474-2.939-7.147-3.08-11.036-.025-.706-1.136-.581-1.11.122M288.728 37.806c-11.14.812-18.688 10.426-16.806 21.335.12.694 1.219.578 1.099-.121-1.784-10.332 5.33-19.361 15.87-20.13.711-.052.548-1.136-.163-1.084M278.78 78.08c2.564 4.273 6.83 7.886 12.163 6.82.698-.14.538-1.223-.17-1.082-4.807.96-8.64-2.272-10.955-6.128-.366-.61-1.409-.227-1.038.39M300.28 40.204c3.32-.912 6.133 1.338 8.138 3.733.465.557 1.355-.077.888-.635-2.377-2.84-5.64-5.167-9.477-4.113-.69.19-.237 1.203.451 1.015M241.97 75.027c.286 1.67.843 3.284 1.676 4.808.498.911 2.034.361 1.531-.559a14.107 14.107 0 0 1-1.555-4.412c-.173-1.003-1.826-.846-1.653.163M57.71 113.481c1.445 1.79 1.874 4.157 1.008 6.319-.374.934 1.033 1.63 1.41.688 1.063-2.652.692-5.646-1.111-7.88-.63-.781-1.942.087-1.307.873M63.227 115.585c.364 1.34.2 2.688-.431 3.928-.446.875.91 1.537 1.356.661.816-1.603.975-3.368.507-5.091-.257-.945-1.688-.439-1.432.502M114.197 48.147c-1.039 4.203-5.074 6.146-8.844 7.822-.917.408-.348 1.899.579 1.486 4.369-1.942 8.69-4.158 9.88-8.973.236-.958-1.378-1.291-1.615-.335M115.776 53.513c-1.128 1.516-2.737 2.554-4.65 2.864-.972.158-.848 1.678.135 1.52 2.306-.375 4.316-1.516 5.692-3.363.578-.776-.595-1.802-1.177-1.02M342.703 88.221c-5.035 7.546-12.291 13.165-21.063 16.277-.958.34-.32 1.79.64 1.45 9.005-3.196 16.533-8.988 21.705-16.738.547-.82-.732-1.814-1.282-.989M341.644 97.174c-2.108 2.848-5.132 4.803-8.698 5.53-.975.198-.754 1.731.233 1.53 3.964-.807 7.366-2.903 9.72-6.082.584-.788-.67-1.767-1.255-.978M162.505 46.69c.188 5.457 3.338 10.308 8.261 12.82.915.467 1.602-.94.687-1.408-4.443-2.268-7.195-6.612-7.363-11.519-.035-1.012-1.62-.904-1.585.107M132.89 9.418a5.347 5.347 0 0 1 2.898-.607c.986.076 1.288-1.456.288-1.533a7.231 7.231 0 0 0-4.047.844c-.887.472-.016 1.763.86 1.296M-5.031 33.733l22.07.272c1.834.022 3.843-.161 5.675.07.987.124 2.74.238 3.25 1.367.277.615-.15 2.584-.246 3.391a43.17 43.17 0 0 1-2.642 10.607c-1.293 3.31-2.837 6.756-5.798 8.938-2.784 2.052-6.288 3.396-9.59 4.525-6.426 2.198-13.205 3.35-19.945 4.485-.995.167-.853 1.716.155 1.546 7.93-1.334 15.967-2.67 23.36-5.682 3.435-1.398 7.093-3.024 9.442-5.884 2.312-2.814 3.708-6.515 4.798-9.94 1.13-3.55 2.076-7.486 2.056-11.268-.012-2.267-.944-3.378-3.316-3.595-4.71-.432-9.574-.134-14.29-.192l-15.135-.186c-1.03-.012-.873 1.534.156 1.546"/>
        <path d="M18.556 33.204a146.266 146.266 0 0 1-9.993 29.529c-.414.896 1.082 1.63 1.498.73A148.233 148.233 0 0 0 20.18 33.541c.216-.968-1.407-1.306-1.624-.337M6.208 39.817c.02 8.572-2.638 17.044-4.499 25.301-.217.963 1.346 1.273 1.564.31 1.894-8.41 4.534-16.97 4.514-25.7-.002-.993-1.581-.9-1.579.089"/>
        <g>
            <path d="M306.244 197.24c3.217 4.015 7.685 6.51 12.6 7.301 6.243 1.006 11.19-1.924 16.544-4.784 1.132-.605.405-2.575-.742-1.962-4.674 2.497-9.202 5.432-14.692 4.784-4.67-.55-9.047-2.764-12.102-6.577-.83-1.035-2.446.193-1.608 1.238M336.566 191.904c-3.244-7.583-10.058-12.894-18.027-13.365-7.241-.427-15.77 2.873-15.195 11.785.087 1.352 2.079 1.14 1.991-.21-.547-8.487 9.33-10.405 15.578-9.16 6.172 1.228 11.236 5.735 13.79 11.708.529 1.234 2.395.486 1.863-.758"/>
            <path d="M335.572 193.728a617.58 617.58 0 0 1 39.26 15.26c1.197.513 2.015-1.4.815-1.913a617.737 617.737 0 0 0-39.26-15.26c-1.217-.425-2.042 1.484-.815 1.913M334.61 199.732c10.892 5.69 21.907 11.148 33.202 15.888 1.2.504 2.018-1.408.815-1.913-11.294-4.74-22.31-10.198-33.202-15.887-1.163-.608-1.973 1.308-.816 1.912M330.918 192.463c-2.954-8.325-14.14-12.642-20.588-6.246-.43.426.122 1.225.558.794 6.012-5.963 16.402-1.97 19.161 5.805.21.594 1.08.242.869-.353M308.22 189.43a5.22 5.22 0 0 0 .78 3.67c.339.526 1.09-.05.75-.577a4.137 4.137 0 0 1-.608-2.927c.097-.623-.826-.788-.923-.165M310.91 195.706a3.912 3.912 0 0 0 2.185 1.557c.584.164.727-.805.149-.968-.645-.182-1.192-.6-1.583-1.166-.355-.513-1.107.062-.751.577M337.977 182.46c-3.598-4.963-8.56-8.357-14.315-9.826-.839-.214-1.044 1.17-.211 1.383 5.412 1.382 10.074 4.606 13.453 9.268.523.72 1.598-.1 1.073-.825"/>
        </g>
        <g>
            <path d="M117.995-3.036c-3.204 2.565-6.405 5.456-6.67 9.706-.28 4.482 2.4 8.674 4.648 12.393 5.24 8.669 11.377 16.8 18.232 24.357.952 1.05 2.538-.482 1.591-1.526-5.777-6.369-11.024-13.15-15.645-20.336-2.247-3.494-4.945-7.25-6.098-11.238-1.528-5.282 1.57-8.657 5.533-11.83 1.112-.89-.486-2.41-1.591-1.526M123.69-4.934c1.635-1.547 4.723-1.786 6.895-1.89 2.795-.132 4.723.631 6.535 2.656 3.077 3.44 5.848 7.214 8.66 10.854 5.438 7.036 10.539 14.298 14.722 22.085.669 1.246 2.638.147 1.97-1.097-5.361-9.979-12.24-19.065-19.353-27.962-2.642-3.305-5.18-7.853-9.866-8.602-3.42-.547-8.617-.003-11.176 2.418-1.043.988.57 2.525 1.613 1.538"/>
            <path d="M136.475 44.021c8.544-4.901 16.657-10.45 25.56-14.787 1.305-.635.151-2.483-1.152-1.849-8.903 4.337-17.016 9.885-25.56 14.787-1.25.718-.106 2.571 1.152 1.85M147.695 28.679C140.837 19.022 133.08 9.982 126.222.326c-.543-.764-1.856-.044-1.308.727 6.858 9.657 14.616 18.697 21.473 28.353.543.765 1.856.044 1.308-.727"/>
            <path d="M125.174.02c-5.13 1.09 2.896 11.674 4.166 13.426 4.609 6.363 10.162 12.074 14.168 18.824.17.287.537.404.864.332.967-.213 1.762-.5 2.635-.929.874-.429.101-1.675-.772-1.246-2.22 1.089-2.286-.404-3.405-2.05a78.612 78.612 0 0 0-2.775-3.805c-1.83-2.374-3.764-4.676-5.649-7.01-1.101-1.365-11.572-15.568-8.825-16.15.96-.205.554-1.595-.407-1.392M119.643 5.632c5.176 10.552 14.563 18.6 19.836 29.101.416.83 1.725.106 1.31-.72-5.273-10.5-14.66-18.549-19.836-29.102-.408-.832-1.717-.109-1.31.72"/>
            <path d="M118.996 4.507c-2.852 6.28 3.253 13.473 7.043 18.112 2.724 3.333 5.557 6.584 8.344 9.867 1.157 1.363 3.439 5.106 5.736 3.43.756-.554.014-1.808-.753-1.248-1.397 1.02-10.788-11.268-11.954-12.685-3.33-4.05-9.646-11.202-7.127-16.747.382-.843-.903-1.58-1.289-.73M128.393-1.014a581.328 581.328 0 0 0 22.314 29.206c.59.723 1.913.008 1.315-.725A580.703 580.703 0 0 1 129.708-1.74c-.546-.762-1.866-.043-1.315.726"/>
            <path d="M129.376-.519c3.988-2.258 6.824 3.611 8.54 6.079l4.639 6.667 9.938 14.287c.534.768 1.83.046 1.292-.729L139.87 5.783c-2.314-3.327-5.963-10.543-11.25-7.55-.83.47-.077 1.72.755 1.248"/>
        </g>
    </g>
</svg>
