<?xml version="1.0" encoding="utf-8"?>
<!-- Generator: Adobe Illustrator 23.0.5, SVG Export Plug-In . SVG Version: 6.00 Build 0)  -->
<svg version="1.1" id="Layer_1" xmlns="http://www.w3.org/2000/svg" xmlns:xlink="http://www.w3.org/1999/xlink" x="0px" y="0px"
	 viewBox="0 0 345.22 105.15" style="enable-background:new 0 0 345.22 105.15;" xml:space="preserve">
<style type="text/css">
	.st0{fill:#FFFFFF;}
	.st1{fill:#F37342;}
	.st2{fill:#F47847;}
	.st3{fill:#F47948;}
	.st4{fill:#F69065;}
	.st5{fill:#FFFFFE;}
	.st6{fill:#FFFAF7;}
	.st7{fill:#FFFDFB;}
	.st8{fill:#FFF6F1;}
	.st9{fill:#FFFEFE;}
	.st10{fill:#FFFCFA;}
	.st11{fill:#FFF1E9;}
</style>
<g>
	<path class="st0" d="M172.65,105.07c-55.97,0-111.94-0.03-167.91,0.08c-3.51,0.01-4.77-0.41-4.75-4.45
		C0.21,68.39,0.18,36.07,0.03,3.75C0.01,0.48,0.95,0,3.93,0C116.37,0.08,228.8,0.08,341.24,0.01c2.81,0,4,0.22,3.98,3.67
		c-0.18,32.65-0.17,65.3-0.01,97.94c0.02,3.16-0.85,3.51-3.66,3.51C285.26,105.04,228.96,105.07,172.65,105.07z"/>
	<path class="st1" d="M211.04,57.1c-1.91-0.48-2.18-2.32-3.05-3.67c-3.67-5.65-10.27-7.76-16.59-5.34
		c-6.95,2.67-12.45,11-11.89,18.03c0.63,7.96,7.8,15.27,16.67,16.98c8.26,1.59,15.27-0.91,20.52-7.28
		c5.45-6.61,6.68-14.18,3.79-22.44c-2.83-8.08-9.2-13.28-14.82-19.13c-0.9-0.93-2.08-0.86-3.28-0.74
		c-11.2,1.11-21.6,3.95-29.19,13.11c-1.11,1.34-2.25,3.32-4.44,1.63c-2.45-1.9-0.62-3.48,0.61-4.99c7-8.65,16.57-12.42,27.17-14.19
		c1.3-0.22,2.62-0.35,4.39-0.58c-2.93-6.37-4.46-12.71-0.61-19.03c2.26-3.71,5.63-6.15,9.81-7.21c9.48-2.38,20.47,4.45,22.26,13.7
		c1.95,10.05-3.81,15.66-19.43,18.2c4.46,4.66,8.82,8.88,11.71,15.29c3.99-12.12,7.69-23.45,11.44-34.77
		c1.04-3.14,2.04-6.33,4.45-8.8c1.81-1.86,3.88-3.48,6.58-2.58c2.84,0.94,3.85,3.44,4.12,6.28c0.4,4.17-0.82,7.93-3.1,11.32
		c-1.75,2.62-3.77,5.05-5.78,7.71c1.32,1.59,3.99,2,4.83,4.35c0.51,3.07,1.27,6.1,1.04,9.25c0.04,2.62-2.09,4.99-0.8,8.08
		c3.38-1.41,3.69-4.74,4.63-7.44c1.58-4.5,3.82-8.47,7.61-11.4c6.71-5.21,13.96-2.58,15.92,5.69c0.22,0.91,0.42,1.82,0.74,3.18
		c1.88-3.71,4.03-6.64,6.91-8.92c6.07-4.8,12.94-2.92,15.69,4.23c0.32,0.84-0.17,2.33,1.25,2.33c1.4,0,1.62-1.36,1.96-2.48
		c0.53-1.74,1.2-3.44,1.72-5.19c0.46-1.54,1.28-3.22-1.59-3.42c-1.2-0.08-2.05-1.26-1.8-2.56c0.23-1.2,1.18-2.35,2.41-2.14
		c3.81,0.65,4.28-2.14,5.14-4.61c0.33-0.93,0.66-1.87,0.94-2.82c0.54-1.79,1.54-3.15,3.58-2.42c1.77,0.63,1.79,2.3,1.3,3.81
		c-0.9,2.76-2.66,5.15,1.71,7.23c1.83,0.87,0.29,3.84-2.37,3.64c-2.71-0.2-3.43,1.3-4.02,3.34c-1.52,5.26-3.57,10.39-4.04,15.9
		c-0.11,1.3-0.96,3.41,1.06,3.8c1.39,0.27,1.9-1.6,2.42-2.79c2.26-5.15,3.5-10.72,6.7-15.48c3.48-5.17,8.09-7.8,14.41-6.79
		c2.13,0.34,4.76,0.71,4.36,3.64c-0.42,3.12-2.79,1.84-4.69,1.45c-1.83-0.38-3.36,0.3-4.11,2.03c-0.84,1.93,0.36,3.14,1.86,4.09
		c3.22,2.04,6.23,4.29,7.87,8.07c2.11-1.71,2-4.09,3.05-5.89c0.82-1.42,1.97-1.79,3.36-1.21c1.23,0.51,1.42,1.58,1.27,2.89
		c-0.85,7.77-9.04,16.02-16.92,16.93c-6.34,0.74-8.82-0.84-12.11-7.71c-1.04,1.48-1.92,3.12-3.15,4.44c-2.98,3.18-7.3,3.06-9.2-0.72
		c-2.32-4.61-4.93-3.36-7.78-1.17c-7.31,5.62-9.56,5.5-16.63-0.77c-2.18-1.94-4.7-1.32-6.67,0.43c-4.85,4.31-9.75,6.45-15.43,1.47
		c-1.72-1.51-2.23,0.6-3.11,1.23c-2.04,1.47-4.04,2.19-6.47,0.94c-2.35-1.21-3.17-3.17-3.33-5.69c-0.21-3.23,0.86-6.22,1.49-9.29
		c0.51-2.49,0.3-4.81-2.32-5.89c-2.47-1.01-4.13,0.71-5.45,2.48c-0.98,1.32-2.01,2.77-2.42,4.32c-2.09,7.87-6.16,14.98-6.42,23.64
		c-0.4,12.93-12.01,23.15-25.18,24.01c-12.31,0.81-24.23-8.01-27.02-19.97c-2.17-9.34,4.68-21.27,14.53-25.29
		c8.81-3.6,18.94-0.43,23.51,7.53c1.03,1.79,3.17,3.87,0.36,6.03C212.35,57.66,211.71,57.66,211.04,57.1z"/>
	<path class="st1" d="M78.25,58.69c-5.71,5.64-11.09,9.26-17.89,10.76c-17.13,3.77-30.6-9.63-26.83-26.83
		c1-4.57,2.49-8.97,4.78-13.04c1.29-2.28,0.93-3.06-1.7-3.58c-11.28-2.25-21.82-1.26-31.06,6.31c-1.35,1.11-2.86,1.4-3.93-0.06
		c-1.27-1.74-0.16-2.86,1.37-4.03c10.8-8.28,22.92-10.08,35.81-6.96c3.44,0.83,4.97-0.22,6.96-2.65C52.97,9.75,61.37,2.64,73.5,1.86
		c3.02-0.19,5.97,0.2,8.77,1.49c10.61,4.88,12.01,17.24,2.6,24.14c-7.97,5.84-16.97,6.26-26.26,4.24c-3.57-0.78-7.12-1.68-10.6-2.8
		c-2.04-0.66-3.27-0.59-4.42,1.52c-2.74,5.03-4.81,10.27-5.39,15.96c-1.28,12.54,9.33,21.32,21.56,17.98
		c12.18-3.33,18.44-12.35,22.36-23.5c1.1-3.11,1.69-6.4,2.61-9.57c0.47-1.6,1.55-2.69,3.36-2.08c1.47,0.5,1.86,1.76,1.61,3.24
		c-3.29,19.67-7.92,38.9-20.7,54.93c-7.89,9.89-17.64,16.88-31.18,15.64c-7.08-0.65-12.71-4-15.61-10.78
		c-2.55-5.97-0.89-11.39,3.01-16.25c1.03-1.29,2.23-2.35,3.88-2.99c4.94-1.91,9.6-4,15.19-1.48c3.64,1.64,4.65,4.91,6.54,7.66
		c0.8,1.17,0.23,2.64-1.21,3.33c-1.58,0.75-2.54-0.28-3.27-1.44c-2.87-4.57-9.97-8.25-13.46-5.76c-3.29,2.35-6.5,5.85-6.68,10.61
		c-0.16,4.38,1.83,7.76,5.57,9.92c4.56,2.64,9.49,2.89,14.5,1.56c9.22-2.44,15.51-8.76,20.94-16.1
		C72.02,74.87,75.23,67.61,78.25,58.69z"/>
	<path class="st1" d="M132.72,51.29c4.38-5.76,5.38-11.56,7.36-16.88c2.6-7,4.69-14.18,7.06-21.26c0.95-2.84,2.1-5.62,4.32-7.76
		c3.97-3.83,8.3-2.82,9.88,2.48c1.7,5.69-1.03,10.36-3.99,14.85c-1.26,1.91-2.83,3.63-4.46,5.69c5.73,1.87,8.61,5.62,8.23,12.48
		c1.55-2.39,2.38-5.33,5.02-3.71c2.5,1.54,0.79,3.9,0.08,5.81c-1.39,3.77-3.6,6.84-8.02,7.18c-1.95,0.15-2.77,1.67-4.06,2.63
		c-3.85,2.87-7.83,4.42-12.35,1.35c-0.83-0.57-1.63-1.84-2.75-0.04c-1.96,3.15-5.4,2.13-7.51,1.16c-2.84-1.31-4.97-1.74-7.48,0.15
		c-0.49,0.37-1.29,0.59-1.89,0.51c-4.88-0.64-9.33-3.42-14.83-0.52c-2.3,1.21-4.64-2.92-5.09-6.15c-0.48-3.39,0.22-6.71,1.17-9.84
		c0.93-3.06,0.54-3.92-2.78-4.93c-3.06-0.93-3.86-0.63-4.63,2.24c-0.54,2.04-0.84,5.41-4.19,4.2c-3.42-1.24-1.01-3.99-0.52-5.99
		c0.67-2.72,1.82-5.33,2.67-8.01c0.42-1.32,0.84-2.61,2.44-2.76c1.61-0.15,2.33,0.94,2.84,2.28c1.33,3.51,4,4.12,7.3,3.3
		c3.7-0.91,4.59,0.8,3.7,4.03c-1.19,4.32-2.64,8.59-3.03,13.09c-0.09,1.05-0.59,2.63,0.92,2.98c1.43,0.34,1.86-1.17,2.26-2.19
		c1.96-5.09,3.9-10.19,5.7-15.34c0.7-2.01,1.33-4.15,3.97-3.16c2.41,0.9,1.36,3.12,0.9,4.77c-0.97,3.51-2.11,6.98-3.28,10.44
		c-0.83,2.45-0.94,4.6,1.77,5.93c3.01,1.49,4.71-0.38,6.15-2.57c1.97-3.01,1.61-6.78,2.98-9.93c1.33-3.05,0.53-9.4,4.82-8.31
		c5,1.26,0.45,6.09,0.14,9.29C133.17,42.48,131.47,46.04,132.72,51.29z"/>
	<path class="st2" d="M162.12,62.74c-0.14-3.71,0.99-7.18,2.12-10.63c0.53-1.6,1.81-2.44,3.51-1.86c1.55,0.53,1.73,1.98,1.41,3.33
		c-1.31,5.6-2.9,11.14-1.53,17.01c0.25,1.09-0.67,2.22-2.04,2.41c-1.66,0.24-2.98-1.02-2.77-2.16
		C163.37,68,161.58,65.49,162.12,62.74z"/>
	<path class="st3" d="M211.04,57.1c0.64-0.03,1.28-0.05,1.93-0.08c3.16,2.96,2.64,6.36,1.16,9.87c-1.71,4.06-4.58,6.82-8.94,7.79
		c-1.41,0.31-2.67-0.2-3.1-1.71c-0.35-1.2-0.09-2.49,1.21-2.88C209.89,68.1,209.78,62.21,211.04,57.1z"/>
	<path class="st4" d="M248.24,42.21c-1.08-3-2.35-5.98-1.04-9.25C249.54,35.82,249.74,38.92,248.24,42.21z"/>
	<path class="st5" d="M213.47,28.45c-6.65,0.03-10.33-3.85-10.25-10.82c0.07-6.01,4.75-10.61,10.85-10.66
		c6.84-0.06,13.04,5.41,13.11,11.57C227.25,25.22,222.84,28.41,213.47,28.45z"/>
	<path class="st6" d="M257.3,45.69c1.02-4.47,2.4-8.5,6.45-10.9c2.06-1.22,4.17-1.37,5.78,0.63c1.71,2.12-0.64,2.72-1.71,3.73
		c-1.88,1.78-2.36,4.04-1.6,6.35c0.65,1.99,0,3.13-1.59,4.06c-1.61,0.94-3.25,1.71-5.08,0.53C257.87,49.02,257.17,47.45,257.3,45.69
		z"/>
	<path class="st7" d="M281.11,45.03c0.67-3.8,2.27-7.87,6.47-10.36c1.92-1.14,3.88-1.1,5.33,0.76c1.61,2.06-0.51,2.78-1.62,3.81
		c-1.85,1.71-2.94,3.85-1.82,6.2c0.99,2.08,0.09,3.1-1.35,4.09c-1.4,0.95-2.87,1.57-4.62,0.72
		C281.58,49.32,280.95,47.78,281.11,45.03z"/>
	<path class="st6" d="M315.94,42.58c1.06-2.79,1.6-5.23,3.73-7.73c1.38,3.85,4.58,5.52,7.46,7.57c2.1,1.5,3.33,3.37,1.79,5.93
		c-1.48,2.47-3.69,3.99-6.62,3.48c-2.28-0.4-3.52-2.06-2.62-4.42C320.99,43.92,320.41,41.91,315.94,42.58z"/>
	<path class="st8" d="M245.9,7.83c0.64,7.32-2.46,11.54-6.52,15.35C240.78,18.22,241.16,12.8,245.9,7.83z"/>
	<path class="st9" d="M48.36,23.53c5.65-7.59,12.16-13.54,21.17-16.09c3.52-0.99,7.23-1.09,10.73,0.61
		c7.16,3.49,7.88,10.77,1.44,15.44c-4.48,3.25-9.72,4.42-15.09,4.13C60.5,27.3,54.54,25.9,48.36,23.53z"/>
	<path class="st10" d="M142.92,45.71c-0.04-4.29,3.49-10.08,7.01-11.35c2.03-0.73,4-0.63,5.27,1.43c1.44,2.34-1.14,2.27-2.05,3.03
		c-2.03,1.71-2.89,3.91-2.01,6.23c1.53,4.07-1.03,5.3-3.91,5.52C144.32,50.81,142.76,48.76,142.92,45.71z"/>
	<path class="st11" d="M149.03,24.19c1.23-4.98,2.52-9.21,4.44-13.22c0.46-0.95,1-2.47,2.33-2.12c1.4,0.37,1.09,1.86,0.86,3
		C155.72,16.65,153.52,20.7,149.03,24.19z"/>
</g>
</svg>
