<svg id="Dish_from_restraurant" data-name="Dish from restraurant" xmlns="http://www.w3.org/2000/svg" xmlns:xlink="http://www.w3.org/1999/xlink" width="51" height="51" viewBox="0 0 51 51">
  <defs>
    <linearGradient id="linear-gradient" y1="0.5" x2="1" y2="0.5" gradientUnits="objectBoundingBox">
      <stop offset="0" stop-color="#dd795a"/>
      <stop offset="0.536" stop-color="#dc612e"/>
      <stop offset="0.796" stop-color="#e33f3e"/>
      <stop offset="1" stop-color="#dc2f2e"/>
    </linearGradient>
  </defs>
  <path id="Shape" d="M39.047,51h-7.57a2,2,0,0,1-1.993-1.993V33.17H21.515V49.008A1.994,1.994,0,0,1,19.524,51H11.953a7.978,7.978,0,0,1-7.969-7.97V24.692A6.684,6.684,0,0,1,0,18.587V16a1.991,1.991,0,0,1,.16-.782L4.587,4.841A7.956,7.956,0,0,1,11.916,0H39.083a7.957,7.957,0,0,1,7.33,4.841L50.84,15.215A1.991,1.991,0,0,1,51,16v2.59a6.684,6.684,0,0,1-3.984,6.106v6.385a1.993,1.993,0,1,1-3.985,0V25.133a6.651,6.651,0,0,1-3.387-1.8,6.66,6.66,0,0,1-9.392-.029,6.759,6.759,0,0,1-9.5,0,6.661,6.661,0,0,1-9.393.029,6.658,6.658,0,0,1-3.387,1.8V39.047h9.563V31.178a2,2,0,0,1,1.993-1.993H31.477a1.994,1.994,0,0,1,1.992,1.993v7.869H45.023a2,2,0,0,1,1.993,1.993v1.992A7.979,7.979,0,0,1,39.047,51Zm-5.578-7.97v3.985h5.578a3.989,3.989,0,0,0,3.984-3.985Zm-25.5,0a3.989,3.989,0,0,0,3.984,3.985h5.578V43.031Zm33.668-25.1v.657a2.69,2.69,0,0,0,5.379,0V17.93Zm-9.364,0v.657a2.69,2.69,0,0,0,5.379,0V17.93Zm-9.563,0v.557a2.789,2.789,0,1,0,5.578,0V17.93Zm-9.363,0v.657a2.689,2.689,0,0,0,5.378,0V17.93Zm-9.364,0v.657a2.69,2.69,0,0,0,5.379,0V17.93ZM11.916,3.984A3.981,3.981,0,0,0,8.251,6.405l-3.218,7.54H45.967l-3.218-7.54a3.979,3.979,0,0,0-3.665-2.421Z" transform="translate(0)" fill="url(#linear-gradient)"/>
</svg>
