<svg xmlns="http://www.w3.org/2000/svg" width="18.385" height="23.002" viewBox="0 0 18.385 23.002">
  <g id="img_flash_off" transform="translate(-284.54 -483.499)">
    <path id="Subtraction_1" data-name="Subtraction 1" d="M6685.4-11322.5a.379.379,0,0,1-.095-.014.348.348,0,0,1-.251-.367l.979-10.469h-3.7a.823.823,0,0,1-.664-.336.829.829,0,0,1-.12-.737l1.011-3.151,7.1,7.1-3.954,7.782A.345.345,0,0,1,6685.4-11322.5Zm6.168-11.724h0l-2.829-2.829h2.93a.817.817,0,0,1,.7.393.832.832,0,0,1,.031.8l-.831,1.635Zm-3.477-3.477h0l-4.154-4.154.665-2.074a.823.823,0,0,1,.783-.572h3.761a.821.821,0,0,1,.664.339.818.818,0,0,1,.12.734l-1.836,5.727Z" transform="translate(-6392.51 11828.5)" fill="#fff" stroke="rgba(0,0,0,0)" stroke-width="1"/>
    <rect id="Rectangle_2" data-name="Rectangle 2" width="2" height="24" rx="1" transform="translate(284.54 486.318) rotate(-45)" fill="#fff"/>
  </g>
</svg>
