<svg id="img_grid_n" xmlns="http://www.w3.org/2000/svg" width="15" height="15" viewBox="0 0 15 15">
  <path id="Shape" d="M5.18,6.914H1.734A1.736,1.736,0,0,1,0,5.18V1.734A1.736,1.736,0,0,1,1.734,0H5.18A1.736,1.736,0,0,1,6.914,1.734V5.18A1.736,1.736,0,0,1,5.18,6.914ZM1.734,1.172a.563.563,0,0,0-.562.563V5.18a.563.563,0,0,0,.563.563H5.18a.563.563,0,0,0,.563-.562V1.734a.563.563,0,0,0-.562-.562Z" fill="#a2a2a2"/>
  <path id="Shape-2" data-name="Shape" d="M5.156,6.914h-3.4A1.76,1.76,0,0,1,0,5.156v-3.4A1.76,1.76,0,0,1,1.758,0h3.4A1.76,1.76,0,0,1,6.914,1.758v3.4A1.76,1.76,0,0,1,5.156,6.914Zm-3.4-5.742a.587.587,0,0,0-.586.586v3.4a.587.587,0,0,0,.586.586h3.4a.587.587,0,0,0,.586-.586v-3.4a.587.587,0,0,0-.586-.586Z" transform="translate(8.086)" fill="#a2a2a2"/>
  <path id="Shape-3" data-name="Shape" d="M5.18,6.914H1.734A1.736,1.736,0,0,1,0,5.18V1.734A1.736,1.736,0,0,1,1.734,0H5.18A1.736,1.736,0,0,1,6.914,1.734V5.18A1.736,1.736,0,0,1,5.18,6.914ZM1.734,1.172a.563.563,0,0,0-.562.563V5.18a.563.563,0,0,0,.563.563H5.18a.563.563,0,0,0,.563-.562V1.734a.563.563,0,0,0-.562-.562Z" transform="translate(0 8.086)" fill="#a2a2a2"/>
  <path id="Shape-4" data-name="Shape" d="M5.156,6.914h-3.4A1.76,1.76,0,0,1,0,5.156v-3.4A1.76,1.76,0,0,1,1.758,0h3.4A1.76,1.76,0,0,1,6.914,1.758v3.4A1.76,1.76,0,0,1,5.156,6.914Zm-3.4-5.742a.587.587,0,0,0-.586.586v3.4a.587.587,0,0,0,.586.586h3.4a.587.587,0,0,0,.586-.586v-3.4a.587.587,0,0,0-.586-.586Z" transform="translate(8.086 8.086)" fill="#a2a2a2"/>
</svg>
