<svg xmlns="http://www.w3.org/2000/svg" xmlns:xlink="http://www.w3.org/1999/xlink" width="50.9" height="50.899" viewBox="0 0 50.9 50.899">
  <defs>
    <linearGradient id="linear-gradient" y1="0.5" x2="1" y2="0.5" gradientUnits="objectBoundingBox">
      <stop offset="0" stop-color="#dd795a"/>
      <stop offset="0.536" stop-color="#dc612e"/>
      <stop offset="0.796" stop-color="#e33f3e"/>
      <stop offset="1" stop-color="#dc2f2e"/>
    </linearGradient>
  </defs>
  <g id="Home_based_Bussiness" data-name="Home based Bussiness" transform="translate(-0.099 -0.05)">
    <path id="Shape" d="M39.29,50.9a1.988,1.988,0,0,1-1.451-3.348L40.417,44.8A24.355,24.355,0,0,0,46.74,31.225a1.988,1.988,0,0,1,3.946.5A28.308,28.308,0,0,1,43.332,47.5l-.008.009L40.741,50.27A2,2,0,0,1,39.29,50.9Zm-14.163,0a1.988,1.988,0,0,1-1.352-3.448L25.3,46.043a4.586,4.586,0,0,0,.252-6.482L15.386,28.675A1.992,1.992,0,0,0,14,28.032l-.076,0a1.985,1.985,0,0,0-1.979,1.825v.335a1.972,1.972,0,0,0,.515,1.175L19.248,38.6a1.988,1.988,0,0,1-2.9,2.722l-6.8-7.241,0-.005-.005-.005a5.89,5.89,0,0,1-1.564-3.58v-.013l0-.013a.175.175,0,0,0,0-.022,6.007,6.007,0,0,1-.008-.7L7.959,17.779c0-.154,0-.32,0-.521l0-6.261c0-.02,0-.04,0-.059A1.85,1.85,0,0,0,7.4,9.574a2.176,2.176,0,0,0-1.47-.634H5.872A1.882,1.882,0,0,0,3.988,10.8l0,16.772v.044A24.328,24.328,0,0,0,10.391,44.8l2.579,2.753a1.989,1.989,0,1,1-2.9,2.719L7.485,47.514,7.477,47.5A28.29,28.29,0,0,1,.007,27.546l0-16.784c0-.01,0-.02,0-.029V10.7A5.929,5.929,0,0,1,1.773,6.612,5.813,5.813,0,0,1,5.867,4.962l.183,0a6.106,6.106,0,0,1,4.917,2.716A17.512,17.512,0,0,1,37.916,5.2,17.7,17.7,0,0,1,39.932,7.66a5.928,5.928,0,0,1,4.828-2.7l.174,0a5.967,5.967,0,0,1,4.151,1.669A5.856,5.856,0,0,1,50.9,10.7c0,.019,0,.039,0,.059l0,10.805a1.989,1.989,0,0,1-3.977,0l0-10.772a1.9,1.9,0,0,0-.61-1.328,2.014,2.014,0,0,0-1.376-.529h-.058a1.981,1.981,0,0,0-1.388.607,1.916,1.916,0,0,0-.526,1.391c0,.02,0,.04,0,.059l-.01,18.652A5.915,5.915,0,0,1,41.4,34.056L37.081,38.9a1.989,1.989,0,0,1-2.969-2.647L38.439,31.4l.025-.027a1.964,1.964,0,0,0,.512-1.121v-.465a1.987,1.987,0,0,0-3.432-1.116l-7.3,7.95.219.235A8.562,8.562,0,0,1,28,48.961L26.476,50.37A1.98,1.98,0,0,1,25.126,50.9ZM13.939,24.054c.081,0,.15,0,.212,0a5.925,5.925,0,0,1,4.147,1.91l4.459,4.775a13.672,13.672,0,0,0,5.5-.023l4.36-4.747a5.994,5.994,0,0,1,4.388-1.914c.088,0,.178,0,.265.005A13.584,13.584,0,0,0,35.084,8a13.538,13.538,0,0,0-19.123-.135,13.561,13.561,0,0,0-2.328,16.2C13.733,24.056,13.834,24.054,13.939,24.054Zm11.317,3.38a1.991,1.991,0,0,1-1.989-1.989v-.2H22.073a1.989,1.989,0,0,1,0-3.977h4.037a.608.608,0,0,0,.636-.607v-.8a.6.6,0,0,0-.636-.6H24.788a4.64,4.64,0,0,1-4.606-4.662v-.084a4.6,4.6,0,0,1,3.085-4.332V9.636a1.989,1.989,0,0,1,3.977,0v.3a1.989,1.989,0,1,1,0,3.978H24.788a.607.607,0,0,0-.629.612v.084a.676.676,0,0,0,.629.685h1.323a4.6,4.6,0,0,1,4.613,4.574v.8a4.585,4.585,0,0,1-3.48,4.443v.339A1.991,1.991,0,0,1,25.256,27.435Z" transform="translate(0.099 0.05)" fill="url(#linear-gradient)"/>
  </g>
</svg>
