<?xml version="1.0" encoding="UTF-8"?>
<svg width="20px" height="18px" viewBox="0 0 20 18" version="1.1" xmlns="http://www.w3.org/2000/svg" xmlns:xlink="http://www.w3.org/1999/xlink">
    <!-- Generator: sketchtool 53.2 (72643) - https://sketchapp.com -->
    <title>C26A4BFF-7E26-4F80-9A8D-B557DD7C9FD8</title>
    <desc>Created with sketchtool.</desc>
    <g id="Main-App" stroke="none" stroke-width="1" fill="none" fill-rule="evenodd">
        <g id="01---Homepage" transform="translate(-20.000000, -2219.000000)" fill="#DC2F2E" fill-rule="nonzero" stroke="#DC2F2E" stroke-width="0.4">
            <g id="Group" transform="translate(0.000000, 2203.000000)">
                <g id="001-web-page-home" transform="translate(21.000000, 17.000000)">
                    <path d="M0.618738629,9.51225944 L2.07775472,9.51225944 L2.07775472,15.348287 C2.07775472,15.6921951 2.35913403,15.9735744 2.70304208,15.9735744 L6.97585127,15.9735744 C7.31975932,15.9735744 7.60113863,15.6921951 7.60113863,15.348287 L7.60113863,11.0754778 L10.2064904,11.0754778 L10.2064904,15.348287 C10.2064904,15.6921951 10.4878697,15.9735744 10.8317777,15.9735744 L14.8961455,15.9735744 C15.2400536,15.9735744 15.5214329,15.6921951 15.5214329,15.348287 L15.5214329,9.51225944 L17.2930927,9.51225944 C17.5432076,9.51225944 17.7724674,9.3559376 17.8662605,9.12667783 C17.9600536,8.89741806 17.907934,8.62644795 17.7307938,8.44927093 L9.581203,0.185068635 C9.34149725,-0.0546371123 8.94550644,-0.0650463077 8.7058007,0.174659439 L0.191483456,8.43886174 C0.0038972494,8.61603875 -0.0482222908,8.88697208 0.0455708126,9.12667783 C0.139363916,9.3663468 0.368623686,9.51225944 0.618738629,9.51225944 Z M9.12264667,1.50858128 L15.7923662,8.26168473 L14.8961087,8.26168473 C14.5522007,8.26168473 14.2708214,8.54306404 14.2708214,8.88697208 L14.2708214,14.7229997 L11.4570283,14.7229997 L11.4570283,10.4501905 C11.4570283,10.1062824 11.175649,9.82490312 10.8317409,9.82490312 L6.97585127,9.82490312 C6.63194323,9.82490312 6.35056392,10.1062824 6.35056392,10.4501905 L6.35056392,14.7229997 L3.32832943,14.7229997 L3.32832943,8.88697208 C3.32832943,8.54306404 3.04695012,8.26168473 2.70304208,8.26168473 L2.16113863,8.26168473 L9.12264667,1.50858128 Z" id="Shape"></path>
                </g>
            </g>
        </g>
    </g>
</svg>