<?xml version="1.0" encoding="UTF-8"?>
<svg width="20px" height="20px" viewBox="0 0 20 20" version="1.1" xmlns="http://www.w3.org/2000/svg" xmlns:xlink="http://www.w3.org/1999/xlink">
    <!-- Generator: sketchtool 53.2 (72643) - https://sketchapp.com -->
    <title>11C8A831-F088-452C-8A91-565857DC73A1</title>
    <desc>Created with sketchtool.</desc>
    <g id="Main-App" stroke="none" stroke-width="1" fill="none" fill-rule="evenodd">
        <g id="01---Homepage" transform="translate(-273.000000, -41.000000)" fill="#dc2f2e" fill-rule="nonzero" stroke="#dc2f2e" stroke-width="0.4">
            <g id="magnifying-glass-2" transform="translate(274.000000, 42.000000)">
                <path d="M17.8423503,17.0820399 L13.468071,12.7077605 C14.6414634,11.3587583 15.3518847,9.59866962 15.3518847,7.67494457 C15.3518847,3.44035477 11.9075388,0 7.67694013,0 C3.44235033,0 0.00199556541,3.4443459 0.00199556541,7.67494457 C0.00199556541,11.9055432 3.44634146,15.3498891 7.67694013,15.3498891 C9.60066519,15.3498891 11.3607539,14.6394678 12.7097561,13.4660754 L17.0840355,17.8403548 C17.1878049,17.9441242 17.3274945,18 17.4631929,18 C17.5988914,18 17.7385809,17.9481153 17.8423503,17.8403548 C18.0498891,17.632816 18.0498891,17.2895787 17.8423503,17.0820399 Z M1.07560976,7.67494457 C1.07560976,4.03503326 4.03702882,1.07760532 7.672949,1.07760532 C11.3128603,1.07760532 14.2702882,4.03902439 14.2702882,7.67494457 C14.2702882,11.3108647 11.3128603,14.2762749 7.672949,14.2762749 C4.03702882,14.2762749 1.07560976,11.3148559 1.07560976,7.67494457 Z" id="Shape"></path>
            </g>
        </g>
    </g>
</svg>