<svg xmlns="http://www.w3.org/2000/svg" width="18.335" height="16.373" viewBox="0 0 18.335 16.373">
  <g id="img_home_btb_n" transform="translate(0.211 0.2)">
    <path id="Shape" d="M14.9,15.973H10.832a.625.625,0,0,1-.625-.625V11.075H7.6v4.273a.626.626,0,0,1-.626.625H2.7a.625.625,0,0,1-.625-.625V9.512H.618a.608.608,0,0,1-.572-.385.623.623,0,0,1,.146-.688L8.706.175A.6.6,0,0,1,9.133,0a.638.638,0,0,1,.448.185l8.149,8.264a.623.623,0,0,1-.437,1.063H15.521v5.837A.626.626,0,0,1,14.9,15.973ZM6.976,9.825h3.856a.626.626,0,0,1,.625.625v4.273H14.27V8.887a.626.626,0,0,1,.625-.625h.9L9.122,1.508,2.161,8.262H2.7a.626.626,0,0,1,.625.625v5.837H6.35V10.45A.626.626,0,0,1,6.976,9.825Z" fill="#363636" stroke="#363636" stroke-miterlimit="10" stroke-width="0.4"/>
  </g>
</svg>
