<svg xmlns="http://www.w3.org/2000/svg" xmlns:xlink="http://www.w3.org/1999/xlink" width="49.921" height="50.901" viewBox="0 0 49.921 50.901">
  <defs>
    <linearGradient id="linear-gradient" y1="0.5" x2="1" y2="0.5" gradientUnits="objectBoundingBox">
      <stop offset="0" stop-color="#dd795a"/>
      <stop offset="0.536" stop-color="#dc612e"/>
      <stop offset="0.796" stop-color="#e33f3e"/>
      <stop offset="1" stop-color="#dc2f2e"/>
    </linearGradient>
  </defs>
  <g id="Home_based_Bussiness" data-name="Home based Bussiness" transform="translate(-0.04)">
    <path id="Shape" d="M21.181,50.9H14.458a2,2,0,0,1-1.975-1.624L10,36.088A8.662,8.662,0,0,1,6.89,33.95a9.3,9.3,0,0,1-2.273-6.52A16.054,16.054,0,0,1,9.4,16.257l-.079.005c-.227.011-.829.041-1.48.041-2.055,0-4.638-.268-6.389-2.358A5.841,5.841,0,0,1,.02,9.694,5.5,5.5,0,0,1,2.038,5.933a5.553,5.553,0,0,1,3.553-1.38,5.492,5.492,0,0,1,2-3.226A5.618,5.618,0,0,1,11.177,0c.168,0,.331.007.483.022a5.9,5.9,0,0,1,3.979,2.173c2,2.387,1.5,5.415.882,8.067,4.2-3.127,6.709-5.2,6.162-7.622A1.975,1.975,0,0,1,24.265.027l.018,0c.067-.01.112-.015.154-.017h.032L24.5,0h.051l.026,0h.095A21.172,21.172,0,0,1,32.99,1.877a30.27,30.27,0,0,1,7.542,4.77c4.78,4.073,8.183,9.251,9.337,14.206a1.958,1.958,0,0,1-.249,1.493,1.989,1.989,0,0,1-1.256.891,1.922,1.922,0,0,1-.454.051,1.994,1.994,0,0,1-1.955-1.542,16.058,16.058,0,0,0-.8-2.474,9.136,9.136,0,0,1-2.438,2.043,15.862,15.862,0,0,1-6.057,1.8,84.2,84.2,0,0,1-9.484.495,66.672,66.672,0,0,0-10.623.7,11.731,11.731,0,0,0-5.283,1.98A4.631,4.631,0,0,0,9.3,30.272a1.6,1.6,0,0,1,.015.261,4.255,4.255,0,0,0,.566.766c1.034,1.1,2.724,1.677,5.022,1.707H38.325c3.115-.062,5.281-1.2,6.622-3.478a2.019,2.019,0,0,1,2.746-.716,1.976,1.976,0,0,1,.724,2.719,10.727,10.727,0,0,1-3.136,3.41,2.179,2.179,0,0,1-.033.417l-2.61,13.918A2,2,0,0,1,40.662,50.9H21.181Zm16.3-13.919L36.46,46.924h2.533l1.865-9.941H38.052l-.031,0h-.535Zm-7.868,0v9.941h2.805l1.026-9.941H29.618Zm-7.819,0,1.173,9.941H25.6V36.983Zm-7.545,0,1.872,9.941h2.8l-1.172-9.941H15.164l-.031,0H15.1l-.336,0Zm23.5-27.457a8.541,8.541,0,0,1-4.267,2.746,20.591,20.591,0,0,1-5.339.662c-.271.009-.526.017-.786.028-1.678.068-3.362.211-5.373.4a16.72,16.72,0,0,0-3.926.723c-3.388,2.527-6.566,5.067-8.225,8.36A17.571,17.571,0,0,1,15.85,20.4a70.669,70.669,0,0,1,11.266-.765h.014a81.088,81.088,0,0,0,9.012-.463,12.243,12.243,0,0,0,4.541-1.284,4.379,4.379,0,0,0,2.182-2.768,28.765,28.765,0,0,0-4.953-5.456L37.837,9.6l-.043-.036Zm-32.1-1a1.643,1.643,0,0,0-1.03.457,1.551,1.551,0,0,0-.6,1.048,1.911,1.911,0,0,0,.524,1.378c.534.637,1.543.922,3.272.922.582,0,1.2-.033,1.805-.064l.04,0,.034,0,.036,0,.032,0,.031,0,.028,0,.027,0,.026,0h.008l.026,0,.03,0,.035,0c.4-.024,1.244-.074,1.993-.076.131-.709.308-1.429.437-1.955l.005-.022,0-.011.005-.023.005-.023c.515-2.113,1.047-4.3.125-5.4a1.906,1.906,0,0,0-1.25-.752c-.039,0-.08-.005-.121-.005a1.589,1.589,0,0,0-1.011.4,1.364,1.364,0,0,0-.644,1.353,2.136,2.136,0,0,0,.254.708A1.994,1.994,0,0,1,9.415,9.16a2.055,2.055,0,0,1-1.269.446,1.942,1.942,0,0,1-1.439-.628,2.064,2.064,0,0,0-.737-.408A1.079,1.079,0,0,0,5.648,8.523ZM26.74,4.148a8.357,8.357,0,0,1-2.105,4.394c-.21.246-.4.457-.58.644,1.307-.1,2.3-.165,3.14-.2.267-.011.535-.02.8-.029h.009a17.4,17.4,0,0,0,4.314-.494,4.792,4.792,0,0,0,2.184-1.3A21.11,21.11,0,0,0,26.74,4.148Zm6.493,25.577a1.989,1.989,0,1,1,2.008-1.988A2,2,0,0,1,33.233,29.725Zm7.43-.3a1.989,1.989,0,1,1,2.008-1.989A2,2,0,0,1,40.662,29.427ZM35.943,17.5a1.988,1.988,0,1,1,2.008-1.988A2,2,0,0,1,35.943,17.5Z" transform="translate(0.039 0)" fill="url(#linear-gradient)"/>
  </g>
</svg>
