<svg xmlns="http://www.w3.org/2000/svg" width="23.065" height="23.065" viewBox="0 0 23.065 23.065">
  <g id="Group_14" data-name="Group 14" transform="translate(-411 -289.276)">
    <path id="Path_2" data-name="Path 2" d="M422.532,296.617a4.192,4.192,0,1,0,4.192,4.192,4.2,4.2,0,0,0-4.192-4.192Zm9.331,3.142a9.371,9.371,0,0,0-8.282-8.282v-2.2h-2.1v2.2a9.175,9.175,0,0,0-8.281,8.282H411v2.1h2.2a9.361,9.361,0,0,0,8.281,8.281v2.2h2.1v-2.2a9.371,9.371,0,0,0,8.282-8.281h2.2v-2.1Zm-9.331,8.384a7.337,7.337,0,1,1,7.334-7.334,7.29,7.29,0,0,1-7.334,7.334Zm0,0" fill="#fff"/>
  </g>
</svg>
