<svg xmlns="http://www.w3.org/2000/svg" width="14.914" height="15" viewBox="0 0 14.914 15">
  <g id="img_list_s" transform="translate(-0.086)">
    <path id="Shape" d="M13.156,6.914H1.758A1.76,1.76,0,0,1,0,5.156v-3.4A1.76,1.76,0,0,1,1.758,0h11.4a1.76,1.76,0,0,1,1.758,1.758v3.4A1.76,1.76,0,0,1,13.156,6.914ZM1.758,1.172a.587.587,0,0,0-.586.586v3.4a.587.587,0,0,0,.586.586h11.4a.587.587,0,0,0,.586-.586v-3.4a.587.587,0,0,0-.586-.586Z" transform="translate(0.086)" fill="#dc2f2e"/>
    <path id="Shape-2" data-name="Shape" d="M13.156,6.914H1.758A1.76,1.76,0,0,1,0,5.156v-3.4A1.76,1.76,0,0,1,1.758,0h11.4a1.76,1.76,0,0,1,1.758,1.758v3.4A1.76,1.76,0,0,1,13.156,6.914ZM1.758,1.172a.587.587,0,0,0-.586.586v3.4a.587.587,0,0,0,.586.586h11.4a.587.587,0,0,0,.586-.586v-3.4a.587.587,0,0,0-.586-.586Z" transform="translate(0.086 8.086)" fill="#dc2f2e"/>
  </g>
</svg>
