<svg xmlns="http://www.w3.org/2000/svg" width="15.8" height="15.798" viewBox="0 0 15.8 15.798">
  <g id="img_notification_btb_s" transform="translate(0.4 0.399)">
    <path id="Shape" d="M14.394,11.553H.606a.606.606,0,0,1,0-1.212A1.464,1.464,0,0,0,2.068,8.878V5.431a5.432,5.432,0,0,1,10.864,0V8.878a1.464,1.464,0,0,0,1.462,1.462.606.606,0,1,1,0,1.212ZM7.5,1.211a4.224,4.224,0,0,0-4.219,4.22V8.878a2.662,2.662,0,0,1-.437,1.462h9.312a2.656,2.656,0,0,1-.437-1.462V5.431A4.225,4.225,0,0,0,7.5,1.211Z" transform="translate(0 0.001)" fill="#dc2f2e" stroke="#dc2f2e" stroke-miterlimit="10" stroke-width="0.8"/>
    <path id="Path" d="M3.3.082A.606.606,0,0,0,2.467.3.774.774,0,0,1,1.411.583.774.774,0,0,1,1.13.3.606.606,0,1,0,.082.91,1.988,1.988,0,0,0,.8,1.631,1.972,1.972,0,0,0,1.8,1.9,1.986,1.986,0,0,0,3.515.91.606.606,0,0,0,3.3.082Z" transform="translate(5.701 13.1)" fill="#dc2f2e" stroke="#dc2f2e" stroke-miterlimit="10" stroke-width="0.8"/>
  </g>
</svg>
