<svg id="ic_price_on" xmlns="http://www.w3.org/2000/svg" width="8.74" height="12.55" viewBox="0 0 8.74 12.55">
  <path id="Path_1" data-name="Path 1" d="M6.7,3.38h.96a.451.451,0,0,0,.48-.48V2.8a3.369,3.369,0,0,0-6.69.58A4.535,4.535,0,0,0,1.6,4.49c.05.19.1.34.14.53.05.14-.1.29-.24.29H.48A.451.451,0,0,0,0,5.79v.96a.451.451,0,0,0,.48.48H2.07c.1,0,.24.1.24.19a6.5,6.5,0,0,1,.1.77c0,1.01-1.16,1.93-2.32,2.7a.565.565,0,0,0-.09.2.184.184,0,0,0,.05.15l.82,1.21a.353.353,0,0,0,.19.1.155.155,0,0,0,.14-.05,4.843,4.843,0,0,1,2.7-.43,4.861,4.861,0,0,1,1.74.29,4.021,4.021,0,0,0,1.16.19,3.552,3.552,0,0,0,1.69-.44l.1-.05a.255.255,0,0,0,.15-.19c0-.05,0-.1-.05-.1l-.67-1.3a.285.285,0,0,0-.34-.1l-.14.1a1.194,1.194,0,0,1-.77.19,2.428,2.428,0,0,1-.63-.14,7.621,7.621,0,0,0-1.98-.34c-.19,0-.29-.14-.19-.34a3.646,3.646,0,0,0,.37-1.59,3.4,3.4,0,0,0-.05-.68.276.276,0,0,1,.24-.29h2.7a.451.451,0,0,0,.48-.48V5.84a.451.451,0,0,0-.48-.48H4c-.1,0-.19-.1-.24-.19-.1-.43-.24-.87-.34-1.21a1.737,1.737,0,0,1-.05-.53,1.452,1.452,0,0,1,2.85-.39.553.553,0,0,0,.48.34Z" fill="#dc2f2e"/>
</svg>
