<svg xmlns="http://www.w3.org/2000/svg" width="16.01" height="15.142" viewBox="0 0 16.01 15.142">
  <g id="ic_restraurant" transform="translate(-43.203 -260.056)">
    <path id="Path_6" data-name="Path 6" d="M53.993,264.4a.284.284,0,0,0,.4,0l2.938-2.938a.284.284,0,0,0-.4-.4L53.993,264A.285.285,0,0,0,53.993,264.4Z" fill="#0d1c57" stroke="#0d1c57" stroke-width="0.2"/>
    <path id="Path_7" data-name="Path 7" d="M54.792,265.189a.284.284,0,0,0,.4,0l2.938-2.938a.283.283,0,1,0-.4-.4l-2.938,2.937A.285.285,0,0,0,54.792,265.189Z" fill="#0d1c57" stroke="#0d1c57" stroke-width="0.2"/>
    <path id="Path_8" data-name="Path 8" d="M55.359,266.812l3.647-3.647a.284.284,0,0,0-.4-.4l-3.646,3.647a1.506,1.506,0,0,1-1.71.293.283.283,0,0,0-.334.068l-1.239,1.4,0,0h0L46.317,274.2l0,.005a.71.71,0,0,1-.051.056.908.908,0,0,1-1.282,0,.907.907,0,0,1,0-1.283.7.7,0,0,1,.055-.051l.005,0,3.348-2.972a.283.283,0,1,0-.376-.424l-3.346,2.97c-.032.027-.06.054-.087.081a1.474,1.474,0,0,0,2.084,2.084c.027-.028.053-.056.08-.088l4.081-4.6,4.082,4.6a1.144,1.144,0,0,0,.08.087,1.473,1.473,0,0,0,2.084-2.083q-.041-.041-.087-.081l-4.7-4.168.919-1.035A2.074,2.074,0,0,0,55.359,266.812Zm1.25,6.116,0,0c.021.018.039.034.056.051a.907.907,0,0,1-1.282,1.283.71.71,0,0,1-.051-.056l0-.005L51.2,269.554l.707-.8Z" fill="#0d1c57" stroke="#0d1c57" stroke-width="0.2"/>
    <path id="Path_9" data-name="Path 9" d="M48.482,267.342l1.068,1.2a.283.283,0,0,0,.4.023l2.523-2.239a.283.283,0,0,0,.068-.334,1.5,1.5,0,0,1,.293-1.709l3.647-3.647a.283.283,0,0,0-.4-.4l-3.647,3.647a2.07,2.07,0,0,0-.487,2.154l-1.123,1-1.078-.957a2.849,2.849,0,0,0-.531-3.315,6.462,6.462,0,0,0-2.866-1.742,2.232,2.232,0,0,0-2.923,2.923,6.457,6.457,0,0,0,1.741,2.867A2.851,2.851,0,0,0,48.482,267.342Zm-4.176-5.44a1.941,1.941,0,0,1,1.9-.33,5.879,5.879,0,0,1,2.6,1.593,2.285,2.285,0,0,1,.332,2.826.283.283,0,0,0,.053.36l1.2,1.064-.611.543L48.755,266.8a.283.283,0,0,0-.361-.053,2.287,2.287,0,0,1-2.826-.332,5.894,5.894,0,0,1-1.593-2.6A1.943,1.943,0,0,1,44.306,261.9Z" fill="#0d1c57" stroke="#0d1c57" stroke-width="0.2"/>
  </g>
</svg>
