<svg xmlns="http://www.w3.org/2000/svg" width="20.882" height="19.916" viewBox="0 0 20.882 19.916">
  <path id="img_rating_s" d="M20.882,7.718q0-.464-.7-.577l-6.3-.916L11.056.514Q10.818,0,10.441,0T9.826.514L7,6.225.7,7.141q-.7.113-.7.577a.956.956,0,0,0,.314.6l4.568,4.443L3.8,19.038a2.038,2.038,0,0,0-.025.251.74.74,0,0,0,.132.446.455.455,0,0,0,.4.182,1.065,1.065,0,0,0,.5-.15L10.441,16.8l5.635,2.962a1.015,1.015,0,0,0,.5.151q.515,0,.515-.627a1.9,1.9,0,0,0-.013-.251L16,12.763l4.555-4.443A.909.909,0,0,0,20.882,7.718Z" transform="translate(0)" fill="#e2c439"/>
</svg>
