<svg xmlns="http://www.w3.org/2000/svg" width="20.883" height="19.916" viewBox="0 0 20.883 19.916">
  <path id="img_rating_n" d="M16.578,19.916a1.029,1.029,0,0,1-.5-.15L10.441,16.8,4.807,19.766a1.069,1.069,0,0,1-.5.15.456.456,0,0,1-.4-.182.741.741,0,0,1-.132-.446,2.134,2.134,0,0,1,.025-.251l1.079-6.275L.314,8.32A.959.959,0,0,1,0,7.717c0-.308.236-.5.7-.577L7,6.224,9.826.515C9.984.173,10.191,0,10.441,0s.457.173.616.515l2.823,5.71,6.3.916c.466.075.7.269.7.577a.913.913,0,0,1-.327.6L16,12.763l1.079,6.275a1.965,1.965,0,0,1,.013.251C17.093,19.705,16.92,19.916,16.578,19.916Zm-6.137-4.932h0l4.731,2.5-.9-5.283,3.84-3.728-5.3-.778L10.441,2.9,8.069,7.693l-5.3.778L6.613,12.2,5.7,17.482l4.743-2.5Z" fill="#a2a2a2"/>
</svg>
