<svg xmlns="http://www.w3.org/2000/svg" width="25.949" height="23.968" viewBox="0 0 25.949 23.968">
  <g id="img_spice_s" transform="translate(0 -0.024)">
    <path id="Path" d="M25.938,6.565a14.86,14.86,0,0,1-2.43,7.543,15.013,15.013,0,0,1-3.476,3.721,15.293,15.293,0,0,1-4.721,2.424A15.468,15.468,0,0,1,.274,16.885.847.847,0,0,1,.1,15.861a.869.869,0,0,1,.486-.409.891.891,0,0,1,.474-.027c6.455,1.4,12.993-3.155,14.674-10.174q.025-.1.048-.2c.065-.29.122-.584.169-.877A4.9,4.9,0,0,1,18.606.551,5.006,5.006,0,0,1,21.742.074,5.113,5.113,0,0,1,23.1.513l.014.007A4.893,4.893,0,0,1,25.863,4.4a14.539,14.539,0,0,1,.074,2.164Z" transform="translate(0 3.043)" fill="#ff7a53"/>
    <path id="Path-2" data-name="Path" d="M1.513,3.693,0,3.529l.052-.463A3.4,3.4,0,0,1,1.343.757,3.526,3.526,0,0,1,3.919.021L3.752,1.507A1.994,1.994,0,0,0,2.3,1.923,1.926,1.926,0,0,0,1.565,3.23Z" transform="translate(21.007 0.025)" fill="#00a653"/>
    <path id="Path-3" data-name="Path" d="M25.938,6.492a14.86,14.86,0,0,1-2.43,7.543,15.013,15.013,0,0,1-3.476,3.721A15.293,15.293,0,0,1,15.31,20.18,15.468,15.468,0,0,1,.274,16.811.847.847,0,0,1,.1,15.788a.869.869,0,0,1,.486-.409C19.562,21.942,21.537,3.668,21.742,0A5.113,5.113,0,0,1,23.1.439l.014.007a4.893,4.893,0,0,1,2.752,3.882,14.539,14.539,0,0,1,.074,2.164Z" transform="translate(0 3.117)" fill="#ff4f19"/>
    <path id="Path-4" data-name="Path" d="M10.2,6.565l-2.689.783L5.06,5.816l-.039-.024-2.832.825L0,5.251q.025-.1.048-.2c.065-.29.122-.584.169-.877A4.9,4.9,0,0,1,2.872.551,5.006,5.006,0,0,1,6.008.074,5.113,5.113,0,0,1,7.363.513L7.377.52A4.893,4.893,0,0,1,10.129,4.4,14.539,14.539,0,0,1,10.2,6.565Z" transform="translate(15.734 3.043)" fill="#00c279"/>
    <path id="Path-5" data-name="Path" d="M5.143,6.492l-2.689.783L0,5.742A28.076,28.076,0,0,0,.948,0,5.113,5.113,0,0,1,2.3.439l.014.007A4.893,4.893,0,0,1,5.069,4.328a14.539,14.539,0,0,1,.074,2.164Z" transform="translate(20.794 3.117)" fill="#00a653"/>
  </g>
</svg>
