<?xml version="1.0" encoding="UTF-8"?>
<svg width="22px" height="20px" viewBox="0 0 22 20" version="1.1" xmlns="http://www.w3.org/2000/svg" xmlns:xlink="http://www.w3.org/1999/xlink">
    <!-- Generator: sketchtool 53.2 (72643) - https://sketchapp.com -->
    <title>875BA174-E2A1-4BE9-A062-DBC5D0D4BEDE</title>
    <desc>Created with sketchtool.</desc>
    <g id="Main-App" stroke="none" stroke-width="1" fill="none" fill-rule="evenodd">
        <g id="04---Profile-Tagged" transform="translate(-326.000000, -42.000000)" fill="#dc2f2e" fill-rule="nonzero" stroke="#dc2f2e">
            <g id="003-settings" transform="translate(327.000000, 42.000000)">
                <path d="M10,8.21428571 C9.01535714,8.21428571 8.21428571,9.01535714 8.21428571,10 C8.21428571,10.9846429 9.01535714,11.7857143 10,11.7857143 C10.9846429,11.7857143 11.7857143,10.9846429 11.7857143,10 C11.7857143,9.01535714 10.9846429,8.21428571 10,8.21428571 Z M10,11.0714286 C9.40928571,11.0714286 8.92857143,10.5907143 8.92857143,10 C8.92857143,9.40928571 9.40928571,8.92857143 10,8.92857143 C10.5907143,8.92857143 11.0714286,9.40928571 11.0714286,10 C11.0714286,10.5907143 10.5907143,11.0714286 10,11.0714286 Z" id="Shape"></path>
                <path d="M19.6428571,9.64285714 L18.5625,9.64285714 C18.4760714,7.54857143 17.6357143,5.64607143 16.3046429,4.20035714 L17.0710714,3.43392857 C17.2107143,3.29428571 17.2107143,3.06857143 17.0710714,2.92892857 C16.9314286,2.78928571 16.7057143,2.78928571 16.5660714,2.92892857 L15.7996429,3.69535714 C14.3539286,2.36464286 12.4514286,1.52392857 10.3571429,1.4375 L10.3571429,0.357142857 C10.3571429,0.159642857 10.1975,0 10,0 C9.8025,0 9.64285714,0.159642857 9.64285714,0.357142857 L9.64285714,1.4375 C7.54857143,1.52392857 5.64607143,2.36428571 4.20035714,3.69535714 L3.43392857,2.92892857 C3.29428571,2.78928571 3.06857143,2.78928571 2.92892857,2.92892857 C2.78928571,3.06857143 2.78928571,3.29428571 2.92892857,3.43392857 L3.69535714,4.20035714 C2.36464286,5.64607143 1.52392857,7.54857143 1.4375,9.64285714 L0.357142857,9.64285714 C0.159642857,9.64285714 0,9.8025 0,10 C0,10.1975 0.159642857,10.3571429 0.357142857,10.3571429 L1.4375,10.3571429 C1.52392857,12.4514286 2.36428571,14.3539286 3.69535714,15.7996429 L2.92892857,16.5660714 C2.78928571,16.7057143 2.78928571,16.9314286 2.92892857,17.0710714 C2.99857143,17.1407143 3.09,17.1757143 3.18142857,17.1757143 C3.27285714,17.1757143 3.36428571,17.1407143 3.43392857,17.0710714 L4.20035714,16.3046429 C5.64607143,17.6353571 7.54857143,18.4760714 9.64285714,18.5625 L9.64285714,19.6428571 C9.64285714,19.8403571 9.8025,20 10,20 C10.1975,20 10.3571429,19.8403571 10.3571429,19.6428571 L10.3571429,18.5625 C12.4514286,18.4760714 14.3539286,17.6357143 15.7996429,16.3046429 L16.5660714,17.0710714 C16.6357143,17.1407143 16.7271429,17.1757143 16.8185714,17.1757143 C16.91,17.1757143 17.0014286,17.1407143 17.0710714,17.0710714 C17.2107143,16.9314286 17.2107143,16.7057143 17.0710714,16.5660714 L16.3046429,15.7996429 C17.6353571,14.3539286 18.4760714,12.4514286 18.5625,10.3571429 L19.6428571,10.3571429 C19.8403571,10.3571429 20,10.1975 20,10 C20,9.8025 19.8403571,9.64285714 19.6428571,9.64285714 Z M10,17.8571429 C5.6675,17.8571429 2.14285714,14.3325 2.14285714,10 C2.14285714,5.6675 5.6675,2.14285714 10,2.14285714 C14.3325,2.14285714 17.8571429,5.6675 17.8571429,10 C17.8571429,14.3325 14.3325,17.8571429 10,17.8571429 Z" id="Shape"></path>
            </g>
        </g>
    </g>
</svg>