<svg xmlns="http://www.w3.org/2000/svg" xmlns:xlink="http://www.w3.org/1999/xlink" width="1440" height="2561.28" viewBox="0 0 1440 2561.28">
  <defs>
    <clipPath id="clip-Android_xxxhdpi">
      <rect width="1440" height="2561.28"/>
    </clipPath>
  </defs>
  <g id="Android_xxxhdpi" clip-path="url(#clip-Android_xxxhdpi)">
    <rect width="1440" height="2561.28" fill="#fff"/>
    <g id="Group" transform="translate(-175.496 -538.009)">
      <g id="Group_282_Copy" data-name="Group 282 Copy" transform="matrix(0.899, 0.438, -0.438, 0.899, 541.048, -1.038)">
        <path id="Fill_2" data-name="Fill 2" d="M6.134,12.284C14.316,12.273,14.347-.011,6.15,0c-8.182.011-8.213,12.295-.016,12.284" transform="translate(150.925 967.902)" fill="#434343"/>
        <path id="Fill_4" data-name="Fill 4" d="M6.134,12.284C14.316,12.273,14.347-.011,6.15,0c-8.182.011-8.213,12.295-.016,12.284" transform="translate(191.338 977.829)" fill="#434343"/>
        <path id="Fill_6" data-name="Fill 6" d="M6.134,12.284C14.316,12.273,14.347-.011,6.15,0c-8.182.011-8.213,12.295-.016,12.284" transform="translate(191.338 942.911)" fill="#434343"/>
        <path id="Fill_8" data-name="Fill 8" d="M6.187,12.284l1.651,0c3.236,0,6.342-2.833,6.2-6.149A6.255,6.255,0,0,0,7.854,0L6.2,0C2.964.006-.139,2.835,0,6.151a6.252,6.252,0,0,0,6.182,6.133" transform="translate(641.161 594.81)" fill="#434343"/>
        <path id="Fill_10" data-name="Fill 10" d="M6.134,12.284C14.316,12.273,14.347-.011,6.15,0c-8.182.011-8.213,12.295-.016,12.284" transform="translate(659.472 629.705)" fill="#434343"/>
        <path id="Fill_12" data-name="Fill 12" d="M6.14,12.275C14.328,12.266,14.356-.009,6.153,0-2.035.009-2.063,12.283,6.14,12.275" transform="matrix(0.951, -0.309, 0.309, 0.951, 826.209, 559.041)" fill="#434343"/>
        <path id="Fill_18" data-name="Fill 18" d="M6.134,12.284C14.316,12.273,14.347-.011,6.15,0c-8.182.011-8.213,12.295-.016,12.284" transform="translate(231.752 1192.268)" fill="#434343"/>
        <path id="Fill_20" data-name="Fill 20" d="M6.14,12.275C14.328,12.266,14.356-.009,6.153,0-2.035.009-2.063,12.283,6.14,12.275" transform="matrix(0.951, -0.309, 0.309, 0.951, 1305.039, 632.946)" fill="#434343"/>
        <path id="Fill_22" data-name="Fill 22" d="M6.14,12.275C14.328,12.266,14.356-.009,6.153,0-2.035.009-2.063,12.283,6.14,12.275" transform="matrix(0.951, -0.309, 0.309, 0.951, 1276.903, 680.553)" fill="#434343"/>
        <path id="Fill_24" data-name="Fill 24" d="M6.14,12.275C14.328,12.266,14.356-.009,6.153,0-2.035.009-2.063,12.283,6.14,12.275" transform="matrix(0.951, -0.309, 0.309, 0.951, 1313.453, 661.606)" fill="#434343"/>
        <path id="Fill_26" data-name="Fill 26" d="M6.14,12.275C14.328,12.266,14.356-.009,6.153,0-2.035.009-2.063,12.283,6.14,12.275" transform="matrix(0.951, -0.309, 0.309, 0.951, 1555.86, 687.288)" fill="#434343"/>
        <path id="Fill_28" data-name="Fill 28" d="M12.292,7.833l0-1.65c0-3.233-2.82-6.33-6.139-6.178A6.292,6.292,0,0,0,0,6.2l0,1.65c0,3.236,2.82,6.33,6.139,6.178a6.288,6.288,0,0,0,6.153-6.191" transform="matrix(0.951, -0.309, 0.309, 0.951, 1583.145, 656.542)" fill="#434343"/>
        <path id="Fill_30" data-name="Fill 30" d="M6.14,12.275C14.328,12.266,14.356-.009,6.153,0-2.035.009-2.063,12.283,6.14,12.275" transform="matrix(0.951, -0.309, 0.309, 0.951, 1600.512, 698.192)" fill="#434343"/>
        <path id="Fill_32" data-name="Fill 32" d="M7.857,0,6.2,0C2.967,0-.14,2.831,0,6.145a6.258,6.258,0,0,0,6.188,6.131l1.653,0c3.241,0,6.345-2.829,6.2-6.143A6.257,6.257,0,0,0,7.857,0" transform="matrix(0.951, -0.309, 0.309, 0.951, 1569.726, 764.32)" fill="#434343"/>
        <path id="Fill_34" data-name="Fill 34" d="M7.857,0,6.2,0C2.967,0-.14,2.831,0,6.145a6.258,6.258,0,0,0,6.188,6.131l1.653,0c3.241,0,6.345-2.829,6.2-6.143A6.257,6.257,0,0,0,7.857,0" transform="matrix(0.951, -0.309, 0.309, 0.951, 1021.629, 568.565)" fill="#434343"/>
        <path id="Fill_38" data-name="Fill 38" d="M6.187,12.284l1.651,0c3.236,0,6.342-2.833,6.2-6.149A6.254,6.254,0,0,0,7.854,0L6.2,0C2.964.006-.139,2.835,0,6.151a6.252,6.252,0,0,0,6.182,6.133" transform="translate(399.457 689.896)" fill="#434343"/>
        <path id="Fill_40" data-name="Fill 40" d="M6.134,12.284C14.316,12.273,14.347-.011,6.15,0c-8.182.011-8.213,12.295-.016,12.284" transform="translate(424.397 744.735)" fill="#434343"/>
        <path id="Fill_42" data-name="Fill 42" d="M6.134,12.284C14.316,12.273,14.347-.011,6.15,0c-8.182.011-8.213,12.295-.016,12.284" transform="translate(324.879 736.57)" fill="#434343"/>
        <path id="Fill_50" data-name="Fill 50" d="M6.134,12.284C14.316,12.273,14.347-.011,6.15,0c-8.182.011-8.213,12.295-.016,12.284" transform="translate(324.798 457.211)" fill="#434343"/>
        <path id="Fill_52" data-name="Fill 52" d="M6.134,12.284C14.316,12.273,14.347-.011,6.15,0c-8.182.011-8.213,12.295-.016,12.284" transform="translate(287.979 458.938)" fill="#434343"/>
        <path id="Fill_112" data-name="Fill 112" d="M.453,4.891q61.634,108.417,130.2,212.643c2.3,3.493,7.955.221,5.637-3.3Q67.753,110.057,6.092,1.589c-2.075-3.65-7.72-.359-5.64,3.3" transform="matrix(-0.875, 0.485, -0.485, -0.875, 1612.801, 717.778)" fill="#434343"/>
        <path id="Fill_114" data-name="Fill 114" d="M.453,4.9Q62.088,113.308,130.647,217.532c2.3,3.5,7.964.221,5.643-3.305Q67.76,110.05,6.1,1.591C4.022-2.063-1.629,1.232.453,4.9" transform="matrix(-0.875, 0.485, -0.485, -0.875, 1608.343, 731.443)" fill="#434343"/>
        <path id="Fill_116" data-name="Fill 116" d="M8.086.563C-8.864,12.054,4.792,29.04,13.237,41.127Q35.219,72.6,59.56,102.289c2.639,3.236,7.2-1.392,4.579-4.6q-16.228-19.9-31.492-40.56C26.667,48.988-3.1,15.969,11.349,6.175c3.438-2.331.206-7.964-3.263-5.613" transform="matrix(-0.875, 0.485, -0.485, -0.875, 1402.224, 596.943)" fill="#434343"/>
        <path id="Fill_118" data-name="Fill 118" d="M5.4,9.907C16.752-3.481,38.172,36.339,43.536,44.051L72.82,86.162c2.362,3.4,7.985.158,5.6-3.275C61.839,59.046,45.749,34.76,28.634,11.3,22.161,2.427,10.166-5.695.817,5.327-1.866,8.494,2.693,13.1,5.4,9.907" transform="matrix(-0.875, 0.485, -0.485, -0.875, 1392.076, 615.104)" fill="#434343"/>
        <path id="Fill_120" data-name="Fill 120" d="M.651,4.63Q20.933,30.715,41.213,56.8q.59-2.215,1.182-4.429c-2.672,1.729-5.624,2.856-8.3,4.585-3.524,2.279-.238,7.886,3.316,5.589,2.674-1.729,5.624-2.856,8.3-4.585,1.345-.869,2.309-2.983,1.185-4.429Q26.613,27.442,6.333,1.357C3.8-1.9-1.922,1.322.651,4.63" transform="matrix(-0.875, 0.485, -0.485, -0.875, 1359.602, 574.82)" fill="#434343"/>
        <path id="Fill_122" data-name="Fill 122" d="M.577,4.764Q10.591,19.326,20.608,33.89c5.027,7.313,9.613,17.323,17.605,21.732a3.252,3.252,0,0,0,3.292,0q3.962-2.655,7.923-5.305c3.476-2.328.217-7.994-3.288-5.645-1.521,1.019-4.907,4.435-6.686,4.478-1.743.04-8.415-11.585-10.2-14.178Q17.731,18.215,6.211,1.459C3.845-1.979-1.813,1.289.577,4.764" transform="matrix(-0.875, 0.485, -0.485, -0.875, 1349.144, 595.557)" fill="#434343"/>
        <path id="Fill_124" data-name="Fill 124" d="M.58,10.593,34.437,59.724a3.261,3.261,0,0,0,4.4,1.172c7.963-4.625,8.456-9.5,3.956-16.99-8.98-14.943-22.123-28.1-32.126-42.467C8.294-1.968,2.71,1.3,5.108,4.748c6.473,9.3,13.17,18.425,20.171,27.322C29,36.8,33.42,41.264,36.713,46.286c2.786,4.253,4.914,5.458-1.119,8.961q2.2.583,4.4,1.17Q23.065,31.851,6.138,7.284C3.781,3.864-1.8,7.136.58,10.593" transform="matrix(-0.875, 0.485, -0.485, -0.875, 1356.383, 587.093)" fill="#434343"/>
        <path id="Fill_126" data-name="Fill 126" d="M5.163,11.873A22.258,22.258,0,0,0,9.646,8.639a30.393,30.393,0,0,0,3.9-3.847c1.126-1.372.234-3.562-1.235-4.356A3.7,3.7,0,0,0,7.6,1.58c.7-.846-.028-.01-.188.15-.273.278-.555.548-.839.816-.585.546-1.186,1.073-1.8,1.591S3.532,5.15,2.9,5.642c-.326.237-.337.247-.036.031-.146.1-.292.2-.441.293-.243.143-.477.286-.734.408a3.093,3.093,0,0,0-1.238,4.36,3.674,3.674,0,0,0,4.714,1.138" transform="matrix(-0.875, 0.485, -0.485, -0.875, 1356.622, 591.633)" fill="#434343"/>
        <path id="Fill_128" data-name="Fill 128" d="M10.85.456C8.065,2.37,4.423,2.71,1.632,4.628A3.158,3.158,0,0,0,.442,8.939a3.423,3.423,0,0,0,4.522,1.126c2.786-1.914,6.428-2.253,9.221-4.172a3.157,3.157,0,0,0,1.187-4.311A3.422,3.422,0,0,0,10.85.456" transform="matrix(-0.875, 0.485, -0.485, -0.875, 1360.226, 576.335)" fill="#434343"/>
        <path id="Fill_130" data-name="Fill 130" d="M166.386,16.213C130.911-6.959,82.6-4.934,48.309,19.99,13.791,45.08-2.925,88.708.42,130.511c.5,6.253,10.307,6.3,9.8-.013C7.158,92.213,21.562,51.763,53.246,28.46c31.5-23.167,75.489-25.119,108.18-3.765,5.294,3.456,10.223-5.044,4.959-8.482" transform="translate(246.847 541.603)" fill="#434343"/>
        <path id="Fill_132" data-name="Fill 132" d="M12.742,1.366C4.792,8.862-3.914,19.8,1.886,31.412c5.927,11.863,23.069,8.464,33.757,8.565,6.261.058,6.279-9.914.013-9.972l-12.888-.119c-3.6-.035-9.2,1.006-11.77-2.189-5.29-6.6,4.511-15.416,8.616-19.286,4.622-4.362-2.264-11.389-6.872-7.044" transform="translate(247.579 664.609)" fill="#434343"/>
        <path id="Fill_134" data-name="Fill 134" d="M2.182,117.418c36.248,25.095,79.482,7.834,114.288-10.878,17.638-9.479,33.647-18.789,41.93-37.854,8.8-20.253,7.075-42.611,5.149-64-.56-6.225-10.385-6.27-9.82.013,1.572,17.464,3.455,35.8-1.7,52.891-6.377,21.164-22.137,30.628-40.509,40.5C79.763,115.167,40.376,131.96,7.15,108.956c-5.2-3.6-10.122,4.894-4.968,8.463" transform="translate(263.41 589.66)" fill="#434343"/>
        <path id="Fill_136" data-name="Fill 136" d="M2.357,9.342A21.6,21.6,0,0,0,12.284,12.3c4.238.339,9.474-.648,11.885,3.752,4.6,8.392-5.924,16.682-11.449,21.309-4.924,4.126,2.15,11.111,7.039,7.017,8.735-7.315,17.753-16.784,14.7-29.141A15.989,15.989,0,0,0,26.2,4.559C20.285,1.615,12.935,4.131,7.4.758,1.918-2.584-3.107,6.011,2.357,9.342" transform="translate(399.42 556.333)" fill="#434343"/>
        <path id="Fill_138" data-name="Fill 138" d="M49.857,2.229c-1.062,29.666-22.733,64-48.705,77.833-2.621,1.4-.3,5.377,2.319,3.981C31.049,69.355,53.341,33.6,54.463,2.223c.106-2.969-4.5-2.961-4.606.006" transform="translate(350.801 602.127)" fill="#434343"/>
        <path id="Fill_140" data-name="Fill 140" d="M21.254.285A85.351,85.351,0,0,1,1.581,7.91c-2.766.7-1.6,5.008,1.172,4.307A90.123,90.123,0,0,0,23.486,4.141c2.522-1.357.29-5.213-2.231-3.856" transform="translate(317.734 685)" fill="#434343"/>
        <path id="Fill_142" data-name="Fill 142" d="M3.505,7.019C8.182,7.013,8.2-.006,3.514,0s-4.692,7.025-.009,7.019" transform="translate(312.575 630.268)" fill="#434343"/>
        <path id="Fill_144" data-name="Fill 144" d="M3.505,7.019C8.182,7.013,8.2-.006,3.514,0s-4.692,7.025-.009,7.019" transform="translate(314.333 658.537)" fill="#434343"/>
        <path id="Fill_146" data-name="Fill 146" d="M3.505,7.019C8.182,7.013,8.2-.006,3.514,0s-4.692,7.025-.009,7.019" transform="translate(289.733 641.937)" fill="#434343"/>
        <path id="Fill_148" data-name="Fill 148" d="M3.505,7.019C8.182,7.013,8.2-.006,3.514,0s-4.692,7.025-.009,7.019" transform="translate(322.946 636.888)" fill="#434343"/>
        <path id="Fill_150" data-name="Fill 150" d="M3.505,7.019C8.182,7.013,8.2-.006,3.514,0s-4.692,7.025-.009,7.019" transform="translate(317.847 605.317)" fill="#434343"/>
        <path id="Fill_152" data-name="Fill 152" d="M11.118,15.546C50.366-2.586,93.306,23.26,119.913,51.669c25.327,27.047,41.892,61.555,49.652,97.724,16.137,75.214-8.811,151.834-60.433,207.773A288.679,288.679,0,0,1,3.27,429.3C-2.5,431.58,0,441.037,5.846,438.722c75.59-29.936,140.362-90.252,166.6-168.634,25.649-76.618,9.2-167.854-46.945-226.707C95.543,11.977,49.112-12.709,6.215,7.11c-5.689,2.63-.759,11.053,4.9,8.436" transform="translate(15.626 584.396)" fill="#434343"/>
        <path id="Fill_154" data-name="Fill 154" d="M8.338,11.758c46.131-21.048,94.2,20.794,117.3,57.41,22.257,35.271,31.873,77.958,28.708,119.49-6.672,87.593-72.854,159.8-152.163,191.2C-1.674,381.386,0,387.7,3.915,386.152c66.483-26.323,123.413-79.044,146.818-147.7,23.224-68.122,8.4-149.694-42.3-201.618C82.187,9.957,42.155-10.805,5.054,6.122c-3.815,1.742-.513,7.368,3.284,5.636" transform="translate(15.624 610.462)" fill="#434343"/>
        <path id="Fill_156" data-name="Fill 156" d="M7.036,162.421Q116.123,82.623,229.614,9.1L222.927,7.36q19.981,26.856,39.961,53.718c3.7,4.971,12.194.112,8.447-4.925L231.374,2.436C229.865.405,227.1-.863,224.69.7Q111.237,74.2,2.113,154.022c-5.023,3.674-.162,12.12,4.924,8.4" transform="translate(52.526 949.837)" fill="#434343"/>
        <path id="Fill_158" data-name="Fill 158" d="M7.028,180.028C84.736,122.243,164.416,67.176,242.124,9.391c5-3.722.141-12.217-4.928-8.448C159.488,58.728,79.809,113.795,2.1,171.579c-5,3.722-.141,12.217,4.928,8.448" transform="translate(80.639 1002.498)" fill="#434343"/>
        <path id="Fill_160" data-name="Fill 160" d="M7.268,60.623a244.941,244.941,0,0,0,30.17-20.764,182.089,182.089,0,0,0,16.21-14.914c2.06-2.148,4-4.4,6.007-6.594,4.695-5.142,3.314-6.674,10.477-1.112,7.442,5.775,5.059,5.1-1.176,9.113-3.162,2.037-6.545,3.8-9.77,5.737Q50.1,37.536,41.263,43.394c-10.12,6.7-21.724,13.513-30.411,22.053q2.958-.386,5.919-.77c-.3-.182-.6-.364-.893-.543q.871,3.338,1.744,6.675c.217-.284.436-.568.655-.852l-5.52,2.251c.354.106.706.215,1.06.321,6.022,1.83,8.61-7.592,2.606-9.417-.351-.106-.7-.215-1.057-.321-2.273-.692-4.2.536-5.517,2.251-.219.284-.438.568-.655.852-1.631,2.121-.286,5.441,1.744,6.675.3.179.593.361.89.543a4.983,4.983,0,0,0,5.921-.773c16.38-16.1,38.928-25.883,57.768-38.536,9.348-6.278,16.949-16.753,8.9-27.354C75.927-4.731,63.408.338,55.169,8.711,38.619,25.523,22.852,40.034,2.349,52.2c-5.406,3.209-.51,11.645,4.92,8.423" transform="translate(292.691 915.651)" fill="#434343"/>
        <path id="Fill_162" data-name="Fill 162" d="M3.334,115.568,167.64,4.361c2.426-1.644.151-5.623-2.3-3.964Q83.188,56,1.038,111.6c-2.429,1.641-.153,5.621,2.3,3.964" transform="translate(56.036 1025.337)" fill="#434343"/>
        <path id="Fill_164" data-name="Fill 164" d="M3.382,50.567Q38.349,27.84,72.763,4.315c2.424-1.655.123-5.581-2.324-3.909Q36.024,23.936,1.057,46.658c-2.469,1.606-.165,5.527,2.324,3.909" transform="translate(145.649 1046.423)" fill="#434343"/>
        <path id="Fill_166" data-name="Fill 166" d="M3.415,20.818A196.941,196.941,0,0,0,30.639,4.306c2.331-1.683.087-5.588-2.272-3.885A196.914,196.914,0,0,1,1.146,16.933c-2.6,1.3-.321,5.182,2.27,3.885" transform="translate(228.233 1000.738)" fill="#434343"/>
        <path id="Fill_168" data-name="Fill 168" d="M4.817,64.916c-13.784,32.315,4.117,67.223,27.173,90.3,26.718,26.741,66.547,23.772,99.257,9.724,31.636-13.586,47.535-43.053,47.751-76.552.108-17.158-2.9-36.457-12.407-51.072-9-13.838-24.238-22.77-39.186-29.037C89.931-7.429,46.833-1.7,22.552,33.325c-3.6,5.191,4.9,10.061,8.473,4.912C55.526,2.894,100.8,3.751,135.271,22.883,153.976,33.262,163.9,48.175,167.584,69.06c3.039,17.247,2.146,35.743-4.613,52.064-14.1,34.047-60.937,50.984-95.764,43.323C31.514,156.595-1.721,105.014,13.29,69.829c2.44-5.717-6.012-10.684-8.473-4.912" transform="translate(593.658 378.328)" fill="#434343"/>
        <path id="Fill_170" data-name="Fill 170" d="M32.922,35.02Q21.235,18.556,9.128,2.41q-2.1,3.668-4.19,7.33,20.63.869,41.281,1.074c6.233.062,6.248-9.675.013-9.737Q25.582.87,4.951,0C1.553-.138-1.458,4.376.761,7.336Q12.87,23.483,24.555,39.946c3.585,5.051,11.993.182,8.367-4.926" transform="translate(512.7 351.916)" fill="#434343"/>
        <path id="Fill_172" data-name="Fill 172" d="M44.039.482C11.717,14.741-6.907,49.98,2.393,84.289c4.308,15.89,14.123,30.485,27.814,39.883,16.953,11.637,34.039,10.884,53.188,5.079,16.522-5.008,33.134-11.32,43.314-25.99,9.747-14.049,12.079-31.782,8.732-48.236C131.99,38.06,123.093,19.31,107.523,10.319,89.6-.033,65.8-.145,45.69.036c-4.205.039-4.224,6.522-.008,6.483,15.8-.142,32.285.117,47.485,4.843,18.843,5.854,29.141,21.063,34.416,39.237,4.432,15.263,3.884,32.2-4.432,46.159C114.108,111.938,97.839,118.084,81.667,123c-18.57,5.648-35.29,5.815-50.958-6.671A65.328,65.328,0,0,1,7.783,78.761C1.3,48.168,19.174,18.5,47.333,6.076c3.839-1.7.525-7.28-3.293-5.594" transform="translate(614.312 402.075)" fill="#434343"/>
        <path id="Fill_174" data-name="Fill 174" d="M1.618,2.246c-7.481,22,12.528,47.2,28.206,61.073C47.376,78.862,74.036,90.3,97.625,84.191c4.081-1.058,2.358-7.323-1.735-6.263C74.648,83.436,50.31,72.64,34.462,58.722,20.921,46.826,1.505,22.881,7.937,3.966,9.287-.008,2.961-1.7,1.618,2.246" transform="translate(618.286 440.903)" fill="#434343"/>
        <path id="Fill_176" data-name="Fill 176" d="M2.424,39.911c8.342,4.69,17.538,8.2,27.137,9.161C38.355,49.953,42.4,38.489,45.278,31.6c2.516-6.009,6.624-14.883,1.237-20.419C40.344,4.838,27.765,1.777,19.475.113c-6.238-1.254-8.92,8.294-2.653,9.553,5.319,1.068,21.381,4.1,22.1,9.7.425,3.3-2.954,9.171-4.287,11.856a69.369,69.369,0,0,1-6.743,10.691q2.147-1.227,4.291-2.456A64.689,64.689,0,0,1,7.449,31.353c-5.568-3.13-10.593,5.428-5.024,8.558" transform="translate(742.233 479.418)" fill="#434343"/>
        <path id="Fill_178" data-name="Fill 178" d="M6.643,2.192C2.839-.11-.513,4.395.065,7.971a7.147,7.147,0,0,0,8.415,5.9c3.635-.867,6.334-4.882,5.357-8.577A7.351,7.351,0,0,0,5.091.181C2.164.836,3.4,5.34,6.323,4.685a2.36,2.36,0,0,1,2.09,4.108A2.109,2.109,0,0,1,5.4,8.636a2.619,2.619,0,0,1-.775-1.48,1.153,1.153,0,0,1,.051-.678q.548-.5-.386-.25c2.57,1.555,4.92-2.486,2.356-4.036" transform="translate(588.115 385.355)" fill="#434343"/>
        <path id="Fill_180" data-name="Fill 180" d="M5.3,1.184A7.626,7.626,0,0,0,.082,9.612c.583,3.956,4.4,6.432,8.193,6.158A8.275,8.275,0,0,0,15.72,8.223c.2-1.712.053-4.356-1.224-5.672-.79-.814-2.305-.927-3.338-1.2Q8.784.717,6.411.083C3.685-.645,2.516,3.643,5.243,4.369q3.56.952,7.118,1.9-.652-.51-1.307-1.019c1.29,2.957-.864,6.787-4.251,6-2.886-.672-3.366-4.885-.348-5.782,2.7-.8,1.558-5.089-1.158-4.283" transform="translate(684.622 458.365)" fill="#434343"/>
        <path id="Fill_182" data-name="Fill 182" d="M5.133.029C.811.7-.712,7.072.3,10.891a8.924,8.924,0,0,0,9.616,6.589c4.285-.541,6.48-5.372,5.725-9.639A8.609,8.609,0,0,0,6.541.684c-2.8.255-2.834,4.947-.006,4.689a4.255,4.255,0,0,1,4.658,2.762c.5,1.553.123,4.2-1.543,4.683a4.472,4.472,0,0,1-4.671-2.148C4.083,9.1,3.99,4.907,6.3,4.547,9.093,4.115,7.908-.4,5.133.029" transform="translate(613.094 373.648)" fill="#434343"/>
        <path id="Fill_190" data-name="Fill 190" d="M2.884.977C-1.77,5.851-.55,13.508,4.81,17.477c6.976,5.165,17.257,3.61,25.229,2.12a3.08,3.08,0,0,0,2.246-2.191A58.12,58.12,0,0,0,33.3,3.131c-.223-4.018-6.659-4.045-6.434,0a51.14,51.14,0,0,1-.78,12.607l2.246-2.191a47.234,47.234,0,0,1-13.547,1.006c-3.861-.421-11.894-4.369-7.346-9.133C10.252,2.464,5.711-1.987,2.884.977" transform="matrix(0.545, -0.839, 0.839, 0.545, 1469.255, 605.493)" fill="#434343"/>
        <path id="Fill_192" data-name="Fill 192" d="M0,3.136Q1.962,55.2.776,107.292a2.94,2.94,0,1,0,5.866.006Q7.826,55.21,5.869,3.142C5.712-1.033-.156-1.06,0,3.136" transform="matrix(0.545, -0.839, 0.839, 0.545, 1488.561, 606.925)" fill="#434343"/>
        <path id="Clip_195" data-name="Clip 195" d="M0,0,7.026.007l.121,122.709-7.026-.007Z" transform="matrix(0.545, -0.839, 0.839, 0.545, 1494.205, 598.391)" fill="none"/>
        <path id="Fill_194" data-name="Fill 194" d="M0,3.122Q.294,61.352.584,119.58c.02,4.164,6.576,4.178,6.556.006L6.556,3.128C6.536-1.033-.02-1.05,0,3.122" transform="matrix(0.545, -0.839, 0.839, 0.545, 1494.209, 598.39)" fill="#434343"/>
        <path id="Fill_197" data-name="Fill 197" d="M137.567.314C96.991-2.445,56.656,13.064,29.87,44.039c-17.239,19.935-46.506,69.21-17.789,91.44,12.893,9.983,37.057,13.57,52.93,13.625,17.595.058,34.008-7.28,47.905-17.656,28.414-21.209,58.669-59.132,51.039-96.619-1.261-6.187-10.75-3.559-9.491,2.62,6.567,32.264-21.092,65.345-44.825,84.221-12.178,9.683-26.854,17.083-42.649,17.62-12.859.437-38.582-2.991-48.773-11.767C-6.413,106.312,28.4,58.231,45.144,42.238c24.769-23.656,58.549-34.406,92.414-32.1,6.321.428,6.3-9.392.01-9.82" transform="matrix(0.951, -0.309, 0.309, 0.951, 1031.303, 262.902)" fill="#434343"/>
        <path id="Fill_199" data-name="Fill 199" d="M8.574,177.815c72.833-61.244,151.168-115.35,229.989-168.5,5.211-3.516.315-12.015-4.946-8.467C154.1,54.467,75.114,109.1,1.639,170.883c-4.843,4.073,2.123,10.976,6.934,6.932" transform="matrix(0.951, -0.309, 0.309, 0.951, 1096.866, 74.407)" fill="#434343"/>
        <path id="Fill_201" data-name="Fill 201" d="M7.083,179.887,243.913,9.376c5.08-3.656.2-12.162-4.938-8.464L2.143,171.422c-5.077,3.656-.2,12.165,4.941,8.464" transform="matrix(0.951, -0.309, 0.309, 0.951, 1086.209, 92.613)" fill="#434343"/>
        <path id="Fill_205" data-name="Fill 205" d="M97.319.046C74.728,4.293,49.623,9.4,31.6,24.587,15.754,37.943,6.5,56.963.126,76.213c-.923,2.781,3.494,3.97,4.409,1.2,6.313-19.061,15.5-37.795,31.605-50.6C53.447,13.045,77.234,8.425,98.531,4.421,101.423,3.878,100.2-.5,97.319.046" transform="matrix(0.951, -0.309, 0.309, 0.951, 1067.03, 279.455)" fill="#434343"/>
        <path id="Fill_207" data-name="Fill 207" d="M1.605,4.589A50.9,50.9,0,0,0,22.39,6.723c2.924-.3,2.958-4.942,0-4.636A47.7,47.7,0,0,1,2.834.119C0-.78-1.22,3.695,1.605,4.589" transform="matrix(0.951, -0.309, 0.309, 0.951, 1105.127, 357.823)" fill="#434343"/>
        <path id="Fill_209" data-name="Fill 209" d="M2.8,52.545c22.251-6.88,49.723-26.412,56.851-49.72.866-2.832-3.525-4.041-4.389-1.217C48.7,23.063,22.2,41.743,1.593,48.115c-2.794.862-1.607,5.3,1.2,4.43" transform="matrix(0.951, -0.309, 0.309, 0.951, 1124.608, 299.662)" fill="#434343"/>
        <path id="Fill_211" data-name="Fill 211" d="M355.836,64.592A265.374,265.374,0,0,0,250.779,9.039C211.717-1.279,166.121-4.843,127.611,9.6,53.863,37.261,1.856,121.076.044,197.928c-1.875,79.467,57.1,153.31,128.318,183.714,34.112,14.562,71.82,19.059,108.037,9.842,38.021-9.675,71.688-32.436,99.537-59.5,34.637-33.66,56.483-74.234,64.346-121.905,6.521-39.541,7.19-84.517-22.145-115.452-4.34-4.576-11.269,2.353-6.94,6.921,26.689,28.14,25.525,70.079,19.635,105.941-6.319,38.456-21.519,73.561-47.627,102.835-49.044,55-119.67,91.967-193.808,68.755C83.4,358.412,24.983,298.11,12.25,229.49-1.8,153.8,42.565,70.61,106.891,30.756c74.494-46.153,180.566-12,242.005,40.757,4.753,4.08,11.727-2.812,6.94-6.921" transform="matrix(0.951, -0.309, 0.309, 0.951, 835.573, 244.609)" fill="#434343"/>
        <path id="Fill_213" data-name="Fill 213" d="M46.933,1.56C17.051,51.041-13.151,106.266,6.006,165.218c16.329,50.252,56.346,92.737,99.558,121.819,3.492,2.351,6.778-3.29,3.31-5.623-41.75-28.1-80.774-69.376-96.553-117.937C-6.28,106.233,23.62,52.787,52.581,4.837c2.176-3.6-3.478-6.873-5.649-3.278" transform="matrix(0.951, -0.309, 0.309, 0.951, 884.49, 288.432)" fill="#434343"/>
        <path id="Fill_215" data-name="Fill 215" d="M1.7,6.057c20.577,9.3,45.317,5.73,67.193,4.379,4.174-.257,4.205-6.9,0-6.645C48.678,5.041,24.008,8.908,5,.318c-3.8-1.718-7.13,4.008-3.3,5.74" transform="matrix(0.951, -0.309, 0.309, 0.951, 1095.222, 510.387)" fill="#434343"/>
        <path id="Fill_217" data-name="Fill 217" d="M62.191,3.975C75.3,42.1,76.31,83.382,63.647,121.87,51.021,160.251,25.515,192.706.755,224.158c-2.573,3.27,2.044,7.9,4.646,4.592,25.5-32.39,51.584-65.635,64.588-105.162,12.993-39.493,12-82.224-1.452-121.354C67.183-1.7,60.823,0,62.191,3.975" transform="matrix(0.951, -0.309, 0.309, 0.951, 1145.872, 240.977)" fill="#434343"/>
        <path id="Fill_219" data-name="Fill 219" d="M44.174,27.127Q24.4,13.923,4.723.56c-3.45-2.342-6.691,3.272-3.267,5.6q19.672,13.36,39.451,26.567c3.469,2.314,6.712-3.3,3.267-5.6" transform="matrix(0.951, -0.309, 0.309, 0.951, 1127.11, 192.811)" fill="#434343"/>
        <path id="Fill_221" data-name="Fill 221" d="M24.823.037C9.908,2.092,2.116,17.256.341,31c-2.034,15.721,5.081,29.926,20.02,35.956,32.632,13.171,62.681-16.94,58.247-49.073-.58-4.186-6.944-2.4-6.37,1.762,3.435,24.9-17.375,47.765-43.084,42.879C16.042,60.031,6.777,50.572,6.571,36.817,6.386,24.4,12.865,8.287,26.573,6.4c4.19-.577,2.413-6.937-1.75-6.362" transform="matrix(0.951, -0.309, 0.309, 0.951, 1061.143, 382.06)" fill="#434343"/>
        <path id="Fill_223" data-name="Fill 223" d="M1.025,44.491c10.427,9.7,28.6,2.631,36.849-7.154C47.181,26.3,45.336,10.507,35.184.909,32.123-1.985,27.516,2.7,30.588,5.6c7.306,6.907,9.538,17.891,3.114,26.368-5.378,7.1-20.369,15-28.08,7.824-3.082-2.865-7.692,1.818-4.6,4.7" transform="matrix(0.951, -0.309, 0.309, 0.951, 1124.675, 367.996)" fill="#434343"/>
        <path id="Fill_225" data-name="Fill 225" d="M0,55.483C.252,68.313,9.649,96.1,24.134,78.6,41.207,57.968,37.866,28.3,38.684,3.171c.136-4.235-6.257-4.224-6.393.009-.424,13.055-.324,26.283-1.405,39.3-.73,8.776-2.459,16.2-6.655,23.9-3.1,5.7-2.161,5.488-9.651,3.2-8.643-2.644-8-4.5-8.185-14.107C6.31,51.247-.083,51.24,0,55.483" transform="matrix(0.951, -0.309, 0.309, 0.951, 1148.223, 341.331)" fill="#434343"/>
        <path id="Fill_227" data-name="Fill 227" d="M26.057,3.8C15.424,9.244-1.06,18.532.054,32.742c.965,12.279,16.2,6.885,22.765,3.2,6.051-3.4,11.409-7.944,16.487-12.6,3.976-3.642,10.16-8.063,9.884-14.06C48.577-3.995,32.2-.294,24.674,3.736c-3.735,2-.411,7.6,3.326,5.6a39.608,39.608,0,0,1,6.024-2.829q7.119-3.067,5.324,3.659c.193,5-1.214,5.394-4.7,8.594-4.666,4.274-9.559,8.5-15.148,11.579-1.807,1-6.065,3.834-8.258,3.545-7.52-.984-2.909-8.154-1-10.816C14.841,16.63,22.487,12.932,29.383,9.4c3.771-1.929.443-7.529-3.326-5.6" transform="matrix(0.951, -0.309, 0.309, 0.951, 1128.25, 416.213)" fill="#434343"/>
        <path id="Fill_229" data-name="Fill 229" d="M39.2.319C9.548-3.439.528,26.738.433,50.892.356,70.041,4.56,88.831,2.673,108.029c-.764,7.766-7.072,25.014,2.877,29.616,8.971,4.151,18.18-5.964,22.427-12.384,7.414-11.2,9.364-24.974,10.167-38.035.545-8.915.356-17.894,1.462-26.773,1.228-9.842,4.917-18.411,7.671-27.843,3.3-11.3,3.29-22.822-5.759-31.344-3.051-2.873-7.7,1.713-4.643,4.593,11.037,10.4,4.109,24.277.234,36.173a107.766,107.766,0,0,0-4.781,27.315c-.669,10.889-.291,21.9-2.412,32.664-1.041,5.278-11.61,38.486-22.845,25.7C5.451,125.869,8.3,115.89,8.635,112.939A147.692,147.692,0,0,0,9.856,93.452C9.644,82.174,7.908,71,7.281,59.744,6.082,38.133,9.408,3.029,39.192,6.805c4.172.528,4.142-5.963.009-6.486" transform="matrix(0.951, -0.309, 0.309, 0.951, 989.607, 327.41)" fill="#434343"/>
        <path id="Fill_231" data-name="Fill 231" d="M1.142,13.243C4.55,22.094,11.213,32.18,20.7,35.939c7.934,3.141,15.405-2.667,16.1-10.511C37.687,15.5,29.3,7.949,20.831,3.956,17.175,2.231,11.343-1.061,7.232.337,2.758,1.859,1.039,7.891.1,11.827c-.96,4.007,5.436,5.712,6.4,1.695.595-2.49,1.044-6.1,3.811-6.9,1.6-.462,5.469,2.064,7.17,2.863,5.535,2.609,11.363,6.479,12.477,12.776.509,2.875.032,7.151-3.64,8.183-3.139.881-7.263-2.978-9.2-4.741A36.646,36.646,0,0,1,7.545,11.535c-1.472-3.821-7.89-2.161-6.4,1.708" transform="matrix(0.951, -0.309, 0.309, 0.951, 1027.102, 269.883)" fill="#434343"/>
        <path id="Fill_233" data-name="Fill 233" d="M.947,2.179A150.979,150.979,0,0,0,28.741,107.713c1.713,2.385,5.78.1,4.05-2.305A147.314,147.314,0,0,1,5.634,2.172C5.959-.739,1.27-.711.947,2.179" transform="matrix(0.951, -0.309, 0.309, 0.951, 937.285, 368.093)" fill="#434343"/>
        <path id="Fill_235" data-name="Fill 235" d="M.032,2.908A104.715,104.715,0,0,0,18.381,48.084c1.7,2.391,5.679.077,3.954-2.34A101.756,101.756,0,0,1,4.445,1.672C3.991-1.26-.419-.011.032,2.908" transform="matrix(0.951, -0.309, 0.309, 0.951, 963.318, 400.517)" fill="#434343"/>
        <path id="Fill_237" data-name="Fill 237" d="M60.477.071C16,10.765-9.623,55.862,3.387,100.19c.829,2.819,5.2,1.613,4.367-1.227C-4.571,56.98,19.592,14.61,61.674,4.491c2.836-.68,1.641-5.1-1.2-4.419" transform="matrix(0.951, -0.309, 0.309, 0.951, 968.503, 292.108)" fill="#434343"/>
        <path id="Fill_239" data-name="Fill 239" d="M.455,3.269c12.471,16.159,31.471,28.45,52.431,20.521,2.747-1.039,1.558-5.457-1.226-4.4C32.767,26.531,15.7,15.542,4.442.959,2.664-1.345-1.347.933.455,3.269" transform="matrix(0.951, -0.309, 0.309, 0.951, 1055.657, 435.284)" fill="#434343"/>
        <path id="Fill_241" data-name="Fill 241" d="M3.516,6.6C16.441.626,28.9,8.177,38.182,16.867c2.154,2.018,5.424-1.207,3.265-3.231-11-10.3-25.316-17.883-40.255-10.982C-1.5,3.9.838,7.832,3.516,6.6" transform="matrix(0.951, -0.309, 0.309, 0.951, 1062.963, 258.175)" fill="#434343"/>
        <path id="Fill_249" data-name="Fill 249" d="M.146,4.083A63.8,63.8,0,0,0,9.295,23.067c2.458,3.479,8.37.175,5.888-3.338A58.255,58.255,0,0,1,6.721,2.32C5.527-1.755-1.055-.015.146,4.083" transform="matrix(0.951, -0.309, 0.309, 0.951, 924.782, 488.067)" fill="#434343"/>
        <path id="Fill_251" data-name="Fill 251" d="M1.63,6.124a26.55,26.55,0,0,1,14.8,22.244c.291,4.266,6.621,4.293,6.328-.008C21.94,16.25,15.314,5.51,4.832.345c-3.665-1.8-6.89,3.962-3.2,5.779" transform="translate(387.168 904.281)" fill="#434343"/>
        <path id="Fill_253" data-name="Fill 253" d="M.8,5.638A23.639,23.639,0,0,1,6.157,21.447c-.073,4.176,6.011,4.171,6.084-.008A30.7,30.7,0,0,0,5.107,1.044C2.51-2.086-1.787,2.525.8,5.638" transform="translate(410.592 902.783)" fill="#434343"/>
        <path id="Fill_255" data-name="Fill 255" d="M19.041,4.078c3.638,18-7.565,32.958-18.278,46.406-2.605,3.272,2.081,7.9,4.716,4.6,12.414-15.585,24.172-32.121,20-52.741-.831-4.1-7.269-2.356-6.441,1.739" transform="translate(422.696 615.875)" fill="#434343"/>
        <path id="Fill_257" data-name="Fill 257" d="M13.191,2.325A30.859,30.859,0,0,1,1.368,21.951c-3.246,2.416-.116,7.993,3.17,5.548A37.243,37.243,0,0,0,19.259,4.027c.728-4.046-5.335-5.774-6.068-1.7" transform="translate(442.767 634.664)" fill="#434343"/>
        <path id="Fill_259" data-name="Fill 259" d="M78.375,1.684A182.169,182.169,0,0,1,1.615,83.439c-3.692,2.048-.394,7.685,3.3,5.634a188.061,188.061,0,0,0,79.118-84.1c1.8-3.78-3.853-7.093-5.659-3.289" transform="matrix(0.951, -0.309, 0.309, 0.951, 1221.282, 382.863)" fill="#434343"/>
        <path id="Fill_261" data-name="Fill 261" d="M34.467,1.613a61.312,61.312,0,0,1-32.3,28.779c-3.828,1.466-2.174,7.723,1.7,6.239A68.086,68.086,0,0,0,40.012,4.874c1.957-3.672-3.583-6.938-5.545-3.261" transform="matrix(0.951, -0.309, 0.309, 0.951, 1274.165, 404.285)" fill="#434343"/>
        <path id="Fill_263" data-name="Fill 263" d="M26.943,2.336A45.285,45.285,0,0,1,1.673,36.1c-3.8,1.861-.455,7.435,3.335,5.577A51.231,51.231,0,0,0,33.31,4.058c.671-4.066-5.691-5.821-6.367-1.722" transform="matrix(0.545, -0.839, 0.839, 0.545, 1474.652, 558.466)" fill="#434343"/>
        <path id="Fill_265" data-name="Fill 265" d="M24.329.971A145.74,145.74,0,0,1,1.482,20c-3.465,2.329-.224,8.071,3.267,5.724A154.261,154.261,0,0,0,28.9,5.661c2.953-3.013-1.623-7.7-4.576-4.69" transform="matrix(0.545, -0.839, 0.839, 0.545, 1501.161, 564.686)" fill="#434343"/>
        <path id="Fill_267" data-name="Fill 267" d="M.394,5.031C10.705,25.5,30.709,38.125,53.022,38.52c4.147.075,4.156-6.58.009-6.654-20.139-.357-37.8-11.8-47.071-30.2C4.046-2.13-1.518,1.238.394,5.031" transform="translate(603.939 524.632)" fill="#434343"/>
        <path id="Fill_269" data-name="Fill 269" d="M6.007,14.366a21.855,21.855,0,0,1,9.449-7.73C19.173,5.085,17.564-1.324,13.8.245A29.555,29.555,0,0,0,.592,11.027c-2.386,3.455,3.053,6.76,5.414,3.339" transform="translate(434.728 433.737)" fill="#434343"/>
        <path id="Fill_275" data-name="Fill 275" d="M4.951,60.74,85.5,20.541c6.692-3.34,13.657-7.795,20.71-10.336,3.8-1.369,10.357-4.209,14.2-.849,2.093,1.83,4.014,10.145,5.089,13.408a191.819,191.819,0,0,1,9.119,45.442c1.144,15.055,1.622,31.1-5.274,44.966-6.482,13.035-16.825,24.714-26.81,35.195-19.438,20.4-42,37.468-64.451,54.392-3.317,2.5-.071,8.147,3.288,5.612,26.414-19.908,53.216-40.026,74.73-65.341,9.993-11.756,20.4-24.8,23.877-40.108,3.427-15.066,1.964-31.808-.123-46.927-2.159-15.663-5.668-32.462-12.41-46.869-4.039-8.633-9.38-11.135-18.37-7.532-17.85,7.149-34.97,17.377-52.181,25.967L1.661,55.125C-2.1,57,1.2,62.614,4.951,60.74" transform="translate(0 717.269)" fill="#434343"/>
        <path id="Fill_278" data-name="Fill 278" d="M.089,4.088A657.533,657.533,0,0,1,15.813,135.61c.078,4.2,6.76,4.206,6.683-.009A666.369,666.369,0,0,0,6.536,2.341C5.619-1.763-.828-.019.089,4.088" transform="translate(89.591 728.954)" fill="#434343"/>
        <path id="Fill_280" data-name="Fill 280" d="M.336,4.969C15.492,37.682,20.775,75.017,28.567,110.045c.908,4.083,7.114,2.346,6.205-1.74C26.835,72.633,21.328,34.992,5.895,1.674,4.14-2.114-1.411,1.2.336,4.969" transform="translate(56.172 774.399)" fill="#434343"/>
      </g>
      <g id="Group_25" data-name="Group 25" transform="matrix(0.105, 0.995, -0.995, 0.105, 1663.47, 1217.69)">
        <g id="Group_24" data-name="Group 24" transform="translate(0 0)">
          <path id="Fill_4-2" data-name="Fill 4" d="M6.216,125.077c17.5-11.83,29.41-29.629,34.669-50.078,6.679-25.966-3.007-48.206-12.24-72.134C26.693-2.2,18.467,0,20.445,5.131c8.062,20.892,17.946,41.359,13.025,64.3-4.189,19.52-14.932,37.053-31.546,48.285-4.511,3.052-.261,10.437,4.293,7.358" transform="translate(85.496 166.372)" fill="#434343"/>
          <path id="Fill_6-2" data-name="Fill 6" d="M62.464.23C30.616,10.585,6.4,37.058,1.136,70.568c-4.776,30.454,4.883,68.014,40.945,69.545,5.472.232,5.461-8.29,0-8.521C7.738,130.133,4.2,87.484,11.84,61.6c7.548-25.575,27.8-45,52.885-53.153C69.91,6.761,67.692-1.47,62.464.23" transform="translate(20.609 160.531)" fill="#434343"/>
          <path id="Fill_8-2" data-name="Fill 8" d="M7.759,165.779Q44.077,84.826,85.675,6.428c2.57-4.84-4.769-9.151-7.343-4.3Q36.747,80.495.416,161.477c-2.225,4.963,5.1,9.3,7.343,4.3" transform="translate(82.227 0)" fill="#434343"/>
          <path id="Fill_11" data-name="Fill 11" d="M8.021,139.876C35.488,96.313,62.081,52.124,85.9,6.439c2.531-4.856-4.806-9.169-7.343-4.3C54.738,47.823,28.144,92.011.678,135.574c-2.932,4.652,4.425,8.93,7.343,4.3" transform="translate(105.691 32.646)" fill="#434343"/>
          <path id="Fill_13" data-name="Fill 13" d="M43.222.07c-34.708,8.8-56.784,54.211-33.8,84.345,1.531,2.006,4.978.027,3.427-2.006C-8.579,54.313,11.862,12.122,44.277,3.9,46.751,3.276,45.7-.56,43.222.07" transform="translate(39.713 184.84)" fill="#434343"/>
          <path id="Fill_15" data-name="Fill 15" d="M1.4,5.357A20.147,20.147,0,0,0,16.479,3.684c2.259-1.2.256-4.633-2-3.434A15.961,15.961,0,0,1,2.456,1.523C-.009.837-1.059,4.67,1.4,5.357" transform="translate(59.759 274.26)" fill="#434343"/>
          <path id="Fill_17" data-name="Fill 17" d="M2.966,10.956A16.4,16.4,0,0,0,10.146,2.4c.907-2.4-2.928-3.431-3.828-1.059A12.1,12.1,0,0,1,.964,7.523c-2.213,1.275-.218,4.713,2,3.434" transform="translate(84.553 260.064)" fill="#434343"/>
          <path id="Fill_22-2" data-name="Fill 22" d="M45.714.429A106.214,106.214,0,0,0,.175,56.636c-1.216,3.454,4.261,4.94,5.468,1.509A100.032,100.032,0,0,1,48.576,5.335c3.116-1.891.27-6.806-2.862-4.906" transform="translate(0 150.16)" fill="#434343"/>
        </g>
      </g>
      <g id="Group_27" data-name="Group 27" transform="translate(594.677 406.543)">
        <path id="Fill_4-3" data-name="Fill 4" d="M.822,6.724C30.032,48.939,58.021,92,86.163,134.937c3.243,4.949,11.217.323,7.949-4.666C65.971,87.336,37.981,44.273,8.771,2.058,5.415-2.793-2.569,1.821.822,6.724" transform="translate(0 0)" fill="#434343"/>
        <path id="Fill_6-3" data-name="Fill 6" d="M.75,6.715Q34.5,59,67.043,112.06c3.062,4.989,10.886.4,7.809-4.613Q42.3,54.39,8.557,2.1C5.389-2.8-2.442,1.77.75,6.715" transform="translate(33.385 10.543)" fill="#434343"/>
        <path id="Fill_8-3" data-name="Fill 8" d="M27.039,1.137C14.089,12.055,1.156,24.353.082,42.436-1.05,61.511,9.783,79.347,18.868,95.17A670.04,670.04,0,0,0,92.549,198.811c3.848,4.467,10.256-2.05,6.43-6.492a658.292,658.292,0,0,1-63.228-86.534C26.673,90.921,15.77,74.939,11.107,57.968,4.934,35.494,17.452,21.133,33.47,7.632c4.5-3.791-1.966-10.259-6.43-6.495" transform="translate(57.985 130.026)" fill="#434343"/>
        <path id="Fill_10-2" data-name="Fill 10" d="M7.885,17.66c6.605-6.581,19.085-7.6,27.864-8.038,11.295-.565,19.088,2.684,26.409,11.3,12.438,14.636,23.637,30.7,35,46.185,21.975,29.938,42.587,60.838,59.494,93.973,2.7,5.3,10.663.624,7.963-4.669C142.95,113.95,115.152,75.287,86.4,37.432,75.725,23.368,65.473,4.016,46.533.829,32.712-1.5,11.707.814,1.364,11.119c-4.215,4.2,2.3,10.742,6.522,6.541" transform="translate(100.155 105.427)" fill="#434343"/>
        <path id="Fill_12-2" data-name="Fill 12" d="M6.842,71.344C41.368,50.488,74.158,26.88,110.138,8.425c5.271-2.7.61-10.569-4.657-7.869C69.5,19.011,36.712,42.618,2.185,63.475c-5.055,3.055-.428,10.941,4.657,7.869" transform="translate(152.868 260.052)" fill="#434343"/>
        <path id="Fill_15-2" data-name="Fill 15" d="M92.6,122.03C64.882,80.94,33.529,42.475,5.816,1.385c-2.194-3.25-7.5-.186-5.287,3.1C28.245,45.571,59.6,84.036,87.311,125.126c2.194,3.253,7.5.186,5.287-3.1" transform="translate(112.455 144.083)" fill="#434343"/>
        <path id="Fill_17-2" data-name="Fill 17" d="M6.852.086C-13.88,4.72,18.559,49.757,23.688,57.211c18.627,27.078,41.069,51.377,57.258,80.1a3.171,3.171,0,0,0,3.491,1.412,43.7,43.7,0,0,0,10.652-3.953c3.531-1.824.408-7.126-3.123-5.3-8.969,4.633-9.239-1.719-13.76-8.722-3.558-5.517-7.339-10.892-11.216-16.191-7.4-10.1-15.21-19.9-22.828-29.833C39.712,68.919-2.6,8.486,8.5,6.006c3.88-.869,2.239-6.787-1.645-5.92" transform="translate(107.184 144.083)" fill="#434343"/>
        <path id="Fill_19" data-name="Fill 19" d="M.313,4.635c20.918,44.9,58.855,79.146,80.165,123.829,1.683,3.531,6.972.452,5.3-3.065C64.464,80.718,26.527,46.474,5.609,1.57c-1.651-3.543-6.94-.464-5.3,3.065" transform="translate(91.37 163.411)" fill="#434343"/>
        <path id="Fill_21" data-name="Fill 21" d="M2.972,1.605C-8.556,28.327,16.116,58.937,31.434,78.675c11.007,14.181,22.457,28.014,33.722,41.984,4.676,5.8,13.9,21.724,23.178,14.591,3.058-2.352.058-7.691-3.044-5.307-5.646,4.338-43.6-47.944-48.31-53.977C23.522,58.735-2,28.3,8.179,4.707c1.546-3.586-3.646-6.718-5.207-3.1" transform="translate(86.098 161.654)" fill="#434343"/>
        <path id="Fill_23" data-name="Fill 23" d="M.532,4.472q43.14,63.521,90.181,124.274c2.383,3.077,7.731.034,5.316-3.089Q49,64.922,5.848,1.383C3.642-1.862-1.693,1.2.532,4.472" transform="translate(126.512 135.297)" fill="#434343"/>
        <path id="Fill_25" data-name="Fill 25" d="M4.509,8.334C20.623-1.273,32.085,23.7,39.023,34.2q9.369,14.183,18.743,28.368L97.93,123.361c2.159,3.267,7.4.194,5.221-3.1L46.921,35.149C37.567,20.993,22.821-9.711,1.457,3.026c-3.354,2-.314,7.314,3.052,5.308" transform="translate(126.512 133.54)" fill="#434343"/>
      </g>
    </g>
    <path id="GrubShoots" d="M131.285,73.78l-.217-.434a5.285,5.285,0,0,1,6.727-6.293q2.821.868,3.472,4.34.868,3.689-1.41,5.642a5.091,5.091,0,0,1-5.1,1.085Q131.936,77.252,131.285,73.78Zm-4.991-9.331q-5.208-5.208-14-7.053a35.99,35.99,0,0,0-15.95-.109,5.189,5.189,0,0,1-3.906-.651,5.13,5.13,0,0,1-2.279-3.255,4.617,4.617,0,0,1,.651-3.906,5.137,5.137,0,0,1,3.364-2.17,47.416,47.416,0,0,1,21.375.108,36.416,36.416,0,0,1,18.12,9.657,5.217,5.217,0,0,1-7.378,7.378Zm50.778-197.036Q151.9-118.482,130.851-89.621q1.3.434,5.859,1.736,12.152,3.472,18.445,5.208T172.3-78.988a106.423,106.423,0,0,0,18.337,1.953,91.093,91.093,0,0,0,16.709-1.736,71.532,71.532,0,0,0,17.468-5.642q14.756-7.378,19.856-18.553t-1.411-22.459a29.909,29.909,0,0,0-10.416-10.416,39.629,39.629,0,0,0-14.973-5.751,52.1,52.1,0,0,0-18.988.76A77.158,77.158,0,0,0,177.072-132.587ZM114.359-83.545q-37.324-9.548-62.93-3.689a5.236,5.236,0,0,1-4.015-.76,4.98,4.98,0,0,1-2.278-3.255,5.3,5.3,0,0,1,.651-3.906,4.662,4.662,0,0,1,3.255-2.279,116.2,116.2,0,0,1,18.119-2.5,112.27,112.27,0,0,1,18.445.434q9.222.977,17.252,2.6t17.577,4.232q22.785-32.984,51.646-48.825a84.081,84.081,0,0,1,25.5-9.548q12.694-2.387,22.677-.542a51.489,51.489,0,0,1,18.011,6.835,41.462,41.462,0,0,1,13.78,13.888,34.7,34.7,0,0,1,5.1,18.228A35.476,35.476,0,0,1,250.2-91.9q-6.944,9.874-20.832,16.818a98.038,98.038,0,0,1-15.624,5.859,67.358,67.358,0,0,1-16.383,2.387q-8.572.217-15.3-.217a111.4,111.4,0,0,1-16.492-2.6q-9.765-2.17-15.407-3.689T133.889-77.9q-6.076-1.736-9.114-2.821-2.17,3.689-4.34,7.161-9.982,17.143-14,32.875t-2.821,27.559a50.034,50.034,0,0,0,6.835,21.158,44.713,44.713,0,0,0,10.633,12.152A46.393,46.393,0,0,0,135.3,27.993a63.751,63.751,0,0,0,16.6,3.146,54.189,54.189,0,0,0,18.119-2.061A95.341,95.341,0,0,0,188.356,21.7,72.825,72.825,0,0,0,205.933,8.463a125.454,125.454,0,0,0,15.624-19.2,122.708,122.708,0,0,0,12.695-25.823,187.319,187.319,0,0,0,8.572-32.658,5.137,5.137,0,0,1,2.17-3.364,5.079,5.079,0,0,1,3.8-.868,5.064,5.064,0,0,1,3.363,2.062,4.343,4.343,0,0,1,.868,3.689A482.2,482.2,0,0,1,239.568-3.472q-8.463,29.512-18.445,50.778a227.792,227.792,0,0,1-22.134,37.866q-12.152,16.6-24.2,26.908a116.7,116.7,0,0,1-25.063,16.6,84.081,84.081,0,0,1-35.046,8.9,64.188,64.188,0,0,1-33.309-8.246,46.434,46.434,0,0,1-18.228-18.987A41.021,41.021,0,0,1,59.241,84.63a46.813,46.813,0,0,1,6.4-16.818A45.611,45.611,0,0,1,77.686,54.684a5.023,5.023,0,0,1,3.906-.976,4.756,4.756,0,0,1,3.364,2.061,5.19,5.19,0,0,1-1.194,7.161A37.57,37.57,0,0,0,70.633,81.158a31.554,31.554,0,0,0,.543,21.7q4.123,10.85,15.407,17.577a55.485,55.485,0,0,0,28.536,6.618,75.518,75.518,0,0,0,30.054-7.7q24.955-12.152,46.872-42.1T228.5-2.6q-19.747,29.295-48.825,39.711a89.792,89.792,0,0,1-29.729,4.34,59.364,59.364,0,0,1-27.667-7.812,54.485,54.485,0,0,1-20.724-20.4,60.856,60.856,0,0,1-8.138-24.3q-1.628-13.454,2.713-31.14t15.407-36.564Q112.84-81.158,114.359-83.545Zm-76.167.217A103.422,103.422,0,0,0,19.53-73.78a5.64,5.64,0,0,1-4.014.651,4.98,4.98,0,0,1-3.255-2.279,4.7,4.7,0,0,1-.651-3.906,5.094,5.094,0,0,1,2.278-3.147A110.382,110.382,0,0,1,34.5-92.876a4.611,4.611,0,0,1,3.906,0,4.565,4.565,0,0,1,2.6,2.821,5.554,5.554,0,0,1,.434,2.062,4.774,4.774,0,0,1-.434,1.953,4.532,4.532,0,0,1-1.194,1.627A7.975,7.975,0,0,1,38.192-83.328ZM9.114-66.4l-.434.434a5.4,5.4,0,0,1-3.906,1.085A4.754,4.754,0,0,1,1.3-66.836a5.225,5.225,0,0,1-1.085-3.8A5.415,5.415,0,0,1,2.17-74.214l.434-.217Q7.161-78.12,10.416-74q2.821,3.906-.434,6.944l-.434.434Zm266.693-1.953-7.378,23a4.948,4.948,0,0,1-2.6,3.146,5.177,5.177,0,0,1-4.014.326,4.936,4.936,0,0,1-3.038-2.6,4.938,4.938,0,0,1-.326-3.906l11.718-35.588q1.085-3.906,5.208-3.58a4.781,4.781,0,0,1,4.774,4.449q1.3,7.378,6.944,10.741t13.237,2.062a24.25,24.25,0,0,0,4.774-1.3,8.7,8.7,0,0,1,4.774-.651,5.345,5.345,0,0,1,3.038,2.6,4.689,4.689,0,0,1,.434,3.906l-5.425,18.228q-9.331,34.5-.217,36.89,3.689,1.085,8.68-8.68,4.34-7.812,10.85-28.21a5.28,5.28,0,0,1,1.519-2.278A4.681,4.681,0,0,1,331.142-51a7.866,7.866,0,0,1,2.6,0,4.948,4.948,0,0,1,3.146,2.6,4.938,4.938,0,0,1,.326,3.906Q330.274-23.219,325.5-14.322,316.6,2.6,304.885-.434a14.307,14.307,0,0,1-7.378-4.774,17.457,17.457,0,0,1-3.581-8.68,63.79,63.79,0,0,1-.651-10.524,69.663,69.663,0,0,1,1.519-12.261q1.411-6.944,2.712-11.935t3.038-11.284Q284.921-57.722,275.807-68.355ZM366.513-10.2Q360.22-2.6,352.3-.326T335.048-1.953q-9.982-4.774-12.586-14.973-2.387-8.9,1.736-20.4,1.085-3.038,10.85-33.2a4.948,4.948,0,0,1,2.6-3.146A5.177,5.177,0,0,1,341.667-74a4.936,4.936,0,0,1,3.038,2.6,4.938,4.938,0,0,1,.326,3.906L333.1-30.814a24.514,24.514,0,0,0-.651,11.5q1.519,6.076,8.68,8.463,13.454,4.991,22.568-14.539.651-1.736,1.3-3.8a22.166,22.166,0,0,0,.868-3.689q.217-1.627.651-4.123a40.347,40.347,0,0,1,.868-4.014q1.953-8.9,5.859-22.134l2.387-6.944a4.279,4.279,0,0,1,2.387-3.146,5.177,5.177,0,0,1,4.014-.326,5,5,0,0,1,3.038,2.5,5.124,5.124,0,0,1,.326,4.015q-8.68,28.427-9.982,40.362a38.89,38.89,0,0,0,.217,11.067q.868,4.34,3.689,4.991,3.689,1.085,8.9-8.68,4.123-7.812,10.85-28.21a5.755,5.755,0,0,1,1.411-2.278A4.118,4.118,0,0,1,402.752-51a9.209,9.209,0,0,1,2.821,0,4.938,4.938,0,0,1,2.93,2.6,4.938,4.938,0,0,1,.326,3.906q-6.727,21.266-11.5,30.163Q388.213,2.6,376.712-.434A14.447,14.447,0,0,1,366.513-10.2ZM432.7-117.18,420.546-79.856A113.029,113.029,0,0,0,434-92.442a79.179,79.179,0,0,0,9.331-12.369,65.413,65.413,0,0,0,5.317-10.958,39.581,39.581,0,0,0,2.279-9.874q.651-7.378-1.953-10.85a2.761,2.761,0,0,0-3.472-.868Q438.34-134.54,432.7-117.18Zm11.935,86.8a43.511,43.511,0,0,0,3.038-7.812,4.874,4.874,0,0,0-3.147,2.387,4.48,4.48,0,0,0-.543,3.906A4.823,4.823,0,0,0,444.633-30.38Zm-8.9,12.369q1.3-1.519,2.821-3.038a16.954,16.954,0,0,1-5.1-11.718,15.793,15.793,0,0,1,5.1-11.718,14.934,14.934,0,0,1,10.633-4.34q-.434-9.114-7.161-12.8-10.416-6.076-22.351,5.642A46.685,46.685,0,0,0,407.309-34.5q-4.123,16.275,6.184,22.243T435.736-18.011Zm-36.89,4.774-3.255,10.2a4.938,4.938,0,0,1-2.6,2.93,5.177,5.177,0,0,1-4.014.326,4.936,4.936,0,0,1-3.038-2.6,4.938,4.938,0,0,1-.326-3.906l37.324-114.142q7.595-23.436,20.4-27.342,9.114-2.821,14.539,6.076,4.34,6.727,3.472,16.926-1.085,11.5-9.005,24.955T428.792-73.129a23.5,23.5,0,0,1,18.445,2.387A23.221,23.221,0,0,1,457.545-58.59a31.649,31.649,0,0,1,1.736,15.95A56.363,56.363,0,0,1,454.4-26.691q6.51-2.17,9.548-9.982l3.689-11.284a4.938,4.938,0,0,1,2.6-2.929,5.177,5.177,0,0,1,4.014-.326,4.936,4.936,0,0,1,3.038,2.6,4.938,4.938,0,0,1,.326,3.906l-4.123,11.5A26.676,26.676,0,0,1,463.078-19.53a20.006,20.006,0,0,1-15.407,3.472A46.91,46.91,0,0,1,436.5-5.425,34,34,0,0,1,422.825-.109a21.154,21.154,0,0,1-14.648-3.147A22.978,22.978,0,0,1,398.846-13.237Zm69.44,58.373v-.651a4.673,4.673,0,0,1,1.953-4.774,5.208,5.208,0,0,1,5.1-.759q2.712.976,3.255,4.665t-1.845,5.425a5.208,5.208,0,0,1-5.1.759A4.752,4.752,0,0,1,468.5,45.57Zm-1.3-14.322q-.651-21.917,6.51-40.145a5.319,5.319,0,0,1,2.821-3.038,4.611,4.611,0,0,1,3.906,0,4.582,4.582,0,0,1,2.17,1.519,5.185,5.185,0,0,1,1.085,2.5,5.712,5.712,0,0,1-.217,2.713A89.669,89.669,0,0,0,477.4,30.6a5.225,5.225,0,0,1-1.41,3.689,5.038,5.038,0,0,1-3.581,1.627,4.669,4.669,0,0,1-3.689-1.41A5.893,5.893,0,0,1,466.984,30.814ZM638.2-134.323a42.4,42.4,0,0,0-15.407-6.618,35.033,35.033,0,0,0-14.756-.109,38.525,38.525,0,0,0-12.695,5.425,28.3,28.3,0,0,0-9.331,9.873,39.921,39.921,0,0,0-4.557,13.346,34.112,34.112,0,0,0,1.628,16.058q3.038,10.416,11.5,21.266,4.123,0,8.029.217,51.212,3.906,53.382-28.861Q657.293-121.954,638.2-134.323ZM517.762-12.152A66.759,66.759,0,0,1,534.8-27.234a57.626,57.626,0,0,1,18.771-7.6,54.53,54.53,0,0,1,18.771-.434A50.305,50.305,0,0,1,589.7-29.4a54.18,54.18,0,0,1,14.214,11.61,46.841,46.841,0,0,1,9.331,16.275,4.371,4.371,0,0,1-.108,3.906A5.344,5.344,0,0,1,610.1,5.1a4.6,4.6,0,0,1-3.906-.217,5.948,5.948,0,0,1-2.713-2.93,38.989,38.989,0,0,0-12.911-18.12,43.714,43.714,0,0,0-19.964-8.9q-10.958-1.844-23.219,3.038A52.983,52.983,0,0,0,525.791-5.642,62.182,62.182,0,0,0,514.4,15.733a45.171,45.171,0,0,0-1.411,20.615,52.618,52.618,0,0,0,7.161,18.445,57.836,57.836,0,0,0,13.563,15.19A71.635,71.635,0,0,0,572.88,84.847,58.633,58.633,0,0,0,594.8,81.809a66.716,66.716,0,0,0,21.049-11.5A66.1,66.1,0,0,0,639.5,29.078q3.906-24.3-9.548-48.174a81.093,81.093,0,0,0-8.571-12.26q-5.317-6.4-10.091-11.176T600.114-53.816q-6.4-6.51-10.307-11.067a154.117,154.117,0,0,0-56.095,10.742q-26.583,10.525-41.772,32.008a4.749,4.749,0,0,1-3.255,2.17,4.7,4.7,0,0,1-3.906-.868,5.508,5.508,0,0,1-2.17-3.364,4.519,4.519,0,0,1,.868-3.8q15.624-22.351,41.99-33.961a158.865,158.865,0,0,1,56.529-13.128q-16.709-24.521-8.68-47.74a41.365,41.365,0,0,1,15.3-20.723,44.805,44.805,0,0,1,24.63-8.572q15.841-.434,30.6,9.114a52.216,52.216,0,0,1,17.469,17.685,38.373,38.373,0,0,1,5.1,22.46,40.174,40.174,0,0,1-4.774,17.143,34.1,34.1,0,0,1-10.2,11.61,50.436,50.436,0,0,1-14.322,6.727,72.835,72.835,0,0,1-16.058,3.038,141.912,141.912,0,0,1-16.709.109l9.114,9.114q6.727,6.727,9.982,10.2t7.92,9.331a77.84,77.84,0,0,1,7.7,11.5A85.953,85.953,0,0,1,648.721.977a81.37,81.37,0,0,1,1.628,24.413,77.909,77.909,0,0,1-5.534,22.351,75.531,75.531,0,0,1-27.667,34.395A75.66,75.66,0,0,1,597.292,91.9a73.723,73.723,0,0,1-22.568,3.363,71.129,71.129,0,0,1-23.761-4.123,77.927,77.927,0,0,1-28.1-16.817,64.628,64.628,0,0,1-17.469-26.366,51.127,51.127,0,0,1-3.147-14.214,60.893,60.893,0,0,1,.76-14.865A61.341,61.341,0,0,1,508,3.364,76.825,76.825,0,0,1,517.762-12.152ZM616.28,15.841a42.368,42.368,0,0,1-7.6,25.389A31.54,31.54,0,0,1,587.636,54.9a5.687,5.687,0,0,1-3.8-.977,4.662,4.662,0,0,1-2.17-3.363,5.273,5.273,0,0,1,.868-3.906,5.136,5.136,0,0,1,3.364-2.17,21.047,21.047,0,0,0,14.756-9.874,32.43,32.43,0,0,0,5.208-18.77,5.186,5.186,0,0,1,5.208-5.208,5.572,5.572,0,0,1,2.712.651,4.53,4.53,0,0,1,1.845,1.845A5.573,5.573,0,0,1,616.28,15.841ZM704.165-117.18,692.013-79.856q14.756-11.935,22.026-23.87t8.354-21.917q.651-7.378-2.17-10.85a2.45,2.45,0,0,0-3.255-.868Q709.807-134.54,704.165-117.18ZM677.691-36.022,667.058-3.255a4.938,4.938,0,0,1-2.6,2.93A5.177,5.177,0,0,1,660.44,0,4.936,4.936,0,0,1,657.4-2.6a4.937,4.937,0,0,1-.326-3.906L694.4-120.435q7.6-23.436,20.181-27.342,9.114-2.821,14.756,6.076,4.123,6.727,3.255,16.926a53.015,53.015,0,0,1-3.8,14.973,81.161,81.161,0,0,1-10.2,17.36A111.88,111.88,0,0,1,701.127-74a24.575,24.575,0,0,1,7.812,1.3,36.037,36.037,0,0,1,4.123,1.953A23.1,23.1,0,0,1,724.78-54.467,37.053,37.053,0,0,1,723.7-35.588a38.979,38.979,0,0,1-1.953,5.859q-4.123,11.284-1.085,17.143,1.3,2.821,3.472,2.387a8.71,8.71,0,0,0,4.232-2.387,20.361,20.361,0,0,0,3.581-4.557q4.774-8.029,12.369-30.6a5.016,5.016,0,0,1,2.5-3.146,4.889,4.889,0,0,1,3.906-.326,4.936,4.936,0,0,1,3.038,2.6,5.421,5.421,0,0,1,.326,4.123q-7.812,23.653-13.237,32.55a27.4,27.4,0,0,1-9.114,9.657Q726.516.868,722.068,0a16.085,16.085,0,0,1-8.029-4.232q-3.581-3.363-4.449-9.982A42.776,42.776,0,0,1,710.675-29.3a53.224,53.224,0,0,1,1.736-5.642q1.3-3.689,1.736-5.425T715.123-46A13.366,13.366,0,0,0,714.8-52.3a13.957,13.957,0,0,0-6.944-9.331q0-.217-.977-.651a17.339,17.339,0,0,0-2.062-.76,17.855,17.855,0,0,0-2.712-.542,9.593,9.593,0,0,0-3.689.326,13.354,13.354,0,0,0-4.015,1.844,30.934,30.934,0,0,0-9.982,10.633A67.427,67.427,0,0,0,677.691-36.022Zm113.274-1.3q-3.038,2.17-2.17,5.425A52.947,52.947,0,0,0,790.965-37.324ZM779.03-18.011a22.362,22.362,0,0,0,3.472-3.906,16.565,16.565,0,0,1-4.232-11.5,14.792,14.792,0,0,1,5.1-11.067,14.25,14.25,0,0,1,9.114-4.34q-.434-9.114-7.161-12.8-10.2-6.076-22.134,5.642A44.3,44.3,0,0,0,750.82-34.5q-4.34,16.275,5.968,22.243T779.03-18.011Zm11.5-52.731a22.929,22.929,0,0,1,10.525,12.369,31.8,31.8,0,0,1,1.628,16.167,54.942,54.942,0,0,1-5.208,15.95,12.808,12.808,0,0,0,6.727-3.58,18.915,18.915,0,0,0,4.557-6.836l3.689-11.284a4.938,4.938,0,0,1,2.6-2.929,5.177,5.177,0,0,1,4.015-.326,4.935,4.935,0,0,1,3.038,2.6,4.938,4.938,0,0,1,.326,3.906l-3.906,11.5A28.279,28.279,0,0,1,807.349-19.1,19.241,19.241,0,0,1,791.4-16.275a48.622,48.622,0,0,1-11.393,10.85A33.995,33.995,0,0,1,766.336-.109a21.154,21.154,0,0,1-14.648-3.147,22.679,22.679,0,0,1-10.85-13.563,34.984,34.984,0,0,1-.76-17.469,61.175,61.175,0,0,1,6.4-16.926,52.057,52.057,0,0,1,19.964-19.856Q778.6-77.686,790.531-70.742ZM859.32-37.324q-3.038,2.17-2.17,5.425A52.947,52.947,0,0,0,859.32-37.324ZM847.385-18.011a22.362,22.362,0,0,0,3.472-3.906,16.565,16.565,0,0,1-4.232-11.5,14.792,14.792,0,0,1,5.1-11.067,14.25,14.25,0,0,1,9.114-4.34q-.434-9.114-7.161-12.8-10.2-6.076-22.134,5.642A44.3,44.3,0,0,0,819.175-34.5q-4.34,16.275,5.968,22.243T847.385-18.011Zm11.5-52.731a22.929,22.929,0,0,1,10.525,12.369,31.8,31.8,0,0,1,1.628,16.167,54.942,54.942,0,0,1-5.208,15.95,12.808,12.808,0,0,0,6.727-3.58,18.915,18.915,0,0,0,4.557-6.836L880.8-47.957a4.938,4.938,0,0,1,2.6-2.929,5.177,5.177,0,0,1,4.015-.326,4.935,4.935,0,0,1,3.038,2.6,4.938,4.938,0,0,1,.326,3.906l-3.906,11.5A28.279,28.279,0,0,1,875.7-19.1a19.241,19.241,0,0,1-15.949,2.821,48.622,48.622,0,0,1-11.393,10.85A33.995,33.995,0,0,1,834.69-.109a21.154,21.154,0,0,1-14.648-3.147,22.679,22.679,0,0,1-10.85-13.563,34.984,34.984,0,0,1-.76-17.469,61.175,61.175,0,0,1,6.4-16.926A52.057,52.057,0,0,1,834.8-71.068Q846.951-77.686,858.886-70.742Zm36.89-22.568,8.463-25.606a5.281,5.281,0,0,1,1.519-2.279,4.681,4.681,0,0,1,2.387-1.193,5.343,5.343,0,0,1,2.6.217,5,5,0,0,1,2.93,2.5,5.124,5.124,0,0,1,.326,4.014L906.843-93.31h8.463a5.023,5.023,0,0,1,3.689,1.519,5.023,5.023,0,0,1,1.519,3.689,5.023,5.023,0,0,1-1.519,3.689,5.022,5.022,0,0,1-3.689,1.519H903.371Q894.04-54.25,891.436-44.919q-8.463,32.333.434,34.72,2.6.651,5.208-2.278a34.265,34.265,0,0,0,5.208-8.9q2.6-5.967,4.015-9.765t3.364-9.657q.434-1.519.651-2.17l1.519-4.774a4.582,4.582,0,0,1,1.519-2.17A6.188,6.188,0,0,1,915.74-51.1a4.57,4.57,0,0,1,2.6.108,4.948,4.948,0,0,1,3.146,2.6,4.371,4.371,0,0,1,.109,3.906q-8.68,27.342-14.105,35.371Q899.682,2.6,889.266-.217q-19.1-5.208-7.812-47.306,1.3-5.208,3.689-12.586.217-1.085,7.378-22.785h-8.68a5.142,5.142,0,0,1-3.581-1.519,4.859,4.859,0,0,1-1.628-3.689,4.859,4.859,0,0,1,1.628-3.689,5.142,5.142,0,0,1,3.581-1.519Zm27.559,60.76a5.064,5.064,0,0,1,3.363-2.061,4.845,4.845,0,0,1,3.8.976,5.064,5.064,0,0,1,2.061,3.364,4.845,4.845,0,0,1-.977,3.8,12.614,12.614,0,0,0-2.17,10.959A11.127,11.127,0,0,0,936.464-7.6q5.534,2.17,14-.868a21.33,21.33,0,0,0,11.5-11.5q3.472-8.029-1.3-13.671a45,45,0,0,0-3.689-3.255q-2.17-1.736-3.906-2.93t-4.449-3.038Q945.9-44.7,944.384-45.57q-12.152-8.68-9.765-21.049-7.161,7.812-12.586,21.483a4.247,4.247,0,0,1-2.713,2.929,5.494,5.494,0,0,1-4.014,0,4.951,4.951,0,0,1-2.821-2.712,4.611,4.611,0,0,1,0-3.906Q922.9-75.516,939.61-82.894a28.677,28.677,0,0,1,9.548-2.6,37.411,37.411,0,0,1,8.9-.217,20.826,20.826,0,0,1,12.586,4.123,5.064,5.064,0,0,1,2.062,3.364,4.845,4.845,0,0,1-.977,3.8,5.13,5.13,0,0,1-3.472,2.062,5.023,5.023,0,0,1-3.906-.977Q958.923-77.035,952.63-74t-7.595,8.9q-1.519,6.076,5.425,11.067,1.085.651,5.75,3.8t6.727,4.666a38.585,38.585,0,0,1,4.991,4.666,21.967,21.967,0,0,1,4.232,6.184q3.038,6.944.651,15.407a52.6,52.6,0,0,0,6.618-9.331A66.1,66.1,0,0,0,983.552-37q1.193-3.146,3.581-10.525a5,5,0,0,1,2.5-2.93,4.888,4.888,0,0,1,3.906-.326,5,5,0,0,1,3.038,2.5,5.124,5.124,0,0,1,.326,4.014l-3.472,10.2q-7.161,19.1-21.917,29.3t-34.72,8.246a4.565,4.565,0,0,1-1.085-.109,2.445,2.445,0,0,1-.868-.434,1.443,1.443,0,0,0-.868-.326Q922.9-1.085,919.537-11.935T923.335-32.55Z" transform="translate(150.613 1268.576)" fill="#f27241" stroke="#f27241" stroke-width="0.906"/>
    <path id="great_food_deserves" data-name="great food deserves" d="M-405.4-26.765V-.848q0,6.254-3.445,9.487t-10.123,3.233a22.271,22.271,0,0,1-10.918-2.6l1.06-5.035a20.823,20.823,0,0,0,9.7,2.544q7.155,0,7.155-7.1v-5.3a9.322,9.322,0,0,1-3.551,3.525,10.272,10.272,0,0,1-5.247,1.352,11.693,11.693,0,0,1-6.227-1.67,11.23,11.23,0,0,1-4.24-4.717,15.491,15.491,0,0,1-1.51-6.97,15.491,15.491,0,0,1,1.51-6.97,11.23,11.23,0,0,1,4.24-4.717,11.693,11.693,0,0,1,6.227-1.669,10.919,10.919,0,0,1,5.273,1.246,8.558,8.558,0,0,1,3.525,3.471v-4.028ZM-419.018-5.936a6.477,6.477,0,0,0,5.167-2.173,8.848,8.848,0,0,0,1.882-5.989,8.932,8.932,0,0,0-1.855-5.989,6.459,6.459,0,0,0-5.194-2.173,6.477,6.477,0,0,0-5.168,2.173,8.848,8.848,0,0,0-1.882,5.989,8.848,8.848,0,0,0,1.882,5.989A6.477,6.477,0,0,0-419.018-5.936ZM-383.826-27.4a7.444,7.444,0,0,1,2.65.424l-.053,6.042a9.212,9.212,0,0,0-3.5-.689,6.615,6.615,0,0,0-5.167,1.961,7.442,7.442,0,0,0-1.776,5.194V0h-6.572V-19.186a60.678,60.678,0,0,0-.424-7.579h6.2l.53,4.717a7.955,7.955,0,0,1,3.18-3.975A9.008,9.008,0,0,1-383.826-27.4Zm29.256,14.363h-18.444q.212,4.293,2.147,6.333a7.56,7.56,0,0,0,5.75,2.041,13.207,13.207,0,0,0,8.162-2.862l1.908,4.558A14.921,14.921,0,0,1-359.737-.5a17.743,17.743,0,0,1-5.645.928q-6.572,0-10.335-3.71t-3.763-10.176a15.591,15.591,0,0,1,1.643-7.261,12.13,12.13,0,0,1,4.611-4.955,12.856,12.856,0,0,1,6.731-1.775,11.118,11.118,0,0,1,8.718,3.577q3.206,3.578,3.207,9.832Zm-11.766-9.646a6.065,6.065,0,0,0-4.32,1.564,7.657,7.657,0,0,0-2.146,4.531h12.455a7.413,7.413,0,0,0-1.828-4.558A5.567,5.567,0,0,0-366.336-22.684Zm42.983-4.081V0h-6.519V-4.293a8.6,8.6,0,0,1-3.5,3.472A10.653,10.653,0,0,1-338.564.424a11.42,11.42,0,0,1-6.2-1.7A11.2,11.2,0,0,1-348.952-6.1a16.759,16.759,0,0,1-1.484-7.261,17.033,17.033,0,0,1,1.51-7.341,11.825,11.825,0,0,1,4.214-4.982,10.947,10.947,0,0,1,6.148-1.775,10.653,10.653,0,0,1,5.194,1.246,8.6,8.6,0,0,1,3.5,3.471v-4.028ZM-336.762-4.77a6.113,6.113,0,0,0,5.088-2.279,10.11,10.11,0,0,0,1.8-6.413,10.3,10.3,0,0,0-1.8-6.519,6.171,6.171,0,0,0-5.141-2.279A6.1,6.1,0,0,0-341.93-19.9a10.447,10.447,0,0,0-1.828,6.546A9.779,9.779,0,0,0-341.93-7,6.311,6.311,0,0,0-336.762-4.77Zm29.044-17.013V-9.805q0,4.717,4.4,4.717a9.373,9.373,0,0,0,2.65-.424V-.265a12.461,12.461,0,0,1-4.24.636q-4.558,0-7-2.544t-2.438-7.314v-12.3h-5.141v-4.982h5.141v-6.519l6.625-2.226v8.745h7.1v4.982Zm38.849-11.978q-4.293,0-4.293,4.717v2.279h5.989v4.982h-5.989V0h-6.625V-21.783h-5.088v-4.982h5.088v-2.6q0-4.77,2.411-7.341t6.917-2.57a12,12,0,0,1,4.187.636v5.247A10.9,10.9,0,0,0-268.869-33.761ZM-250.213.424a14.727,14.727,0,0,1-7.181-1.7,11.584,11.584,0,0,1-4.77-4.85,15.582,15.582,0,0,1-1.669-7.394,15.582,15.582,0,0,1,1.669-7.393,11.584,11.584,0,0,1,4.77-4.85,14.727,14.727,0,0,1,7.181-1.7,14.462,14.462,0,0,1,7.1,1.7,11.625,11.625,0,0,1,4.743,4.85,15.582,15.582,0,0,1,1.669,7.393,15.582,15.582,0,0,1-1.669,7.394,11.625,11.625,0,0,1-4.743,4.85A14.462,14.462,0,0,1-250.213.424Zm-.053-5.194a6.251,6.251,0,0,0,5.167-2.2q1.776-2.2,1.775-6.546,0-4.293-1.8-6.545a6.143,6.143,0,0,0-5.088-2.253,6.2,6.2,0,0,0-5.141,2.253q-1.8,2.253-1.8,6.545,0,4.346,1.775,6.546A6.19,6.19,0,0,0-250.266-4.77ZM-218.837.424a14.727,14.727,0,0,1-7.182-1.7,11.583,11.583,0,0,1-4.77-4.85,15.582,15.582,0,0,1-1.67-7.394,15.582,15.582,0,0,1,1.67-7.393,11.583,11.583,0,0,1,4.77-4.85,14.727,14.727,0,0,1,7.182-1.7,14.462,14.462,0,0,1,7.1,1.7,11.625,11.625,0,0,1,4.743,4.85,15.582,15.582,0,0,1,1.669,7.393,15.582,15.582,0,0,1-1.669,7.394,11.625,11.625,0,0,1-4.743,4.85A14.462,14.462,0,0,1-218.837.424Zm-.053-5.194a6.251,6.251,0,0,0,5.167-2.2q1.776-2.2,1.775-6.546,0-4.293-1.8-6.545a6.143,6.143,0,0,0-5.088-2.253,6.2,6.2,0,0,0-5.141,2.253q-1.8,2.253-1.8,6.545,0,4.346,1.775,6.546A6.19,6.19,0,0,0-218.89-4.77ZM-174-39.008V0h-6.519V-4.293a8.6,8.6,0,0,1-3.5,3.472A10.653,10.653,0,0,1-189.21.424a11.068,11.068,0,0,1-6.148-1.749,11.643,11.643,0,0,1-4.214-4.956,17.033,17.033,0,0,1-1.51-7.34,16.76,16.76,0,0,1,1.484-7.261,11.377,11.377,0,0,1,4.187-4.85,11.288,11.288,0,0,1,6.2-1.722,10.763,10.763,0,0,1,5.115,1.192,8.39,8.39,0,0,1,3.471,3.366V-39.008ZM-187.461-4.77a6.188,6.188,0,0,0,5.115-2.279,10.1,10.1,0,0,0,1.829-6.466,10.206,10.206,0,0,0-1.8-6.466,6.113,6.113,0,0,0-5.088-2.279,6.278,6.278,0,0,0-5.168,2.252,9.892,9.892,0,0,0-1.828,6.387A10.33,10.33,0,0,0-192.575-7.1,6.13,6.13,0,0,0-187.461-4.77Zm60.791-34.238V0h-6.519V-4.293a8.6,8.6,0,0,1-3.5,3.472A10.653,10.653,0,0,1-141.881.424a11.068,11.068,0,0,1-6.148-1.749,11.643,11.643,0,0,1-4.214-4.956,17.033,17.033,0,0,1-1.51-7.34,16.76,16.76,0,0,1,1.484-7.261,11.377,11.377,0,0,1,4.187-4.85,11.288,11.288,0,0,1,6.2-1.722,10.763,10.763,0,0,1,5.115,1.192,8.39,8.39,0,0,1,3.471,3.366V-39.008ZM-140.132-4.77a6.188,6.188,0,0,0,5.115-2.279,10.1,10.1,0,0,0,1.829-6.466,10.206,10.206,0,0,0-1.8-6.466,6.113,6.113,0,0,0-5.088-2.279,6.278,6.278,0,0,0-5.168,2.252,9.892,9.892,0,0,0-1.828,6.387A10.33,10.33,0,0,0-145.246-7.1,6.13,6.13,0,0,0-140.132-4.77Zm44.1-8.268H-114.48q.212,4.293,2.146,6.333a7.56,7.56,0,0,0,5.751,2.041,13.207,13.207,0,0,0,8.162-2.862l1.908,4.558A14.921,14.921,0,0,1-101.2-.5a17.743,17.743,0,0,1-5.645.928q-6.572,0-10.335-3.71t-3.763-10.176a15.591,15.591,0,0,1,1.643-7.261,12.13,12.13,0,0,1,4.611-4.955,12.856,12.856,0,0,1,6.731-1.775,11.118,11.118,0,0,1,8.718,3.577q3.206,3.578,3.206,9.832ZM-107.8-22.684a6.065,6.065,0,0,0-4.319,1.564,7.657,7.657,0,0,0-2.146,4.531h12.455a7.413,7.413,0,0,0-1.829-4.558A5.567,5.567,0,0,0-107.8-22.684ZM-80.613.424q-7.261,0-11.554-3.392l1.855-4.664a16.045,16.045,0,0,0,9.805,3.18,7.085,7.085,0,0,0,3.684-.8,2.482,2.482,0,0,0,1.3-2.226,2.34,2.34,0,0,0-.9-1.935A8.317,8.317,0,0,0-79.5-10.653l-4.452-1.007q-7.314-1.59-7.314-7.473a7.12,7.12,0,0,1,1.378-4.319,9.049,9.049,0,0,1,3.869-2.941,14.655,14.655,0,0,1,5.777-1.06,17.475,17.475,0,0,1,5.512.875,14.473,14.473,0,0,1,4.664,2.517l-1.961,4.505a13.8,13.8,0,0,0-8.268-2.968,6.358,6.358,0,0,0-3.551.848,2.66,2.66,0,0,0-1.272,2.332,2.367,2.367,0,0,0,.769,1.855,6.412,6.412,0,0,0,2.623,1.166l4.558,1.007a11.5,11.5,0,0,1,5.8,2.783,6.737,6.737,0,0,1,1.828,4.9A6.913,6.913,0,0,1-72.5-1.749Q-75.472.424-80.613.424Zm40.174-13.462H-58.883q.212,4.293,2.147,6.333a7.56,7.56,0,0,0,5.75,2.041,13.207,13.207,0,0,0,8.162-2.862l1.908,4.558A14.921,14.921,0,0,1-45.606-.5a17.743,17.743,0,0,1-5.645.928q-6.572,0-10.335-3.71t-3.763-10.176a15.591,15.591,0,0,1,1.643-7.261,12.13,12.13,0,0,1,4.611-4.955,12.856,12.856,0,0,1,6.731-1.775,11.118,11.118,0,0,1,8.718,3.577q3.206,3.578,3.207,9.832ZM-52.2-22.684a6.065,6.065,0,0,0-4.319,1.564,7.657,7.657,0,0,0-2.146,4.531h12.455a7.413,7.413,0,0,0-1.829-4.558A5.567,5.567,0,0,0-52.2-22.684ZM-20.4-27.4a7.444,7.444,0,0,1,2.65.424l-.053,6.042a9.212,9.212,0,0,0-3.5-.689,6.615,6.615,0,0,0-5.168,1.961,7.442,7.442,0,0,0-1.776,5.194V0h-6.572V-19.186a60.682,60.682,0,0,0-.424-7.579h6.2l.53,4.717a7.955,7.955,0,0,1,3.18-3.975A9.008,9.008,0,0,1-20.4-27.4Zm26.712.689h6.572L1.166,0H-4.611L-16.165-26.712h6.943L-1.537-7.526ZM39.273-13.038H20.829q.212,4.293,2.147,6.333a7.56,7.56,0,0,0,5.75,2.041,13.207,13.207,0,0,0,8.162-2.862L38.8-2.968A14.921,14.921,0,0,1,34.106-.5a17.743,17.743,0,0,1-5.645.928q-6.572,0-10.335-3.71T14.363-13.462a15.591,15.591,0,0,1,1.643-7.261,12.13,12.13,0,0,1,4.611-4.955,12.856,12.856,0,0,1,6.731-1.775,11.118,11.118,0,0,1,8.719,3.577q3.206,3.578,3.207,9.832ZM27.507-22.684a6.065,6.065,0,0,0-4.319,1.564,7.657,7.657,0,0,0-2.146,4.531H33.5a7.413,7.413,0,0,0-1.829-4.558A5.567,5.567,0,0,0,27.507-22.684ZM54.7.424q-7.261,0-11.554-3.392L45-7.632A16.045,16.045,0,0,0,54.8-4.452a7.085,7.085,0,0,0,3.684-.8,2.482,2.482,0,0,0,1.3-2.226,2.34,2.34,0,0,0-.9-1.935,8.317,8.317,0,0,0-3.074-1.245L51.357-11.66q-7.314-1.59-7.314-7.473a7.12,7.12,0,0,1,1.378-4.319,9.049,9.049,0,0,1,3.869-2.941,14.655,14.655,0,0,1,5.777-1.06,17.475,17.475,0,0,1,5.512.875,14.473,14.473,0,0,1,4.664,2.517l-1.961,4.505a13.8,13.8,0,0,0-8.268-2.968,6.358,6.358,0,0,0-3.551.848,2.66,2.66,0,0,0-1.272,2.332,2.367,2.367,0,0,0,.769,1.855,6.412,6.412,0,0,0,2.624,1.166l4.558,1.007a11.5,11.5,0,0,1,5.8,2.783,6.737,6.737,0,0,1,1.828,4.9,6.913,6.913,0,0,1-2.968,5.883Q59.837.424,54.7.424ZM85.966,0V-26.765h6.572V0Zm-.424-38.9h7.367v6.519H85.542Zm22.684,17.119V-9.805q0,4.717,4.4,4.717a9.373,9.373,0,0,0,2.65-.424V-.265a12.461,12.461,0,0,1-4.24.636q-4.558,0-7-2.544T101.6-9.487v-12.3H96.46v-4.982H101.6v-6.519l6.625-2.226v8.745h7.1v4.982Zm18.6-15.953v4.876a12.861,12.861,0,0,1-.954,5.062,14.632,14.632,0,0,1-3.233,4.531l-2.7-2.12a10.449,10.449,0,0,0,2.862-4.929h-3.392v-7.42ZM141.775.424q-7.261,0-11.554-3.392l1.855-4.664a16.045,16.045,0,0,0,9.8,3.18,7.085,7.085,0,0,0,3.684-.8,2.482,2.482,0,0,0,1.3-2.226,2.34,2.34,0,0,0-.9-1.935,8.317,8.317,0,0,0-3.074-1.245l-4.452-1.007q-7.314-1.59-7.314-7.473a7.12,7.12,0,0,1,1.378-4.319,9.049,9.049,0,0,1,3.869-2.941,14.655,14.655,0,0,1,5.777-1.06,17.475,17.475,0,0,1,5.512.875,14.473,14.473,0,0,1,4.664,2.517l-1.961,4.505a13.8,13.8,0,0,0-8.268-2.968,6.358,6.358,0,0,0-3.551.848,2.66,2.66,0,0,0-1.272,2.332,2.367,2.367,0,0,0,.768,1.855,6.411,6.411,0,0,0,2.624,1.166l4.558,1.007a11.5,11.5,0,0,1,5.8,2.783,6.737,6.737,0,0,1,1.828,4.9,6.913,6.913,0,0,1-2.968,5.883Q146.916.424,141.775.424Zm43.407,0A14.727,14.727,0,0,1,178-1.272a11.583,11.583,0,0,1-4.77-4.85,15.582,15.582,0,0,1-1.67-7.394,15.582,15.582,0,0,1,1.67-7.393,11.583,11.583,0,0,1,4.77-4.85,14.727,14.727,0,0,1,7.182-1.7,14.462,14.462,0,0,1,7.1,1.7,11.625,11.625,0,0,1,4.743,4.85,15.582,15.582,0,0,1,1.669,7.393,15.582,15.582,0,0,1-1.669,7.394,11.625,11.625,0,0,1-4.743,4.85A14.462,14.462,0,0,1,185.182.424Zm-.053-5.194a6.251,6.251,0,0,0,5.167-2.2q1.776-2.2,1.775-6.546,0-4.293-1.8-6.545a6.143,6.143,0,0,0-5.088-2.253,6.2,6.2,0,0,0-5.141,2.253q-1.8,2.253-1.8,6.545,0,4.346,1.775,6.546A6.19,6.19,0,0,0,185.129-4.77ZM240.09-26.765h6.466L236.062,0h-5.777L223.66-17.543,217.194,0h-5.83L200.87-26.765h6.784L214.544-7.9l6.943-18.868h4.77L233.2-7.738Zm25.97-.689q9.593,0,9.593,11.024V0h-6.625V-16.112a7.178,7.178,0,0,0-1.219-4.638,4.63,4.63,0,0,0-3.763-1.457,6.447,6.447,0,0,0-4.876,1.934,7.08,7.08,0,0,0-1.855,5.115V0h-6.572V-19.186a60.681,60.681,0,0,0-.424-7.579h6.2l.477,4.4a9.685,9.685,0,0,1,3.737-3.763A10.685,10.685,0,0,1,266.06-27.454ZM307.029.424q-7.261,0-11.554-3.392l1.855-4.664a16.045,16.045,0,0,0,9.805,3.18,7.085,7.085,0,0,0,3.683-.8,2.482,2.482,0,0,0,1.3-2.226,2.34,2.34,0,0,0-.9-1.935,8.317,8.317,0,0,0-3.074-1.245L303.69-11.66q-7.314-1.59-7.314-7.473a7.12,7.12,0,0,1,1.378-4.319,9.049,9.049,0,0,1,3.869-2.941,14.655,14.655,0,0,1,5.777-1.06,17.475,17.475,0,0,1,5.512.875,14.474,14.474,0,0,1,4.664,2.517l-1.961,4.505a13.8,13.8,0,0,0-8.268-2.968,6.358,6.358,0,0,0-3.551.848,2.66,2.66,0,0,0-1.272,2.332,2.367,2.367,0,0,0,.768,1.855,6.412,6.412,0,0,0,2.624,1.166l4.558,1.007a11.5,11.5,0,0,1,5.8,2.783,6.737,6.737,0,0,1,1.828,4.9,6.913,6.913,0,0,1-2.968,5.883Q312.17.424,307.029.424Zm24.91-22.207V-9.805q0,4.717,4.4,4.717a9.373,9.373,0,0,0,2.65-.424V-.265a12.461,12.461,0,0,1-4.24.636q-4.558,0-7-2.544t-2.438-7.314v-12.3h-5.141v-4.982h5.141v-6.519l6.625-2.226v8.745h7.1v4.982ZM369.2-26.765V0h-6.519V-4.293a8.6,8.6,0,0,1-3.5,3.472A10.653,10.653,0,0,1,353.987.424a11.42,11.42,0,0,1-6.2-1.7A11.2,11.2,0,0,1,343.6-6.1a16.759,16.759,0,0,1-1.484-7.261,17.033,17.033,0,0,1,1.51-7.341,11.825,11.825,0,0,1,4.214-4.982,10.947,10.947,0,0,1,6.148-1.775,10.653,10.653,0,0,1,5.194,1.246,8.6,8.6,0,0,1,3.5,3.471v-4.028ZM355.789-4.77a6.113,6.113,0,0,0,5.088-2.279,10.11,10.11,0,0,0,1.8-6.413,10.3,10.3,0,0,0-1.8-6.519,6.171,6.171,0,0,0-5.141-2.279,6.1,6.1,0,0,0-5.115,2.358,10.447,10.447,0,0,0-1.828,6.546A9.779,9.779,0,0,0,350.621-7,6.311,6.311,0,0,0,355.789-4.77ZM402.27-26.765V-.848q0,6.254-3.445,9.487T388.7,11.872a22.271,22.271,0,0,1-10.918-2.6l1.06-5.035a20.823,20.823,0,0,0,9.7,2.544q7.155,0,7.155-7.1v-5.3a9.322,9.322,0,0,1-3.551,3.525A10.272,10.272,0,0,1,386.9-.742a11.693,11.693,0,0,1-6.227-1.67,11.23,11.23,0,0,1-4.24-4.717,15.491,15.491,0,0,1-1.51-6.97,15.491,15.491,0,0,1,1.51-6.97,11.23,11.23,0,0,1,4.24-4.717,11.693,11.693,0,0,1,6.227-1.669,10.919,10.919,0,0,1,5.273,1.246,8.558,8.558,0,0,1,3.525,3.471v-4.028ZM388.649-5.936a6.477,6.477,0,0,0,5.167-2.173A8.848,8.848,0,0,0,395.7-14.1a8.932,8.932,0,0,0-1.855-5.989,6.459,6.459,0,0,0-5.194-2.173,6.477,6.477,0,0,0-5.168,2.173A8.848,8.848,0,0,0,381.6-14.1a8.848,8.848,0,0,0,1.882,5.989A6.477,6.477,0,0,0,388.649-5.936Zm44.2-7.1H414.407q.212,4.293,2.147,6.333a7.56,7.56,0,0,0,5.75,2.041,13.207,13.207,0,0,0,8.162-2.862l1.908,4.558A14.921,14.921,0,0,1,427.683-.5a17.743,17.743,0,0,1-5.645.928q-6.572,0-10.335-3.71t-3.763-10.176a15.591,15.591,0,0,1,1.643-7.261,12.13,12.13,0,0,1,4.611-4.955,12.856,12.856,0,0,1,6.731-1.775,11.118,11.118,0,0,1,8.718,3.577q3.206,3.578,3.207,9.832Zm-11.766-9.646a6.065,6.065,0,0,0-4.32,1.564,7.657,7.657,0,0,0-2.146,4.531h12.455a7.413,7.413,0,0,0-1.828-4.558A5.567,5.567,0,0,0,421.085-22.684Z" transform="translate(830.39 1467.226)" fill="#233367"/>
  </g>
</svg>
