<svg xmlns="http://www.w3.org/2000/svg" width="25.494" height="23.968" viewBox="0 0 25.494 23.968">
  <g id="img_spice_n" transform="translate(0 -0.024)">
    <path id="Path" d="M25.482,6.565A15.043,15.043,0,0,1,23.1,14.108a14.953,14.953,0,0,1-12.559,6.84A15,15,0,0,1,.27,16.885a.857.857,0,0,1,.772-1.46c6.341,1.4,12.765-3.155,14.416-10.174q.025-.1.047-.2c.064-.29.12-.584.166-.877A4.9,4.9,0,0,1,18.28.551,4.842,4.842,0,0,1,21.36.074a4.961,4.961,0,0,1,1.332.439l.014.007a4.89,4.89,0,0,1,2.7,3.882,14.8,14.8,0,0,1,.073,2.164Z" transform="translate(0 3.043)" fill="#ddd"/>
    <path id="Path-2" data-name="Path" d="M1.486,3.693,0,3.529l.051-.463A3.443,3.443,0,0,1,3.85.021L3.686,1.507A1.947,1.947,0,0,0,1.537,3.23Z" transform="translate(20.639 0.025)" fill="#ddd"/>
    <path id="Path-3" data-name="Path" d="M25.482,6.492A15.043,15.043,0,0,1,23.1,14.035a14.953,14.953,0,0,1-12.559,6.84A15,15,0,0,1,.27,16.811a.856.856,0,0,1,.307-1.433C19.219,21.942,21.159,3.668,21.36,0a4.961,4.961,0,0,1,1.332.439l.014.007a4.89,4.89,0,0,1,2.7,3.882,14.8,14.8,0,0,1,.073,2.164Z" transform="translate(0 3.117)" fill="#a2a2a2"/>
    <path id="Path-4" data-name="Path" d="M10.024,6.565l-2.641.783L4.971,5.816l-.038-.024L2.15,6.617,0,5.251q.025-.1.047-.2c.064-.29.12-.584.166-.877A4.9,4.9,0,0,1,2.822.551,4.842,4.842,0,0,1,5.9.074,4.961,4.961,0,0,1,7.234.513L7.248.52A4.89,4.89,0,0,1,9.951,4.4a14.8,14.8,0,0,1,.073,2.164Z" transform="translate(15.458 3.043)" fill="#c2c2c2"/>
    <path id="Path-5" data-name="Path" d="M5.053,6.492l-2.641.783L0,5.742A28.538,28.538,0,0,0,.931,0,4.961,4.961,0,0,1,2.263.439l.014.007a4.89,4.89,0,0,1,2.7,3.882,14.8,14.8,0,0,1,.073,2.164Z" transform="translate(20.429 3.117)" fill="#8e8e8e"/>
  </g>
</svg>
