<?xml version="1.0" encoding="UTF-8" standalone="no"?>
<svg
   xmlns:dc="http://purl.org/dc/elements/1.1/"
   xmlns:cc="http://web.resource.org/cc/"
   xmlns:rdf="http://www.w3.org/1999/02/22-rdf-syntax-ns#"
   xmlns:svg="http://www.w3.org/2000/svg"
   xmlns="http://www.w3.org/2000/svg"
   xmlns:sodipodi="http://sodipodi.sourceforge.net/DTD/sodipodi-0.dtd"
   xmlns:inkscape="http://www.inkscape.org/namespaces/inkscape"
   width="440.01761"
   height="137.56"
   version="1.0"
   zoomAndPan="magnify"
   contentStyleType="text/css"
   preserveAspectRatio="xMidYMid meet"
   id="svg2"
   sodipodi:version="0.32"
   inkscape:version="0.44.1"
   sodipodi:docname="rotation-examples.svg"
   sodipodi:docbase="/Users/bryan/Documents/Teaching/Escher Book/Wiki Art">
  <metadata
     id="metadata21">
    <rdf:RDF>
      <cc:Work
         rdf:about="">
        <dc:format>image/svg+xml</dc:format>
        <dc:type
           rdf:resource="http://purl.org/dc/dcmitype/StillImage" />
      </cc:Work>
    </rdf:RDF>
  </metadata>
  <defs
     id="defs19" />
  <sodipodi:namedview
     inkscape:window-height="620"
     inkscape:window-width="1096"
     inkscape:pageshadow="2"
     inkscape:pageopacity="0.0"
     guidetolerance="10.0"
     gridtolerance="10.0"
     objecttolerance="10.0"
     borderopacity="1.0"
     bordercolor="#666666"
     pagecolor="#ffffff"
     id="base"
     showgrid="true"
     inkscape:zoom="1"
     inkscape:cx="291.76356"
     inkscape:cy="169.59923"
     inkscape:window-x="81"
     inkscape:window-y="80"
     inkscape:current-layer="svg2" />
  <style
     type="text/css"
     id="style4">
		path {
			stroke-linecap: round;
			stroke-linejoin: round;
			stroke-width: 10;
			stroke: #000000;
			fill: #009900;
		}
		</style>
  <g
     id="g1885"
     transform="matrix(0.19,0,0,0.19,118.1171,-1.9)"
     style="fill:none;stroke:black;stroke-width:11;stroke-miterlimit:4;stroke-dasharray:none;stroke-opacity:1">
    <path
       id="path6"
       d="M 280.5,272.5 C 134.5,187.5 134.5,187.5 134.5,187.5 C 210.5,54.5 210.5,54.5 210.5,54.5 C 231,17 309,16 336,48.5 C 373.5,110.5 373.5,110.5 373.5,110.5 L 280.5,272.5 z "
       style="fill:none;stroke:black;stroke-width:11;stroke-linecap:round;stroke-linejoin:round;stroke-miterlimit:4;stroke-dasharray:none;stroke-opacity:1" />
    <path
       id="path8"
       d="M 162.5,475.5 C 84.5,475.5 84.5,475.5 84.5,475.5 C 54.25,471.75 4,410 34.5,354.5 C 68.5,297.5 68.5,297.5 68.5,297.5 C 15.5,266.5 15.5,266.5 15.5,266.5 C 183.5,266.5 183.5,266.5 183.5,266.5 C 268.5,412.5 268.5,412.5 268.5,412.5 C 215.5,383.5 215.5,383.5 215.5,383.5 L 162.5,475.5 z "
       style="fill:none;stroke:black;stroke-width:11;stroke-linecap:round;stroke-linejoin:round;stroke-miterlimit:4;stroke-dasharray:none;stroke-opacity:1" />
    <path
       id="path10"
       d="M 363.5,496.5 C 363.5,667.5 363.5,667.5 363.5,667.5 C 176.5,667.5 176.5,667.5 176.5,667.5 C 165,668 157.5,657.5 151.5,648.5 C 63.5,492.25 64.25,493.5 60.25,488 C 64.75,492.25 70.25,496.25 85.5,496.5 L 363.5,496.5 z "
       style="fill:none;stroke:black;stroke-width:11;stroke-linecap:round;stroke-linejoin:round;stroke-miterlimit:4;stroke-dasharray:none;stroke-opacity:1" />
    <path
       id="path12"
       d="M 687.5,496.5 C 706,494 709.5,489.5 714,486.5 C 620.5,652.5 620.5,652.5 620.5,652.5 C 616.5,660.5 608.5,667.5 596.5,667.5 C 492.5,667.5 492.5,667.5 492.5,667.5 C 492.5,728.5 492.5,728.5 492.5,728.5 C 407.5,583.5 407.5,583.5 407.5,583.5 C 492.5,437.5 492.5,437.5 492.5,437.5 C 492.5,496.5 492.5,496.5 492.5,496.5 L 687.5,496.5 z "
       style="fill:none;stroke:black;stroke-width:11;stroke-linecap:round;stroke-linejoin:round;stroke-miterlimit:4;stroke-dasharray:none;stroke-opacity:1" />
    <path
       id="path14"
       d="M 519.5,315.5 C 666.5,231.5 666.5,231.5 666.5,231.5 C 743.5,362.5 743.5,362.5 743.5,362.5 C 771,416 723,468 691.5,474.5 C 612.5,474.5 612.5,474.5 612.5,474.5 L 519.5,315.5 z "
       style="fill:none;stroke:black;stroke-width:11;stroke-linecap:round;stroke-linejoin:round;stroke-miterlimit:4;stroke-dasharray:none;stroke-opacity:1" />
    <path
       id="path16"
       d="M 357.5,35.5 C 351.5,27.5 339,17.5 328.5,15.5 C 525.5,15.5 525.5,15.5 525.5,15.5 C 536,15.5 546,19 551.5,28.5 C 602.5,118.5 602.5,118.5 602.5,118.5 C 653.5,89.5 653.5,89.5 653.5,89.5 C 570.5,233.5 570.5,233.5 570.5,233.5 C 404.5,233.5 404.5,233.5 404.5,233.5 C 454.5,203.5 454.5,203.5 454.5,203.5 L 357.5,35.5 z "
       style="fill:none;stroke:black;stroke-width:11;stroke-linecap:round;stroke-linejoin:round;stroke-miterlimit:4;stroke-dasharray:none;stroke-opacity:1" />
  </g>
  <path
     sodipodi:type="star"
     style="fill:none;stroke:black;stroke-width:2;stroke-linecap:round;stroke-linejoin:miter;stroke-miterlimit:4;stroke-dasharray:none;stroke-dashoffset:0;stroke-opacity:1"
     id="path5512"
     sodipodi:sides="5"
     sodipodi:cx="365"
     sodipodi:cy="65.559998"
     sodipodi:r1="68.818604"
     sodipodi:r2="34.409302"
     sodipodi:arg1="0.95054684"
     sodipodi:arg2="1.5788654"
     inkscape:flatsided="false"
     inkscape:rounded="0"
     inkscape:randomized="0"
     d="M 405,121.56 L 364.72235,99.968179 L 324.10151,120.90721 L 332.19008,75.928651 L 299.72334,43.766456 L 345,37.559996 L 365.55529,-3.2563656 L 385.44924,37.886391 L 430.61985,44.822688 L 397.63833,76.45677 L 405,121.56 z "
     transform="translate(-8.723345,9.628183)" />
  <g
     id="g7290"
     transform="translate(-459,1.220001)">
    <path
       sodipodi:nodetypes="cscc"
       id="path5514"
       d="M 470,7.5599976 C 470,7.5599976 470,67.559998 510,67.559998 C 550,67.559998 550,7.5599976 550,7.5599976 L 470,7.5599976 z "
       style="opacity:1;color:black;fill:none;fill-opacity:1;fill-rule:evenodd;stroke:black;stroke-width:2;stroke-linecap:butt;stroke-linejoin:miter;marker:none;marker-start:none;marker-mid:none;marker-end:none;stroke-miterlimit:4;stroke-dasharray:none;stroke-dashoffset:0;stroke-opacity:1;visibility:visible;display:inline;overflow:visible" />
    <path
       style="opacity:1;color:black;fill:none;fill-opacity:1;fill-rule:evenodd;stroke:black;stroke-width:2;stroke-linecap:butt;stroke-linejoin:miter;marker:none;marker-start:none;marker-mid:none;marker-end:none;stroke-miterlimit:4;stroke-dasharray:none;stroke-dashoffset:0;stroke-opacity:1;visibility:visible;display:inline;overflow:visible"
       d="M 470,127.56 C 470,127.56 470,67.559998 510,67.559998 C 550,67.559998 550,127.56 550,127.56 L 470,127.56 z "
       id="path7288"
       sodipodi:nodetypes="cscc" />
  </g>
</svg>
