<svg xmlns="http://www.w3.org/2000/svg" width="14.986" height="14.271" viewBox="0 0 14.986 14.271">
  <g id="ic_user" transform="translate(-44.125 -214.412)">
    <path id="Path_2" data-name="Path 2" d="M51.593,222.421a4,4,0,1,0-4.011-4.011,4.012,4.012,0,0,0,4.011,4.011Zm0-6.963a2.953,2.953,0,1,1-2.953,2.952,2.962,2.962,0,0,1,2.953-2.952Zm0,0" fill="#0d1c57"/>
    <path id="Path_3" data-name="Path 3" d="M44.654,228.684H58.582a.525.525,0,0,0,.529-.529,5.037,5.037,0,0,0-5.032-5.032H49.157a5.038,5.038,0,0,0-5.032,5.032.525.525,0,0,0,.529.529Zm4.5-4.5h4.922a3.971,3.971,0,0,1,3.937,3.445H45.22a3.983,3.983,0,0,1,3.937-3.445Zm0,0" fill="#0d1c57"/>
  </g>
</svg>
